WIPSHDC-Missing-JP-Sans-Heavy.ufo
<glyph name="uni4E07" format="2">
  <advance width="1000" height="1000"/>
  <unicode hex="4E07"/>
  <note>
cid09515
</note>
  <outline>
    <contour>
      <point x="944" y="646" type="line"/>
      <point x="944" y="790" type="line"/>
      <point x="57" y="790" type="line"/>
      <point x="57" y="646" type="line"/>
    </contour>
    <contour>
      <point x="769" y="366" type="line"/>
      <point x="769" y="508" type="line"/>
      <point x="381" y="508" type="line"/>
      <point x="381" y="366" type="line"/>
    </contour>
    <contour>
      <point x="856" y="508" type="curve"/>
      <point x="699" y="508" type="line"/>
      <point x="699" y="482" type="line"/>
      <point x="689" y="213"/>
      <point x="672" y="88"/>
      <point x="645" y="63" type="curve" smooth="yes"/>
      <point x="631" y="50"/>
      <point x="620" y="48"/>
      <point x="599" y="48" type="curve" smooth="yes"/>
      <point x="567" y="48"/>
      <point x="498" y="49"/>
      <point x="431" y="54" type="curve"/>
      <point x="459" y="15"/>
      <point x="482" y="-52"/>
      <point x="485" y="-93" type="curve"/>
      <point x="550" y="-95"/>
      <point x="620" y="-96"/>
      <point x="662" y="-90" type="curve" smooth="yes"/>
      <point x="711" y="-84"/>
      <point x="749" y="-71"/>
      <point x="782" y="-32" type="curve" smooth="yes"/>
      <point x="822" y="15"/>
      <point x="840" y="140"/>
      <point x="853" y="446" type="curve"/>
      <point x="854" y="464"/>
      <point x="856" y="508"/>
    </contour>
    <contour>
      <point x="470" y="670" type="curve"/>
      <point x="312" y="670" type="line"/>
      <point x="304" y="388"/>
      <point x="292" y="167"/>
      <point x="25" y="26" type="curve"/>
      <point x="65" y="-3"/>
      <point x="111" y="-56"/>
      <point x="133" y="-97" type="curve"/>
      <point x="425" y="75"/>
      <point x="460" y="344"/>
    </contour>
  </outline>
</glyph>
<glyph name="uni4E4E" format="2">
  <advance width="1000" height="1000"/>
  <unicode hex="4E4E"/>
  <note>
cid09586
</note>
  <outline>
    <contour>
      <point x="890" y="729" type="curve"/>
      <point x="775" y="855" type="line"/>
      <point x="608" y="817"/>
      <point x="347" y="786"/>
      <point x="96" y="776" type="curve"/>
      <point x="111" y="741"/>
      <point x="128" y="683"/>
      <point x="131" y="644" type="curve"/>
      <point x="389" y="649"/>
      <point x="682" y="682"/>
    </contour>
    <contour>
      <point x="961" y="387" type="line"/>
      <point x="42" y="387" type="line"/>
      <point x="42" y="242" type="line"/>
      <point x="961" y="242" type="line"/>
    </contour>
    <contour>
      <point x="581" y="726" type="line"/>
      <point x="423" y="726" type="line"/>
      <point x="423" y="79" type="line" smooth="yes"/>
      <point x="423" y="59"/>
      <point x="414" y="52"/>
      <point x="391" y="52" type="curve" smooth="yes"/>
      <point x="367" y="52"/>
      <point x="282" y="52"/>
      <point x="214" y="56" type="curve"/>
      <point x="238" y="16"/>
      <point x="266" y="-52"/>
      <point x="275" y="-95" type="curve"/>
      <point x="375" y="-95"/>
      <point x="452" y="-91"/>
      <point x="507" y="-68" type="curve" smooth="yes"/>
      <point x="562" y="-46"/>
      <point x="581" y="-7"/>
      <point x="581" y="77" type="curve" smooth="yes"/>
    </contour>
    <contour>
      <point x="264" y="636" type="curve"/>
      <point x="140" y="590" type="line"/>
      <point x="172" y="527"/>
      <point x="206" y="445"/>
      <point x="216" y="392" type="curve"/>
      <point x="349" y="445" type="line"/>
      <point x="336" y="498"/>
      <point x="299" y="577"/>
    </contour>
    <contour>
      <point x="887" y="605" type="curve"/>
      <point x="730" y="662" type="line"/>
      <point x="711" y="592"/>
      <point x="677" y="510"/>
      <point x="642" y="448" type="curve"/>
      <point x="762" y="395" type="line"/>
      <point x="801" y="454"/>
      <point x="849" y="535"/>
    </contour>
  </outline>
</glyph>
<glyph name="uni4E5E" format="2">
  <advance width="1000" height="1000"/>
  <unicode hex="4E5E"/>
  <note>
cid09607
</note>
  <outline>
    <contour>
      <point x="676" y="508" type="line"/>
      <point x="221" y="508" type="line"/>
      <point x="221" y="369" type="line"/>
      <point x="676" y="369" type="line"/>
    </contour>
    <contour>
      <point x="683" y="508" type="line"/>
      <point x="660" y="508" type="line"/>
      <point x="165" y="240"/>
      <point x="141" y="167"/>
      <point x="141" y="83" type="curve" smooth="yes"/>
      <point x="141" y="-20"/>
      <point x="223" y="-85"/>
      <point x="394" y="-85" type="curve" smooth="yes"/>
      <point x="744" y="-85" type="line" smooth="yes"/>
      <point x="896" y="-85"/>
      <point x="958" y="-45"/>
      <point x="976" y="141" type="curve"/>
      <point x="930" y="150"/>
      <point x="878" y="167"/>
      <point x="836" y="191" type="curve"/>
      <point x="831" y="76"/>
      <point x="807" y="61"/>
      <point x="759" y="61" type="curve" smooth="yes"/>
      <point x="382" y="61" type="line" smooth="yes"/>
      <point x="328" y="61"/>
      <point x="297" y="71"/>
      <point x="297" y="98" type="curve" smooth="yes"/>
      <point x="297" y="134"/>
      <point x="330" y="179"/>
      <point x="793" y="415" type="curve" smooth="yes"/>
      <point x="804" y="421"/>
      <point x="814" y="429"/>
      <point x="820" y="435" type="curve"/>
      <point x="714" y="513" type="line"/>
    </contour>
    <contour>
      <point x="422" y="805" type="curve"/>
      <point x="268" y="854" type="line"/>
      <point x="216" y="726"/>
      <point x="123" y="600"/>
      <point x="25" y="526" type="curve"/>
      <point x="64" y="499"/>
      <point x="120" y="452"/>
      <point x="152" y="418" type="curve"/>
      <point x="254" y="506"/>
      <point x="358" y="655"/>
    </contour>
    <contour>
      <point x="944" y="731" type="line"/>
      <point x="282" y="731" type="line"/>
      <point x="210" y="588" type="line"/>
      <point x="944" y="588" type="line"/>
    </contour>
  </outline>
</glyph>
<glyph name="uni4E69" format="2">
  <advance width="1000" height="1000"/>
  <unicode hex="4E69"/>
  <note>
cid09646
</note>
  <outline>
    <contour>
      <point x="725" y="109" type="curve" smooth="yes"/>
      <point x="725" y="838" type="line"/>
      <point x="582" y="838" type="line"/>
      <point x="582" y="111" type="line" smooth="yes"/>
      <point x="582" y="-39"/>
      <point x="615" y="-86"/>
      <point x="728" y="-86" type="curve" smooth="yes"/>
      <point x="747" y="-86"/>
      <point x="804" y="-86"/>
      <point x="825" y="-86" type="curve" smooth="yes"/>
      <point x="935" y="-86"/>
      <point x="966" y="-4"/>
      <point x="977" y="200" type="curve"/>
      <point x="940" y="209"/>
      <point x="880" y="237"/>
      <point x="846" y="264" type="curve"/>
      <point x="841" y="93"/>
      <point x="837" y="49"/>
      <point x="809" y="49" type="curve" smooth="yes"/>
      <point x="799" y="49"/>
      <point x="763" y="49"/>
      <point x="752" y="49" type="curve" smooth="yes"/>
      <point x="728" y="49"/>
      <point x="725" y="56"/>
    </contour>
    <contour>
      <point x="350" y="285" type="line"/>
      <point x="350" y="841" type="line"/>
      <point x="211" y="841" type="line"/>
      <point x="211" y="285" type="line"/>
    </contour>
    <contour>
      <point x="541" y="556" type="line"/>
      <point x="541" y="683" type="line"/>
      <point x="266" y="683" type="line"/>
      <point x="266" y="556" type="line"/>
    </contour>
    <contour>
      <point x="463" y="-30" type="line"/>
      <point x="463" y="101" type="line"/>
      <point x="111" y="101" type="line"/>
      <point x="111" y="-30" type="line"/>
    </contour>
    <contour>
      <point x="514" y="-90" type="line"/>
      <point x="514" y="396" type="line"/>
      <point x="62" y="396" type="line"/>
      <point x="62" y="-95" type="line"/>
      <point x="190" y="-95" type="line"/>
      <point x="190" y="267" type="line"/>
      <point x="380" y="267" type="line"/>
      <point x="380" y="-90" type="line"/>
    </contour>
  </outline>
</glyph>
<glyph name="uni4E71" format="2">
  <advance width="1000" height="1000"/>
  <unicode hex="4E71"/>
  <note>
cid09655
</note>
  <outline>
    <contour>
      <point x="560" y="440" type="line"/>
      <point x="560" y="569" type="line"/>
      <point x="24" y="569" type="line"/>
      <point x="24" y="440" type="line"/>
    </contour>
    <contour>
      <point x="474" y="-59" type="line"/>
      <point x="474" y="68" type="line"/>
      <point x="127" y="68" type="line"/>
      <point x="127" y="-59" type="line"/>
    </contour>
    <contour>
      <point x="553" y="742" type="curve"/>
      <point x="449" y="855" type="line"/>
      <point x="344" y="822"/>
      <point x="184" y="794"/>
      <point x="36" y="779" type="curve"/>
      <point x="52" y="748"/>
      <point x="70" y="696"/>
      <point x="76" y="663" type="curve"/>
      <point x="231" y="676"/>
      <point x="411" y="701"/>
    </contour>
    <contour>
      <point x="727" y="108" type="curve" smooth="yes"/>
      <point x="727" y="836" type="line"/>
      <point x="583" y="836" type="line"/>
      <point x="583" y="110" type="line" smooth="yes"/>
      <point x="583" y="-43"/>
      <point x="616" y="-89"/>
      <point x="729" y="-89" type="curve" smooth="yes"/>
      <point x="750" y="-89"/>
      <point x="805" y="-89"/>
      <point x="827" y="-89" type="curve" smooth="yes"/>
      <point x="933" y="-89"/>
      <point x="966" y="-15"/>
      <point x="978" y="168" type="curve"/>
      <point x="939" y="177"/>
      <point x="881" y="204"/>
      <point x="848" y="230" type="curve"/>
      <point x="843" y="86"/>
      <point x="838" y="47"/>
      <point x="812" y="47" type="curve" smooth="yes"/>
      <point x="802" y="47"/>
      <point x="765" y="47"/>
      <point x="754" y="47" type="curve" smooth="yes"/>
      <point x="730" y="47"/>
      <point x="727" y="54"/>
    </contour>
    <contour>
      <point x="539" y="-83" type="line"/>
      <point x="539" y="315" type="line"/>
      <point x="65" y="315" type="line"/>
      <point x="65" y="-95" type="line"/>
      <point x="200" y="-95" type="line"/>
      <point x="200" y="188" type="line"/>
      <point x="397" y="188" type="line"/>
      <point x="397" y="-83" type="line"/>
    </contour>
    <contour>
      <point x="370" y="225" type="line"/>
      <point x="370" y="758" type="line"/>
      <point x="228" y="758" type="line"/>
      <point x="228" y="225" type="line"/>
    </contour>
  </outline>
</glyph>
<glyph name="uni4E88" format="2">
  <advance width="1000" height="1000"/>
  <unicode hex="4E88"/>
  <note>
cid09689
</note>
  <outline>
    <contour>
      <point x="583" y="56" type="curve" smooth="yes"/>
      <point x="583" y="357" type="line"/>
      <point x="431" y="357" type="line"/>
      <point x="431" y="61" type="line" smooth="yes"/>
      <point x="431" y="46"/>
      <point x="425" y="43"/>
      <point x="405" y="42" type="curve" smooth="yes"/>
      <point x="385" y="42"/>
      <point x="307" y="42"/>
      <point x="253" y="45" type="curve"/>
      <point x="274" y="7"/>
      <point x="298" y="-54"/>
      <point x="306" y="-95" type="curve"/>
      <point x="391" y="-95"/>
      <point x="460" y="-93"/>
      <point x="513" y="-73" type="curve" smooth="yes"/>
      <point x="567" y="-53"/>
      <point x="583" y="-16"/>
    </contour>
    <contour>
      <point x="746" y="665" type="line"/>
      <point x="746" y="798" type="line"/>
      <point x="142" y="798" type="line"/>
      <point x="142" y="665" type="line"/>
    </contour>
    <contour>
      <point x="763" y="806" type="line"/>
      <point x="730" y="798" type="line"/>
      <point x="691" y="798" type="line"/>
      <point x="691" y="767" type="line"/>
      <point x="653" y="714"/>
      <point x="554" y="627"/>
      <point x="470" y="579" type="curve"/>
      <point x="494" y="556"/>
      <point x="537" y="511"/>
      <point x="557" y="482" type="curve"/>
      <point x="666" y="543"/>
      <point x="781" y="639"/>
      <point x="867" y="723" type="curve"/>
    </contour>
    <contour>
      <point x="849" y="330" type="line"/>
      <point x="849" y="468" type="line"/>
      <point x="43" y="468" type="line"/>
      <point x="43" y="330" type="line"/>
    </contour>
    <contour>
      <point x="364" y="647" type="curve"/>
      <point x="262" y="545" type="line"/>
      <point x="383" y="500"/>
      <point x="525" y="433"/>
      <point x="606" y="383" type="curve"/>
      <point x="718" y="500" type="line"/>
      <point x="630" y="547"/>
      <point x="484" y="608"/>
    </contour>
    <contour>
      <point x="853" y="478" type="line"/>
      <point x="828" y="468" type="line"/>
      <point x="801" y="468" type="line"/>
      <point x="801" y="445" type="line"/>
      <point x="779" y="373"/>
      <point x="735" y="284"/>
      <point x="697" y="227" type="curve"/>
      <point x="822" y="155" type="line"/>
      <point x="876" y="227"/>
      <point x="934" y="330"/>
      <point x="973" y="427" type="curve"/>
    </contour>
  </outline>
</glyph>
<glyph name="uni4E8B" format="2">
  <advance width="1000" height="1000"/>
  <unicode hex="4E8B"/>
  <note>
cid09693
</note>
  <outline>
    <contour>
      <point x="570" y="36" type="curve" smooth="yes"/>
      <point x="570" y="855" type="line"/>
      <point x="422" y="855" type="line"/>
      <point x="422" y="37" type="line" smooth="yes"/>
      <point x="422" y="20"/>
      <point x="416" y="13"/>
      <point x="397" y="13" type="curve" smooth="yes"/>
      <point x="381" y="13"/>
      <point x="322" y="13"/>
      <point x="282" y="15" type="curve"/>
      <point x="300" y="-15"/>
      <point x="321" y="-65"/>
      <point x="328" y="-97" type="curve"/>
      <point x="414" y="-98"/>
      <point x="469" y="-96"/>
      <point x="512" y="-77" type="curve" smooth="yes"/>
      <point x="555" y="-58"/>
      <point x="570" y="-29"/>
    </contour>
    <contour>
      <point x="944" y="685" type="line"/>
      <point x="944" y="798" type="line"/>
      <point x="57" y="798" type="line"/>
      <point x="57" y="685" type="line"/>
    </contour>
    <contour>
      <point x="697" y="531" type="line"/>
      <point x="297" y="531" type="line"/>
      <point x="297" y="568" type="line"/>
      <point x="697" y="568" type="line"/>
    </contour>
    <contour>
      <point x="846" y="442" type="line"/>
      <point x="846" y="657" type="line"/>
      <point x="158" y="657" type="line"/>
      <point x="158" y="442" type="line"/>
    </contour>
    <contour>
      <point x="864" y="7" type="line"/>
      <point x="864" y="413" type="line"/>
      <point x="136" y="413" type="line"/>
      <point x="136" y="317" type="line"/>
      <point x="716" y="317" type="line"/>
      <point x="716" y="7" type="line"/>
    </contour>
    <contour>
      <point x="969" y="181" type="line"/>
      <point x="969" y="290" type="line"/>
      <point x="32" y="290" type="line"/>
      <point x="32" y="181" type="line"/>
    </contour>
    <contour>
      <point x="796" y="48" type="line"/>
      <point x="796" y="151" type="line"/>
      <point x="129" y="151" type="line"/>
      <point x="129" y="48" type="line"/>
    </contour>
  </outline>
</glyph>
<glyph name="uni4ED6" format="2">
  <advance width="1000" height="1000"/>
  <unicode hex="4ED6"/>
  <note>
cid09814
</note>
  <outline>
    <contour>
      <point x="724" y="144" type="line"/>
      <point x="724" y="833" type="line"/>
      <point x="587" y="833" type="line"/>
      <point x="587" y="144" type="line"/>
    </contour>
    <contour>
      <point x="886" y="542" type="line"/>
      <point x="839" y="669" type="line"/>
      <point x="264" y="466" type="line"/>
      <point x="311" y="339" type="line"/>
    </contour>
    <contour>
      <point x="516" y="122" type="curve" smooth="yes"/>
      <point x="516" y="767" type="line"/>
      <point x="375" y="767" type="line"/>
      <point x="375" y="122" type="line" smooth="yes"/>
      <point x="375" y="-39"/>
      <point x="419" y="-81"/>
      <point x="577" y="-81" type="curve" smooth="yes"/>
      <point x="613" y="-81"/>
      <point x="752" y="-81"/>
      <point x="791" y="-81" type="curve" smooth="yes"/>
      <point x="921" y="-81"/>
      <point x="965" y="-32"/>
      <point x="984" y="110" type="curve"/>
      <point x="944" y="118"/>
      <point x="886" y="141"/>
      <point x="854" y="163" type="curve"/>
      <point x="844" y="70"/>
      <point x="832" y="50"/>
      <point x="776" y="50" type="curve" smooth="yes"/>
      <point x="746" y="50"/>
      <point x="620" y="50"/>
      <point x="589" y="50" type="curve" smooth="yes"/>
      <point x="523" y="50"/>
      <point x="516" y="58"/>
    </contour>
    <contour>
      <point x="821" y="662" type="line"/>
      <point x="799" y="647" type="line"/>
      <point x="806" y="647" type="line"/>
      <point x="806" y="428"/>
      <point x="805" y="342"/>
      <point x="801" y="322" type="curve" smooth="yes"/>
      <point x="798" y="303"/>
      <point x="791" y="299"/>
      <point x="778" y="299" type="curve" smooth="yes"/>
      <point x="765" y="299"/>
      <point x="739" y="300"/>
      <point x="718" y="301" type="curve"/>
      <point x="734" y="270"/>
      <point x="747" y="207"/>
      <point x="749" y="167" type="curve"/>
      <point x="789" y="166"/>
      <point x="840" y="168"/>
      <point x="874" y="185" type="curve" smooth="yes"/>
      <point x="910" y="202"/>
      <point x="928" y="232"/>
      <point x="933" y="287" type="curve" smooth="yes"/>
      <point x="939" y="332"/>
      <point x="941" y="444"/>
      <point x="942" y="620" type="curve"/>
      <point x="947" y="642" type="line"/>
      <point x="847" y="680" type="line"/>
    </contour>
    <contour>
      <point x="362" y="808" type="curve"/>
      <point x="228" y="851" type="line"/>
      <point x="180" y="714"/>
      <point x="97" y="576"/>
      <point x="11" y="488" type="curve"/>
      <point x="35" y="453"/>
      <point x="73" y="373"/>
      <point x="86" y="338" type="curve"/>
      <point x="194" y="453"/>
      <point x="299" y="639"/>
    </contour>
    <contour>
      <point x="130" y="564" type="line"/>
      <point x="130" y="-94" type="line"/>
      <point x="273" y="-94" type="line"/>
      <point x="273" y="706" type="line"/>
      <point x="273" y="707" type="line"/>
    </contour>
  </outline>
</glyph>
<glyph name="uni4ED7" format="2">
  <advance width="1000" height="1000"/>
  <unicode hex="4ED7"/>
  <note>
cid09816
</note>
  <outline>
    <contour>
      <point x="975" y="516" type="line"/>
      <point x="975" y="655" type="line"/>
      <point x="349" y="655" type="line"/>
      <point x="349" y="516" type="line"/>
    </contour>
    <contour>
      <point x="545" y="498" type="curve"/>
      <point x="412" y="472" type="line"/>
      <point x="485" y="176"/>
      <point x="605" y="-12"/>
      <point x="888" y="-96" type="curve"/>
      <point x="908" y="-57"/>
      <point x="949" y="4"/>
      <point x="980" y="34" type="curve"/>
      <point x="722" y="96"/>
      <point x="600" y="259"/>
    </contour>
    <contour>
      <point x="792" y="556" type="curve" smooth="yes"/>
      <point x="792" y="841" type="line"/>
      <point x="646" y="841" type="line"/>
      <point x="646" y="556" type="line" smooth="yes"/>
      <point x="646" y="385"/>
      <point x="627" y="149"/>
      <point x="320" y="23" type="curve"/>
      <point x="351" y="-4"/>
      <point x="401" y="-64"/>
      <point x="420" y="-98" type="curve"/>
      <point x="759" y="50"/>
      <point x="792" y="336"/>
    </contour>
    <contour>
      <point x="156" y="549" type="line"/>
      <point x="156" y="-94" type="line"/>
      <point x="300" y="-94" type="line"/>
      <point x="300" y="689" type="line"/>
      <point x="298" y="691" type="line"/>
    </contour>
    <contour>
      <point x="392" y="804" type="curve"/>
      <point x="250" y="850" type="line"/>
      <point x="196" y="707"/>
      <point x="103" y="564"/>
      <point x="6" y="475" type="curve"/>
      <point x="32" y="439"/>
      <point x="75" y="358"/>
      <point x="89" y="322" type="curve"/>
      <point x="207" y="439"/>
      <point x="322" y="629"/>
    </contour>
  </outline>
</glyph>
<glyph name="uni4ED8" format="2">
  <advance width="1000" height="1000"/>
  <unicode hex="4ED8"/>
  <note>
cid09817
</note>
  <outline>
    <contour>
      <point x="976" y="495" type="line"/>
      <point x="976" y="642" type="line"/>
      <point x="354" y="642" type="line"/>
      <point x="354" y="495" type="line"/>
    </contour>
    <contour>
      <point x="874" y="74" type="curve" smooth="yes"/>
      <point x="874" y="844" type="line"/>
      <point x="723" y="844" type="line"/>
      <point x="723" y="75" type="line" smooth="yes"/>
      <point x="723" y="53"/>
      <point x="713" y="44"/>
      <point x="691" y="44" type="curve" smooth="yes"/>
      <point x="668" y="44"/>
      <point x="603" y="44"/>
      <point x="537" y="48" type="curve"/>
      <point x="556" y="10"/>
      <point x="580" y="-55"/>
      <point x="586" y="-96" type="curve"/>
      <point x="687" y="-97"/>
      <point x="760" y="-94"/>
      <point x="808" y="-72" type="curve" smooth="yes"/>
      <point x="857" y="-50"/>
      <point x="874" y="-13"/>
    </contour>
    <contour>
      <point x="518" y="442" type="curve"/>
      <point x="389" y="382" type="line"/>
      <point x="442" y="302"/>
      <point x="491" y="205"/>
      <point x="509" y="146" type="curve"/>
      <point x="648" y="216" type="line"/>
      <point x="624" y="276"/>
      <point x="571" y="370"/>
    </contour>
    <contour>
      <point x="156" y="547" type="line"/>
      <point x="156" y="-95" type="line"/>
      <point x="304" y="-95" type="line"/>
      <point x="304" y="691" type="line"/>
      <point x="302" y="693" type="line"/>
    </contour>
    <contour>
      <point x="389" y="804" type="curve"/>
      <point x="245" y="850" type="line"/>
      <point x="194" y="709"/>
      <point x="106" y="567"/>
      <point x="14" y="479" type="curve"/>
      <point x="40" y="443"/>
      <point x="83" y="361"/>
      <point x="98" y="325" type="curve"/>
      <point x="212" y="441"/>
      <point x="322" y="630"/>
    </contour>
  </outline>
</glyph>
<glyph name="uni4EDE" format="2">
  <advance width="1000" height="1000"/>
  <unicode hex="4EDE"/>
  <note>
cid09826
</note>
  <outline>
    <contour>
      <point x="859" y="634" type="line"/>
      <point x="859" y="774" type="line"/>
      <point x="368" y="774" type="line"/>
      <point x="368" y="634" type="line"/>
    </contour>
    <contour>
      <point x="958" y="774" type="curve"/>
      <point x="808" y="774" type="line"/>
      <point x="808" y="740" type="line" smooth="yes"/>
      <point x="801" y="297"/>
      <point x="793" y="115"/>
      <point x="764" y="80" type="curve" smooth="yes"/>
      <point x="753" y="65"/>
      <point x="743" y="60"/>
      <point x="725" y="60" type="curve" smooth="yes"/>
      <point x="699" y="60"/>
      <point x="653" y="60"/>
      <point x="599" y="64" type="curve"/>
      <point x="626" y="20"/>
      <point x="646" y="-48"/>
      <point x="648" y="-90" type="curve"/>
      <point x="704" y="-92"/>
      <point x="761" y="-92"/>
      <point x="799" y="-84" type="curve" smooth="yes"/>
      <point x="842" y="-75"/>
      <point x="870" y="-60"/>
      <point x="901" y="-14" type="curve" smooth="yes"/>
      <point x="940" y="43"/>
      <point x="948" y="219"/>
      <point x="957" y="703" type="curve" smooth="yes"/>
      <point x="957" y="722"/>
      <point x="958" y="774"/>
    </contour>
    <contour>
      <point x="715" y="712" type="curve"/>
      <point x="563" y="712" type="line"/>
      <point x="556" y="461"/>
      <point x="568" y="177"/>
      <point x="305" y="18" type="curve"/>
      <point x="344" y="-11"/>
      <point x="386" y="-60"/>
      <point x="408" y="-99" type="curve"/>
      <point x="699" y="91"/>
      <point x="709" y="416"/>
    </contour>
    <contour>
      <point x="527" y="532" type="curve"/>
      <point x="400" y="566" type="line"/>
      <point x="390" y="464"/>
      <point x="349" y="359"/>
      <point x="299" y="310" type="curve"/>
      <point x="421" y="239" type="line"/>
      <point x="469" y="290"/>
      <point x="513" y="411"/>
    </contour>
    <contour>
      <point x="375" y="804" type="curve"/>
      <point x="242" y="853" type="line"/>
      <point x="186" y="720"/>
      <point x="92" y="580"/>
      <point x="9" y="490" type="curve"/>
      <point x="32" y="454"/>
      <point x="72" y="372"/>
      <point x="85" y="337" type="curve"/>
      <point x="187" y="454"/>
      <point x="303" y="644"/>
    </contour>
    <contour>
      <point x="148" y="563" type="line"/>
      <point x="148" y="-95" type="line"/>
      <point x="288" y="-95" type="line"/>
      <point x="288" y="700" type="line"/>
      <point x="288" y="701" type="line"/>
    </contour>
  </outline>
</glyph>
<glyph name="uni4EDF" format="2">
  <advance width="1000" height="1000"/>
  <unicode hex="4EDF"/>
  <note>
cid09828
</note>
  <outline>
    <contour>
      <point x="975" y="317" type="line"/>
      <point x="975" y="461" type="line"/>
      <point x="335" y="461" type="line"/>
      <point x="335" y="317" type="line"/>
    </contour>
    <contour>
      <point x="948" y="713" type="curve"/>
      <point x="836" y="832" type="line"/>
      <point x="719" y="789"/>
      <point x="534" y="750"/>
      <point x="357" y="732" type="curve"/>
      <point x="374" y="699"/>
      <point x="394" y="642"/>
      <point x="400" y="607" type="curve"/>
      <point x="589" y="625"/>
      <point x="801" y="666"/>
    </contour>
    <contour>
      <point x="735" y="-95" type="line"/>
      <point x="735" y="715" type="line"/>
      <point x="587" y="715" type="line"/>
      <point x="587" y="-95" type="line"/>
    </contour>
    <contour>
      <point x="395" y="803" type="curve"/>
      <point x="250" y="850" type="line"/>
      <point x="196" y="707"/>
      <point x="103" y="564"/>
      <point x="6" y="475" type="curve"/>
      <point x="33" y="438"/>
      <point x="76" y="356"/>
      <point x="91" y="319" type="curve"/>
      <point x="209" y="436"/>
      <point x="325" y="627"/>
    </contour>
    <contour>
      <point x="156" y="549" type="line"/>
      <point x="156" y="-94" type="line"/>
      <point x="300" y="-94" type="line"/>
      <point x="300" y="689" type="line"/>
      <point x="298" y="691" type="line"/>
    </contour>
  </outline>
</glyph>
<glyph name="uni4EF6" format="2">
  <advance width="1000" height="1000"/>
  <unicode hex="4EF6"/>
  <note>
cid09862
</note>
  <outline>
    <contour>
      <point x="730" y="-95" type="line"/>
      <point x="730" y="841" type="line"/>
      <point x="583" y="841" type="line"/>
      <point x="583" y="-95" type="line"/>
    </contour>
    <contour>
      <point x="549" y="768" type="curve"/>
      <point x="409" y="797" type="line"/>
      <point x="387" y="679"/>
      <point x="345" y="552"/>
      <point x="293" y="476" type="curve"/>
      <point x="327" y="461"/>
      <point x="391" y="428"/>
      <point x="419" y="407" type="curve"/>
      <point x="471" y="494"/>
      <point x="521" y="634"/>
    </contour>
    <contour>
      <point x="944" y="525" type="line"/>
      <point x="944" y="667" type="line"/>
      <point x="464" y="667" type="line"/>
      <point x="428" y="525" type="line"/>
    </contour>
    <contour>
      <point x="984" y="237" type="line"/>
      <point x="984" y="379" type="line"/>
      <point x="316" y="379" type="line"/>
      <point x="316" y="237" type="line"/>
    </contour>
    <contour>
      <point x="365" y="808" type="curve"/>
      <point x="228" y="851" type="line"/>
      <point x="180" y="714"/>
      <point x="97" y="576"/>
      <point x="11" y="488" type="curve"/>
      <point x="35" y="452"/>
      <point x="74" y="371"/>
      <point x="87" y="336" type="curve"/>
      <point x="196" y="451"/>
      <point x="301" y="638"/>
    </contour>
    <contour>
      <point x="140" y="564" type="line"/>
      <point x="140" y="-94" type="line"/>
      <point x="278" y="-94" type="line"/>
      <point x="278" y="701" type="line"/>
      <point x="278" y="702" type="line"/>
    </contour>
  </outline>
</glyph>
<glyph name="uni4F0F" format="2">
  <advance width="1000" height="1000"/>
  <unicode hex="4F0F"/>
  <note>
cid09899
</note>
  <outline>
    <contour>
      <point x="375" y="813" type="curve"/>
      <point x="235" y="857" type="line"/>
      <point x="187" y="717"/>
      <point x="104" y="575"/>
      <point x="17" y="486" type="curve"/>
      <point x="41" y="449"/>
      <point x="81" y="366"/>
      <point x="95" y="330" type="curve"/>
      <point x="205" y="448"/>
      <point x="311" y="640"/>
    </contour>
    <contour>
      <point x="137" y="567" type="line"/>
      <point x="137" y="-96" type="line"/>
      <point x="283" y="-96" type="line"/>
      <point x="283" y="713" type="line"/>
      <point x="283" y="713" type="line"/>
    </contour>
    <contour>
      <point x="955" y="442" type="line"/>
      <point x="955" y="586" type="line"/>
      <point x="320" y="586" type="line"/>
      <point x="320" y="442" type="line"/>
    </contour>
    <contour>
      <point x="698" y="505" type="curve"/>
      <point x="567" y="497" type="line"/>
      <point x="582" y="240"/>
      <point x="698" y="13"/>
      <point x="868" y="-92" type="curve"/>
      <point x="892" y="-52"/>
      <point x="942" y="7"/>
      <point x="977" y="36" type="curve"/>
      <point x="819" y="121"/>
      <point x="711" y="302"/>
    </contour>
    <contour>
      <point x="827" y="833" type="curve"/>
      <point x="720" y="767" type="line"/>
      <point x="763" y="717"/>
      <point x="815" y="648"/>
      <point x="836" y="603" type="curve"/>
      <point x="950" y="677" type="line"/>
      <point x="926" y="722"/>
      <point x="871" y="787"/>
    </contour>
    <contour>
      <point x="700" y="676" type="curve" smooth="yes"/>
      <point x="700" y="839" type="line"/>
      <point x="552" y="839" type="line"/>
      <point x="552" y="677" type="line" smooth="yes"/>
      <point x="552" y="298"/>
      <point x="490" y="134"/>
      <point x="302" y="20" type="curve"/>
      <point x="336" y="-12"/>
      <point x="380" y="-58"/>
      <point x="402" y="-95" type="curve"/>
      <point x="626" y="60"/>
      <point x="700" y="252"/>
    </contour>
  </outline>
</glyph>
<glyph name="uni4F10" format="2">
  <advance width="1000" height="1000"/>
  <unicode hex="4F10"/>
  <note>
cid09900
</note>
  <outline>
    <contour>
      <point x="955" y="509" type="line"/>
      <point x="944" y="644" type="line"/>
      <point x="316" y="584" type="line"/>
      <point x="328" y="447" type="line"/>
    </contour>
    <contour>
      <point x="655" y="843" type="curve"/>
      <point x="502" y="843" type="line"/>
      <point x="504" y="395"/>
      <point x="578" y="-97"/>
      <point x="808" y="-97" type="curve" smooth="yes"/>
      <point x="914" y="-97"/>
      <point x="962" y="-52"/>
      <point x="984" y="153" type="curve"/>
      <point x="944" y="167"/>
      <point x="891" y="202"/>
      <point x="858" y="235" type="curve"/>
      <point x="852" y="106"/>
      <point x="840" y="52"/>
      <point x="819" y="52" type="curve" smooth="yes"/>
      <point x="731" y="52"/>
      <point x="645" y="460"/>
    </contour>
    <contour>
      <point x="939" y="417" type="curve"/>
      <point x="796" y="463" type="line"/>
      <point x="707" y="269"/>
      <point x="528" y="120"/>
      <point x="313" y="36" type="curve"/>
      <point x="343" y="7"/>
      <point x="392" y="-55"/>
      <point x="412" y="-88" type="curve"/>
      <point x="633" y="17"/>
      <point x="828" y="190"/>
    </contour>
    <contour>
      <point x="773" y="856" type="curve"/>
      <point x="677" y="777" type="line"/>
      <point x="731" y="737"/>
      <point x="792" y="680"/>
      <point x="824" y="639" type="curve"/>
      <point x="925" y="728" type="line"/>
      <point x="890" y="768"/>
      <point x="827" y="820"/>
    </contour>
    <contour>
      <point x="385" y="812" type="curve"/>
      <point x="245" y="856" type="line"/>
      <point x="193" y="713"/>
      <point x="103" y="570"/>
      <point x="10" y="481" type="curve"/>
      <point x="35" y="446"/>
      <point x="77" y="366"/>
      <point x="91" y="331" type="curve"/>
      <point x="206" y="448"/>
      <point x="317" y="637"/>
    </contour>
    <contour>
      <point x="147" y="547" type="line"/>
      <point x="147" y="-95" type="line"/>
      <point x="294" y="-95" type="line"/>
      <point x="294" y="690" type="line"/>
      <point x="292" y="692" type="line"/>
    </contour>
  </outline>
</glyph>
<glyph name="uni4F2F" format="2">
  <advance width="1000" height="1000"/>
  <unicode hex="4F2F"/>
  <note>
cid09940
</note>
  <outline>
    <contour>
      <point x="930" y="-85" type="line"/>
      <point x="930" y="679" type="line"/>
      <point x="387" y="679" type="line"/>
      <point x="387" y="-93" type="line"/>
      <point x="532" y="-93" type="line"/>
      <point x="532" y="542" type="line"/>
      <point x="778" y="542" type="line"/>
      <point x="778" y="-85" type="line"/>
    </contour>
    <contour>
      <point x="758" y="829" type="curve"/>
      <point x="585" y="856" type="line"/>
      <point x="572" y="782"/>
      <point x="545" y="687"/>
      <point x="517" y="621" type="curve"/>
      <point x="652" y="592" type="line"/>
      <point x="684" y="651"/>
      <point x="724" y="740"/>
    </contour>
    <contour>
      <point x="835" y="250" type="line"/>
      <point x="835" y="393" type="line"/>
      <point x="461" y="393" type="line"/>
      <point x="461" y="250" type="line"/>
    </contour>
    <contour>
      <point x="835" y="-44" type="line"/>
      <point x="835" y="102" type="line"/>
      <point x="461" y="102" type="line"/>
      <point x="461" y="-44" type="line"/>
    </contour>
    <contour>
      <point x="395" y="806" type="curve"/>
      <point x="250" y="853" type="line"/>
      <point x="196" y="710"/>
      <point x="103" y="567"/>
      <point x="6" y="478" type="curve"/>
      <point x="33" y="441"/>
      <point x="76" y="359"/>
      <point x="91" y="322" type="curve"/>
      <point x="209" y="439"/>
      <point x="325" y="630"/>
    </contour>
    <contour>
      <point x="156" y="548" type="line"/>
      <point x="156" y="-95" type="line"/>
      <point x="300" y="-95" type="line"/>
      <point x="300" y="688" type="line"/>
      <point x="298" y="690" type="line"/>
    </contour>
  </outline>
</glyph>
<glyph name="uni4F43" format="2">
  <advance width="1000" height="1000"/>
  <unicode hex="4F43"/>
  <note>
cid09966
</note>
  <outline>
    <contour>
      <point x="879" y="-32" type="line"/>
      <point x="879" y="109" type="line"/>
      <point x="437" y="109" type="line"/>
      <point x="437" y="-32" type="line"/>
    </contour>
    <contour>
      <point x="874" y="312" type="line"/>
      <point x="874" y="452" type="line"/>
      <point x="441" y="452" type="line"/>
      <point x="441" y="312" type="line"/>
    </contour>
    <contour>
      <point x="716" y="35" type="line"/>
      <point x="716" y="714" type="line"/>
      <point x="575" y="714" type="line"/>
      <point x="575" y="35" type="line"/>
    </contour>
    <contour>
      <point x="946" y="-86" type="line"/>
      <point x="946" y="786" type="line"/>
      <point x="356" y="786" type="line"/>
      <point x="356" y="-95" type="line"/>
      <point x="494" y="-95" type="line"/>
      <point x="494" y="645" type="line"/>
      <point x="800" y="645" type="line"/>
      <point x="800" y="-86" type="line"/>
    </contour>
    <contour>
      <point x="359" y="808" type="curve"/>
      <point x="222" y="851" type="line"/>
      <point x="174" y="714"/>
      <point x="91" y="576"/>
      <point x="5" y="488" type="curve"/>
      <point x="29" y="452"/>
      <point x="68" y="371"/>
      <point x="81" y="336" type="curve"/>
      <point x="190" y="451"/>
      <point x="295" y="638"/>
    </contour>
    <contour>
      <point x="130" y="564" type="line"/>
      <point x="130" y="-94" type="line"/>
      <point x="268" y="-94" type="line"/>
      <point x="268" y="701" type="line"/>
      <point x="268" y="702" type="line"/>
    </contour>
  </outline>
</glyph>
<glyph name="uni4F53" format="2">
  <advance width="1000" height="1000"/>
  <unicode hex="4F53"/>
  <note>
cid09990
</note>
  <outline>
    <contour>
      <point x="359" y="808" type="curve"/>
      <point x="222" y="851" type="line"/>
      <point x="174" y="714"/>
      <point x="91" y="576"/>
      <point x="5" y="488" type="curve"/>
      <point x="29" y="452"/>
      <point x="68" y="371"/>
      <point x="81" y="336" type="curve"/>
      <point x="190" y="451"/>
      <point x="295" y="638"/>
    </contour>
    <contour>
      <point x="130" y="564" type="line"/>
      <point x="130" y="-94" type="line"/>
      <point x="268" y="-94" type="line"/>
      <point x="268" y="701" type="line"/>
      <point x="268" y="702" type="line"/>
    </contour>
    <contour>
      <point x="700" y="-95" type="line"/>
      <point x="700" y="842" type="line"/>
      <point x="558" y="842" type="line"/>
      <point x="558" y="-95" type="line"/>
    </contour>
    <contour>
      <point x="964" y="507" type="line"/>
      <point x="964" y="645" type="line"/>
      <point x="320" y="645" type="line"/>
      <point x="320" y="507" type="line"/>
    </contour>
    <contour>
      <point x="819" y="72" type="line"/>
      <point x="819" y="201" type="line"/>
      <point x="445" y="201" type="line"/>
      <point x="445" y="72" type="line"/>
    </contour>
    <contour>
      <point x="746" y="570" type="curve"/>
      <point x="647" y="540" type="line"/>
      <point x="696" y="361"/>
      <point x="788" y="173"/>
      <point x="890" y="61" type="curve"/>
      <point x="915" y="98"/>
      <point x="962" y="148"/>
      <point x="996" y="174" type="curve"/>
      <point x="894" y="266"/>
      <point x="797" y="424"/>
    </contour>
    <contour>
      <point x="616" y="542" type="curve"/>
      <point x="514" y="571" type="line"/>
      <point x="465" y="415"/>
      <point x="368" y="259"/>
      <point x="261" y="166" type="curve"/>
      <point x="292" y="141"/>
      <point x="339" y="91"/>
      <point x="362" y="58" type="curve"/>
      <point x="472" y="171"/>
      <point x="563" y="352"/>
    </contour>
  </outline>
</glyph>
<glyph name="uni4F60" format="2">
  <advance width="1000" height="1000"/>
  <unicode hex="4F60"/>
  <note>
cid10011
</note>
  <outline>
    <contour>
      <point x="586" y="819" type="curve"/>
      <point x="443" y="852" type="line"/>
      <point x="409" y="718"/>
      <point x="346" y="584"/>
      <point x="269" y="502" type="curve"/>
      <point x="302" y="480"/>
      <point x="361" y="432"/>
      <point x="386" y="406" type="curve"/>
      <point x="467" y="504"/>
      <point x="542" y="662"/>
    </contour>
    <contour>
      <point x="553" y="389" type="curve"/>
      <point x="412" y="418" type="line"/>
      <point x="392" y="312"/>
      <point x="352" y="201"/>
      <point x="299" y="134" type="curve"/>
      <point x="333" y="117"/>
      <point x="395" y="79"/>
      <point x="422" y="56" type="curve"/>
      <point x="476" y="136"/>
      <point x="526" y="264"/>
    </contour>
    <contour>
      <point x="871" y="549" type="line"/>
      <point x="871" y="683" type="line"/>
      <point x="483" y="683" type="line"/>
      <point x="429" y="549" type="line"/>
    </contour>
    <contour>
      <point x="719" y="63" type="curve" smooth="yes"/>
      <point x="719" y="623" type="line"/>
      <point x="575" y="623" type="line"/>
      <point x="575" y="65" type="line" smooth="yes"/>
      <point x="575" y="52"/>
      <point x="570" y="48"/>
      <point x="557" y="48" type="curve" smooth="yes"/>
      <point x="543" y="48"/>
      <point x="501" y="48"/>
      <point x="462" y="50" type="curve"/>
      <point x="483" y="11"/>
      <point x="505" y="-55"/>
      <point x="511" y="-96" type="curve"/>
      <point x="577" y="-96"/>
      <point x="629" y="-91"/>
      <point x="668" y="-67" type="curve" smooth="yes"/>
      <point x="709" y="-43"/>
      <point x="719" y="-3"/>
    </contour>
    <contour>
      <point x="867" y="430" type="curve"/>
      <point x="737" y="386" type="line"/>
      <point x="782" y="284"/>
      <point x="820" y="147"/>
      <point x="828" y="59" type="curve"/>
      <point x="968" y="108" type="line"/>
      <point x="955" y="197"/>
      <point x="916" y="328"/>
    </contour>
    <contour>
      <point x="874" y="687" type="line"/>
      <point x="852" y="683" type="line"/>
      <point x="833" y="683" type="line"/>
      <point x="833" y="665" type="line" smooth="yes"/>
      <point x="828" y="593"/>
      <point x="818" y="501"/>
      <point x="811" y="445" type="curve"/>
      <point x="934" y="423" type="line"/>
      <point x="949" y="487"/>
      <point x="966" y="583"/>
      <point x="977" y="669" type="curve"/>
    </contour>
    <contour>
      <point x="359" y="808" type="curve"/>
      <point x="222" y="851" type="line"/>
      <point x="174" y="714"/>
      <point x="91" y="576"/>
      <point x="5" y="488" type="curve"/>
      <point x="29" y="452"/>
      <point x="68" y="371"/>
      <point x="81" y="336" type="curve"/>
      <point x="190" y="451"/>
      <point x="295" y="638"/>
    </contour>
    <contour>
      <point x="268" y="701" type="line"/>
      <point x="268" y="702" type="line"/>
      <point x="130" y="564" type="line"/>
      <point x="130" y="-94" type="line"/>
      <point x="268" y="-94" type="line"/>
    </contour>
  </outline>
</glyph>
<glyph name="uni4F70" format="2">
  <advance width="1000" height="1000"/>
  <unicode hex="4F70"/>
  <note>
cid10034
</note>
  <outline>
    <contour>
      <point x="358" y="816" type="curve"/>
      <point x="221" y="853" type="line"/>
      <point x="179" y="688"/>
      <point x="108" y="534"/>
      <point x="12" y="439" type="curve"/>
      <point x="35" y="402"/>
      <point x="70" y="321"/>
      <point x="81" y="284" type="curve"/>
      <point x="205" y="409"/>
      <point x="301" y="614"/>
    </contour>
    <contour>
      <point x="149" y="566" type="line"/>
      <point x="149" y="-100" type="line"/>
      <point x="287" y="-100" type="line"/>
      <point x="287" y="703" type="line"/>
      <point x="287" y="704" type="line"/>
    </contour>
    <contour>
      <point x="963" y="667" type="line"/>
      <point x="963" y="803" type="line"/>
      <point x="363" y="803" type="line"/>
      <point x="363" y="667" type="line"/>
    </contour>
    <contour>
      <point x="747" y="713" type="curve"/>
      <point x="579" y="728" type="line"/>
      <point x="574" y="659"/>
      <point x="558" y="569"/>
      <point x="542" y="505" type="curve"/>
      <point x="674" y="485" type="line"/>
      <point x="696" y="542"/>
      <point x="724" y="627"/>
    </contour>
    <contour>
      <point x="931" y="-88" type="line"/>
      <point x="931" y="558" type="line"/>
      <point x="397" y="558" type="line"/>
      <point x="397" y="-94" type="line"/>
      <point x="534" y="-94" type="line"/>
      <point x="534" y="425" type="line"/>
      <point x="787" y="425" type="line"/>
      <point x="787" y="-88" type="line"/>
    </contour>
    <contour>
      <point x="823" y="189" type="line"/>
      <point x="823" y="320" type="line"/>
      <point x="483" y="320" type="line"/>
      <point x="483" y="189" type="line"/>
    </contour>
    <contour>
      <point x="820" y="-45" type="line"/>
      <point x="820" y="88" type="line"/>
      <point x="471" y="88" type="line"/>
      <point x="471" y="-45" type="line"/>
    </contour>
  </outline>
</glyph>
<glyph name="uni4F73" format="2">
  <advance width="1000" height="1000"/>
  <unicode hex="4F73"/>
  <note>
cid10038
</note>
  <outline>
    <contour>
      <point x="364" y="808" type="curve"/>
      <point x="228" y="851" type="line"/>
      <point x="180" y="714"/>
      <point x="97" y="576"/>
      <point x="11" y="488" type="curve"/>
      <point x="35" y="452"/>
      <point x="74" y="371"/>
      <point x="86" y="336" type="curve"/>
      <point x="195" y="451"/>
      <point x="300" y="638"/>
    </contour>
    <contour>
      <point x="130" y="564" type="line"/>
      <point x="130" y="-94" type="line"/>
      <point x="274" y="-94" type="line"/>
      <point x="274" y="707" type="line"/>
      <point x="274" y="708" type="line"/>
    </contour>
    <contour>
      <point x="913" y="617" type="line"/>
      <point x="913" y="751" type="line"/>
      <point x="377" y="751" type="line"/>
      <point x="377" y="617" type="line"/>
    </contour>
    <contour>
      <point x="934" y="166" type="line"/>
      <point x="934" y="302" type="line"/>
      <point x="357" y="302" type="line"/>
      <point x="357" y="166" type="line"/>
    </contour>
    <contour>
      <point x="958" y="398" type="line"/>
      <point x="958" y="534" type="line"/>
      <point x="332" y="534" type="line"/>
      <point x="332" y="398" type="line"/>
    </contour>
    <contour>
      <point x="975" y="-66" type="line"/>
      <point x="975" y="73" type="line"/>
      <point x="304" y="73" type="line"/>
      <point x="304" y="-66" type="line"/>
    </contour>
    <contour>
      <point x="716" y="451" type="line"/>
      <point x="716" y="850" type="line"/>
      <point x="568" y="850" type="line"/>
      <point x="568" y="451" type="line"/>
    </contour>
    <contour>
      <point x="716" y="-28" type="line"/>
      <point x="716" y="388" type="line"/>
      <point x="568" y="388" type="line"/>
      <point x="568" y="-28" type="line"/>
    </contour>
  </outline>
</glyph>
<glyph name="uni4F7B" format="2">
  <advance width="1000" height="1000"/>
  <unicode hex="4F7B"/>
  <note>
cid10050
</note>
  <outline>
    <contour>
      <point x="791" y="94" type="curve" smooth="yes"/>
      <point x="791" y="845" type="line"/>
      <point x="652" y="845" type="line"/>
      <point x="652" y="95" type="line" smooth="yes"/>
      <point x="652" y="-49"/>
      <point x="679" y="-92"/>
      <point x="779" y="-92" type="curve" smooth="yes"/>
      <point x="798" y="-92"/>
      <point x="839" y="-92"/>
      <point x="858" y="-92" type="curve" smooth="yes"/>
      <point x="944" y="-92"/>
      <point x="977" y="-36"/>
      <point x="990" y="103" type="curve"/>
      <point x="951" y="112"/>
      <point x="899" y="137"/>
      <point x="868" y="161" type="curve"/>
      <point x="864" y="65"/>
      <point x="861" y="37"/>
      <point x="845" y="37" type="curve" smooth="yes"/>
      <point x="839" y="37"/>
      <point x="814" y="37"/>
      <point x="808" y="37" type="curve" smooth="yes"/>
      <point x="793" y="37"/>
      <point x="791" y="43"/>
    </contour>
    <contour>
      <point x="404" y="706" type="curve"/>
      <point x="285" y="659" type="line"/>
      <point x="321" y="589"/>
      <point x="357" y="498"/>
      <point x="368" y="440" type="curve"/>
      <point x="496" y="493" type="line"/>
      <point x="483" y="552"/>
      <point x="442" y="639"/>
    </contour>
    <contour>
      <point x="814" y="428" type="curve"/>
      <point x="726" y="338" type="line"/>
      <point x="786" y="287"/>
      <point x="863" y="214"/>
      <point x="897" y="166" type="curve"/>
      <point x="991" y="267" type="line"/>
      <point x="954" y="314"/>
      <point x="873" y="382"/>
    </contour>
    <contour>
      <point x="274" y="296" type="curve"/>
      <point x="342" y="157" type="line"/>
      <point x="399" y="195"/>
      <point x="462" y="240"/>
      <point x="520" y="284" type="curve"/>
      <point x="480" y="401" type="line"/>
      <point x="404" y="360"/>
      <point x="326" y="319"/>
    </contour>
    <contour>
      <point x="970" y="667" type="curve"/>
      <point x="835" y="725" type="line"/>
      <point x="819" y="657"/>
      <point x="787" y="566"/>
      <point x="759" y="508" type="curve"/>
      <point x="865" y="457" type="line"/>
      <point x="896" y="509"/>
      <point x="934" y="591"/>
    </contour>
    <contour>
      <point x="598" y="390" type="curve" smooth="yes"/>
      <point x="598" y="845" type="line"/>
      <point x="458" y="845" type="line"/>
      <point x="458" y="390" type="line" smooth="yes"/>
      <point x="458" y="250"/>
      <point x="438" y="83"/>
      <point x="281" y="-4" type="curve"/>
      <point x="313" y="-25"/>
      <point x="365" y="-72"/>
      <point x="388" y="-100" type="curve"/>
      <point x="566" y="3"/>
      <point x="598" y="202"/>
    </contour>
    <contour>
      <point x="356" y="811" type="curve"/>
      <point x="218" y="852" type="line"/>
      <point x="173" y="714"/>
      <point x="92" y="574"/>
      <point x="8" y="485" type="curve"/>
      <point x="32" y="449"/>
      <point x="73" y="369"/>
      <point x="87" y="334" type="curve"/>
      <point x="193" y="451"/>
      <point x="295" y="640"/>
    </contour>
    <contour>
      <point x="130" y="564" type="line"/>
      <point x="130" y="-94" type="line"/>
      <point x="268" y="-94" type="line"/>
      <point x="268" y="701" type="line"/>
      <point x="268" y="702" type="line"/>
    </contour>
  </outline>
</glyph>
<glyph name="uni4F91" format="2">
  <advance width="1000" height="1000"/>
  <unicode hex="4F91"/>
  <note>
cid10087
</note>
  <outline>
    <contour>
      <point x="369" y="808" type="curve"/>
      <point x="232" y="851" type="line"/>
      <point x="184" y="714"/>
      <point x="101" y="576"/>
      <point x="15" y="488" type="curve"/>
      <point x="39" y="452"/>
      <point x="78" y="371"/>
      <point x="91" y="336" type="curve"/>
      <point x="200" y="451"/>
      <point x="305" y="638"/>
    </contour>
    <contour>
      <point x="150" y="563" type="line"/>
      <point x="150" y="-95" type="line"/>
      <point x="288" y="-95" type="line"/>
      <point x="288" y="700" type="line"/>
      <point x="288" y="701" type="line"/>
    </contour>
    <contour>
      <point x="976" y="594" type="line"/>
      <point x="976" y="728" type="line"/>
      <point x="339" y="728" type="line"/>
      <point x="339" y="594" type="line"/>
    </contour>
    <contour>
      <point x="681" y="831" type="curve"/>
      <point x="535" y="856" type="line"/>
      <point x="496" y="644"/>
      <point x="413" y="466"/>
      <point x="273" y="365" type="curve"/>
      <point x="303" y="338"/>
      <point x="357" y="279"/>
      <point x="377" y="250" type="curve"/>
      <point x="530" y="376"/>
      <point x="629" y="584"/>
    </contour>
    <contour>
      <point x="919" y="50" type="curve" smooth="yes"/>
      <point x="919" y="534" type="line"/>
      <point x="777" y="534" type="line"/>
      <point x="777" y="53" type="line" smooth="yes"/>
      <point x="777" y="41"/>
      <point x="773" y="37"/>
      <point x="760" y="37" type="curve" smooth="yes"/>
      <point x="747" y="37"/>
      <point x="705" y="36"/>
      <point x="673" y="38" type="curve"/>
      <point x="690" y="3"/>
      <point x="707" y="-55"/>
      <point x="712" y="-94" type="curve"/>
      <point x="779" y="-94"/>
      <point x="829" y="-92"/>
      <point x="869" y="-71" type="curve" smooth="yes"/>
      <point x="908" y="-49"/>
      <point x="919" y="-13"/>
    </contour>
    <contour>
      <point x="857" y="251" type="line"/>
      <point x="857" y="369" type="line"/>
      <point x="546" y="369" type="line"/>
      <point x="546" y="251" type="line"/>
    </contour>
    <contour>
      <point x="858" y="85" type="line"/>
      <point x="858" y="206" type="line"/>
      <point x="551" y="206" type="line"/>
      <point x="551" y="85" type="line"/>
    </contour>
    <contour>
      <point x="845" y="410" type="line"/>
      <point x="845" y="534" type="line"/>
      <point x="444" y="534" type="line"/>
      <point x="444" y="-95" type="line"/>
      <point x="584" y="-95" type="line"/>
      <point x="584" y="410" type="line"/>
    </contour>
  </outline>
</glyph>
<glyph name="uni4F9B" format="2">
  <advance width="1000" height="1000"/>
  <unicode hex="4F9B"/>
  <note>
cid10104
</note>
  <outline>
    <contour>
      <point x="377" y="809" type="curve"/>
      <point x="242" y="853" type="line"/>
      <point x="190" y="715"/>
      <point x="100" y="577"/>
      <point x="8" y="491" type="curve"/>
      <point x="32" y="455"/>
      <point x="70" y="374"/>
      <point x="83" y="339" type="curve"/>
      <point x="197" y="453"/>
      <point x="309" y="639"/>
    </contour>
    <contour>
      <point x="146" y="563" type="line"/>
      <point x="146" y="-95" type="line"/>
      <point x="288" y="-95" type="line"/>
      <point x="288" y="700" type="line"/>
      <point x="288" y="701" type="line"/>
    </contour>
    <contour>
      <point x="955" y="516" type="line"/>
      <point x="955" y="650" type="line"/>
      <point x="352" y="650" type="line"/>
      <point x="352" y="516" type="line"/>
    </contour>
    <contour>
      <point x="975" y="195" type="line"/>
      <point x="975" y="332" type="line"/>
      <point x="327" y="332" type="line"/>
      <point x="327" y="195" type="line"/>
    </contour>
    <contour>
      <point x="588" y="255" type="line"/>
      <point x="588" y="836" type="line"/>
      <point x="447" y="836" type="line"/>
      <point x="447" y="255" type="line"/>
    </contour>
    <contour>
      <point x="854" y="255" type="line"/>
      <point x="854" y="836" type="line"/>
      <point x="710" y="836" type="line"/>
      <point x="710" y="255" type="line"/>
    </contour>
    <contour>
      <point x="620" y="129" type="curve"/>
      <point x="477" y="176" type="line"/>
      <point x="438" y="111"/>
      <point x="372" y="43"/>
      <point x="306" y="0" type="curve"/>
      <point x="343" y="-25"/>
      <point x="395" y="-67"/>
      <point x="424" y="-96" type="curve"/>
      <point x="501" y="-37"/>
      <point x="576" y="49"/>
    </contour>
    <contour>
      <point x="807" y="179" type="curve"/>
      <point x="682" y="119" type="line"/>
      <point x="745" y="56"/>
      <point x="813" y="-32"/>
      <point x="847" y="-96" type="curve"/>
      <point x="983" y="-28" type="line"/>
      <point x="944" y="33"/>
      <point x="871" y="119"/>
    </contour>
  </outline>
</glyph>
<glyph name="uni4FC3" format="2">
  <advance width="1000" height="1000"/>
  <unicode hex="4FC3"/>
  <note>
cid10170
</note>
  <outline>
    <contour>
      <point x="773" y="562" type="line"/>
      <point x="526" y="562" type="line"/>
      <point x="526" y="689" type="line"/>
      <point x="773" y="689" type="line"/>
    </contour>
    <contour>
      <point x="919" y="436" type="line"/>
      <point x="919" y="815" type="line"/>
      <point x="389" y="815" type="line"/>
      <point x="389" y="436" type="line"/>
    </contour>
    <contour>
      <point x="932" y="200" type="line"/>
      <point x="932" y="335" type="line"/>
      <point x="648" y="335" type="line"/>
      <point x="648" y="200" type="line"/>
    </contour>
    <contour>
      <point x="733" y="-5" type="line"/>
      <point x="733" y="509" type="line"/>
      <point x="587" y="509" type="line"/>
      <point x="587" y="57" type="line"/>
    </contour>
    <contour>
      <point x="514" y="245" type="curve"/>
      <point x="401" y="209" type="line"/>
      <point x="472" y="-23"/>
      <point x="599" y="-76"/>
      <point x="786" y="-76" type="curve" smooth="yes"/>
      <point x="909" y="-76" type="line"/>
      <point x="944" y="-76" type="line"/>
      <point x="950" y="-37"/>
      <point x="969" y="28"/>
      <point x="987" y="59" type="curve"/>
      <point x="939" y="58"/>
      <point x="834" y="57"/>
      <point x="798" y="57" type="curve" smooth="yes"/>
      <point x="668" y="57"/>
      <point x="562" y="87"/>
    </contour>
    <contour>
      <point x="535" y="360" type="curve"/>
      <point x="397" y="373" type="line"/>
      <point x="388" y="213"/>
      <point x="351" y="71"/>
      <point x="278" y="-11" type="curve"/>
      <point x="309" y="-29"/>
      <point x="369" y="-73"/>
      <point x="392" y="-96" type="curve"/>
      <point x="471" y="6"/>
      <point x="518" y="168"/>
    </contour>
    <contour>
      <point x="377" y="809" type="curve"/>
      <point x="242" y="853" type="line"/>
      <point x="190" y="715"/>
      <point x="100" y="577"/>
      <point x="8" y="491" type="curve"/>
      <point x="32" y="455"/>
      <point x="70" y="374"/>
      <point x="83" y="339" type="curve"/>
      <point x="197" y="453"/>
      <point x="309" y="639"/>
    </contour>
    <contour>
      <point x="150" y="565" type="line"/>
      <point x="150" y="-93" type="line"/>
      <point x="288" y="-93" type="line"/>
      <point x="288" y="702" type="line"/>
      <point x="288" y="703" type="line"/>
    </contour>
  </outline>
</glyph>
<glyph name="uni4FC4" format="2">
  <advance width="1000" height="1000"/>
  <unicode hex="4FC4"/>
  <note>
cid10171
</note>
  <outline>
    <contour>
      <point x="330" y="815" type="curve"/>
      <point x="197" y="855" type="line"/>
      <point x="156" y="713"/>
      <point x="85" y="571"/>
      <point x="7" y="480" type="curve"/>
      <point x="30" y="441"/>
      <point x="65" y="356"/>
      <point x="76" y="320" type="curve"/>
      <point x="180" y="442"/>
      <point x="274" y="639"/>
    </contour>
    <contour>
      <point x="118" y="564" type="line"/>
      <point x="118" y="-94" type="line"/>
      <point x="256" y="-94" type="line"/>
      <point x="256" y="696" type="line"/>
      <point x="252" y="698" type="line"/>
    </contour>
    <contour>
      <point x="663" y="726" type="curve"/>
      <point x="566" y="833" type="line"/>
      <point x="494" y="798"/>
      <point x="385" y="764"/>
      <point x="283" y="743" type="curve"/>
      <point x="299" y="715"/>
      <point x="318" y="668"/>
      <point x="323" y="637" type="curve"/>
      <point x="433" y="655"/>
      <point x="560" y="685"/>
    </contour>
    <contour>
      <point x="975" y="433" type="line"/>
      <point x="975" y="557" type="line"/>
      <point x="285" y="557" type="line"/>
      <point x="285" y="433" type="line"/>
    </contour>
    <contour>
      <point x="554" y="52" type="curve" smooth="yes"/>
      <point x="554" y="743" type="line"/>
      <point x="418" y="743" type="line"/>
      <point x="418" y="54" type="line" smooth="yes"/>
      <point x="418" y="39"/>
      <point x="413" y="35"/>
      <point x="398" y="35" type="curve" smooth="yes"/>
      <point x="383" y="34"/>
      <point x="337" y="34"/>
      <point x="296" y="36" type="curve"/>
      <point x="313" y="-1"/>
      <point x="331" y="-59"/>
      <point x="336" y="-96" type="curve"/>
      <point x="410" y="-96"/>
      <point x="464" y="-92"/>
      <point x="503" y="-70" type="curve" smooth="yes"/>
      <point x="543" y="-49"/>
      <point x="554" y="-14"/>
    </contour>
    <contour>
      <point x="274" y="284" type="curve"/>
      <point x="306" y="144" type="line"/>
      <point x="409" y="169"/>
      <point x="540" y="199"/>
      <point x="660" y="230" type="curve"/>
      <point x="646" y="359" type="line"/>
      <point x="512" y="330"/>
      <point x="369" y="300"/>
    </contour>
    <contour>
      <point x="795" y="838" type="curve"/>
      <point x="654" y="838" type="line"/>
      <point x="654" y="402"/>
      <point x="670" y="-98"/>
      <point x="853" y="-98" type="curve" smooth="yes"/>
      <point x="940" y="-98"/>
      <point x="976" y="-60"/>
      <point x="994" y="94" type="curve"/>
      <point x="962" y="110"/>
      <point x="919" y="141"/>
      <point x="892" y="174" type="curve"/>
      <point x="890" y="82"/>
      <point x="882" y="40"/>
      <point x="871" y="40" type="curve" smooth="yes"/>
      <point x="820" y="40"/>
      <point x="783" y="467"/>
    </contour>
    <contour>
      <point x="971" y="376" type="curve"/>
      <point x="844" y="408" type="line"/>
      <point x="789" y="247"/>
      <point x="681" y="112"/>
      <point x="543" y="33" type="curve"/>
      <point x="570" y="10"/>
      <point x="616" y="-42"/>
      <point x="634" y="-69" type="curve"/>
      <point x="780" y="28"/>
      <point x="901" y="186"/>
    </contour>
    <contour>
      <point x="910" y="814" type="curve"/>
      <point x="805" y="772" type="line"/>
      <point x="832" y="713"/>
      <point x="861" y="635"/>
      <point x="870" y="586" type="curve"/>
      <point x="982" y="635" type="line"/>
      <point x="971" y="683"/>
      <point x="939" y="758"/>
    </contour>
  </outline>
</glyph>
<glyph name="uni4FCE" format="2">
  <advance width="1000" height="1000"/>
  <unicode hex="4FCE"/>
  <note>
cid10189
</note>
  <outline>
    <contour>
      <point x="916" y="-10" type="line"/>
      <point x="916" y="808" type="line"/>
      <point x="468" y="808" type="line"/>
      <point x="468" y="-10" type="line"/>
      <point x="607" y="-10" type="line"/>
      <point x="607" y="674" type="line"/>
      <point x="770" y="674" type="line"/>
      <point x="770" y="-10" type="line"/>
    </contour>
    <contour>
      <point x="259" y="700" type="curve"/>
      <point x="188" y="603" type="line"/>
      <point x="255" y="551"/>
      <point x="346" y="476"/>
      <point x="386" y="426" type="curve"/>
      <point x="462" y="536" type="line"/>
      <point x="419" y="584"/>
      <point x="325" y="653"/>
    </contour>
    <contour>
      <point x="339" y="809" type="curve"/>
      <point x="208" y="831" type="line"/>
      <point x="180" y="680"/>
      <point x="118" y="546"/>
      <point x="19" y="468" type="curve"/>
      <point x="49" y="449"/>
      <point x="104" y="405"/>
      <point x="126" y="382" type="curve"/>
      <point x="228" y="477"/>
      <point x="301" y="630"/>
    </contour>
    <contour>
      <point x="282" y="251" type="curve"/>
      <point x="205" y="156" type="line"/>
      <point x="265" y="105"/>
      <point x="328" y="44"/>
      <point x="358" y="7" type="curve"/>
      <point x="440" y="115" type="line"/>
      <point x="408" y="150"/>
      <point x="343" y="206"/>
    </contour>
    <contour>
      <point x="340" y="397" type="curve"/>
      <point x="200" y="422" type="line"/>
      <point x="170" y="259"/>
      <point x="97" y="103"/>
      <point x="10" y="17" type="curve"/>
      <point x="41" y="-5"/>
      <point x="97" y="-53"/>
      <point x="120" y="-79" type="curve"/>
      <point x="217" y="20"/>
      <point x="302" y="204"/>
    </contour>
    <contour>
      <point x="847" y="437" type="line"/>
      <point x="847" y="564" type="line"/>
      <point x="540" y="564" type="line"/>
      <point x="540" y="437" type="line"/>
    </contour>
    <contour>
      <point x="847" y="197" type="line"/>
      <point x="847" y="324" type="line"/>
      <point x="540" y="324" type="line"/>
      <point x="540" y="197" type="line"/>
    </contour>
    <contour>
      <point x="975" y="-66" type="line"/>
      <point x="975" y="76" type="line"/>
      <point x="385" y="76" type="line"/>
      <point x="385" y="-66" type="line"/>
    </contour>
  </outline>
</glyph>
<glyph name="uni4FD0" format="2">
  <advance width="1000" height="1000"/>
  <unicode hex="4FD0"/>
  <note>
cid10193
</note>
  <outline>
    <contour>
      <point x="775" y="144" type="line"/>
      <point x="775" y="729" type="line"/>
      <point x="653" y="729" type="line"/>
      <point x="653" y="144" type="line"/>
    </contour>
    <contour>
      <point x="660" y="733" type="curve"/>
      <point x="563" y="837" type="line"/>
      <point x="489" y="804"/>
      <point x="375" y="772"/>
      <point x="272" y="752" type="curve"/>
      <point x="286" y="724"/>
      <point x="305" y="677"/>
      <point x="310" y="648" type="curve"/>
      <point x="423" y="665"/>
      <point x="555" y="694"/>
    </contour>
    <contour>
      <point x="635" y="436" type="line"/>
      <point x="635" y="565" type="line"/>
      <point x="283" y="565" type="line"/>
      <point x="283" y="436" type="line"/>
    </contour>
    <contour>
      <point x="537" y="-91" type="line"/>
      <point x="537" y="790" type="line"/>
      <point x="405" y="733" type="line"/>
      <point x="405" y="-91" type="line"/>
    </contour>
    <contour>
      <point x="510" y="482" type="curve"/>
      <point x="417" y="521" type="line"/>
      <point x="387" y="419"/>
      <point x="315" y="274"/>
      <point x="246" y="189" type="curve"/>
      <point x="268" y="152"/>
      <point x="301" y="93"/>
      <point x="314" y="52" type="curve"/>
      <point x="395" y="157"/>
      <point x="468" y="342"/>
    </contour>
    <contour>
      <point x="526" y="422" type="curve"/>
      <point x="459" y="350" type="line"/>
      <point x="493" y="301"/>
      <point x="555" y="203"/>
      <point x="586" y="143" type="curve"/>
      <point x="662" y="264" type="line"/>
      <point x="642" y="289"/>
      <point x="553" y="397"/>
    </contour>
    <contour>
      <point x="945" y="51" type="curve" smooth="yes"/>
      <point x="945" y="840" type="line"/>
      <point x="814" y="840" type="line"/>
      <point x="814" y="52" type="line" smooth="yes"/>
      <point x="814" y="37"/>
      <point x="809" y="32"/>
      <point x="795" y="32" type="curve" smooth="yes"/>
      <point x="780" y="32"/>
      <point x="736" y="32"/>
      <point x="696" y="34" type="curve"/>
      <point x="713" y="-3"/>
      <point x="730" y="-60"/>
      <point x="734" y="-95" type="curve"/>
      <point x="808" y="-95"/>
      <point x="860" y="-91"/>
      <point x="897" y="-70" type="curve" smooth="yes"/>
      <point x="934" y="-49"/>
      <point x="945" y="-14"/>
    </contour>
    <contour>
      <point x="330" y="815" type="curve"/>
      <point x="197" y="855" type="line"/>
      <point x="156" y="713"/>
      <point x="85" y="571"/>
      <point x="7" y="480" type="curve"/>
      <point x="30" y="441"/>
      <point x="65" y="356"/>
      <point x="76" y="320" type="curve"/>
      <point x="180" y="442"/>
      <point x="274" y="639"/>
    </contour>
    <contour>
      <point x="118" y="563" type="line"/>
      <point x="118" y="-95" type="line"/>
      <point x="251" y="-95" type="line"/>
      <point x="251" y="691" type="line"/>
      <point x="248" y="693" type="line"/>
    </contour>
  </outline>
</glyph>
<glyph name="uni4FD1" format="2">
  <advance width="1000" height="1000"/>
  <unicode hex="4FD1"/>
  <note>
cid10194
</note>
  <outline>
    <contour>
      <point x="349" y="808" type="curve"/>
      <point x="212" y="851" type="line"/>
      <point x="163" y="707"/>
      <point x="83" y="567"/>
      <point x="5" y="488" type="curve"/>
      <point x="29" y="452"/>
      <point x="68" y="371"/>
      <point x="81" y="336" type="curve"/>
      <point x="178" y="441"/>
      <point x="281" y="623"/>
    </contour>
    <contour>
      <point x="130" y="564" type="line"/>
      <point x="130" y="-94" type="line"/>
      <point x="268" y="-94" type="line"/>
      <point x="268" y="701" type="line"/>
      <point x="268" y="702" type="line"/>
    </contour>
    <contour>
      <point x="812" y="701" type="line"/>
      <point x="812" y="821" type="line"/>
      <point x="357" y="821" type="line"/>
      <point x="357" y="701" type="line"/>
    </contour>
    <contour>
      <point x="503" y="695" type="curve"/>
      <point x="438" y="598" type="line"/>
      <point x="542" y="569"/>
      <point x="682" y="514"/>
      <point x="750" y="474" type="curve"/>
      <point x="820" y="583" type="line"/>
      <point x="746" y="623"/>
      <point x="603" y="672"/>
    </contour>
    <contour>
      <point x="846" y="426" type="line"/>
      <point x="846" y="552" type="line"/>
      <point x="339" y="552" type="line"/>
      <point x="339" y="-94" type="line"/>
      <point x="476" y="-94" type="line"/>
      <point x="476" y="426" type="line"/>
    </contour>
    <contour>
      <point x="851" y="259" type="line"/>
      <point x="851" y="381" type="line"/>
      <point x="424" y="381" type="line"/>
      <point x="424" y="259" type="line"/>
    </contour>
    <contour>
      <point x="851" y="87" type="line"/>
      <point x="851" y="211" type="line"/>
      <point x="424" y="211" type="line"/>
      <point x="424" y="87" type="line"/>
    </contour>
    <contour>
      <point x="944" y="46" type="curve" smooth="yes"/>
      <point x="944" y="552" type="line"/>
      <point x="802" y="552" type="line"/>
      <point x="802" y="48" type="line" smooth="yes"/>
      <point x="802" y="38"/>
      <point x="798" y="34"/>
      <point x="788" y="34" type="curve" smooth="yes"/>
      <point x="778" y="34"/>
      <point x="747" y="34"/>
      <point x="722" y="35" type="curve"/>
      <point x="740" y="1"/>
      <point x="758" y="-57"/>
      <point x="762" y="-94" type="curve"/>
      <point x="819" y="-94"/>
      <point x="863" y="-92"/>
      <point x="899" y="-70" type="curve" smooth="yes"/>
      <point x="935" y="-48"/>
      <point x="944" y="-13"/>
    </contour>
    <contour>
      <point x="705" y="-90" type="line"/>
      <point x="705" y="486" type="line"/>
      <point x="567" y="486" type="line"/>
      <point x="567" y="-90" type="line"/>
    </contour>
    <contour>
      <point x="835" y="828" type="line"/>
      <point x="807" y="821" type="line"/>
      <point x="772" y="821" type="line"/>
      <point x="772" y="795" type="line"/>
      <point x="742" y="747"/>
      <point x="664" y="678"/>
      <point x="590" y="640" type="curve"/>
      <point x="613" y="618"/>
      <point x="652" y="576"/>
      <point x="669" y="549" type="curve"/>
      <point x="768" y="599"/>
      <point x="863" y="682"/>
      <point x="928" y="762" type="curve"/>
    </contour>
  </outline>
</glyph>
<glyph name="uni4FDD" format="2">
  <advance width="1000" height="1000"/>
  <unicode hex="4FDD"/>
  <note>
cid10210
</note>
  <outline>
    <contour>
      <point x="720" y="-95" type="line"/>
      <point x="720" y="495" type="line"/>
      <point x="574" y="495" type="line"/>
      <point x="574" y="-95" type="line"/>
    </contour>
    <contour>
      <point x="967" y="251" type="line"/>
      <point x="967" y="382" type="line"/>
      <point x="327" y="382" type="line"/>
      <point x="327" y="251" type="line"/>
    </contour>
    <contour>
      <point x="744" y="322" type="curve"/>
      <point x="636" y="284" type="line"/>
      <point x="696" y="150"/>
      <point x="792" y="16"/>
      <point x="895" y="-62" type="curve"/>
      <point x="918" y="-26"/>
      <point x="965" y="27"/>
      <point x="998" y="54" type="curve"/>
      <point x="897" y="114"/>
      <point x="796" y="220"/>
    </contour>
    <contour>
      <point x="672" y="295" type="curve"/>
      <point x="558" y="334" type="line"/>
      <point x="504" y="225"/>
      <point x="399" y="116"/>
      <point x="287" y="57" type="curve"/>
      <point x="319" y="29"/>
      <point x="365" y="-24"/>
      <point x="387" y="-59" type="curve"/>
      <point x="505" y="19"/>
      <point x="608" y="152"/>
    </contour>
    <contour>
      <point x="776" y="580" type="line"/>
      <point x="526" y="580" type="line"/>
      <point x="526" y="686" type="line"/>
      <point x="776" y="686" type="line"/>
    </contour>
    <contour>
      <point x="922" y="453" type="line"/>
      <point x="922" y="813" type="line"/>
      <point x="389" y="813" type="line"/>
      <point x="389" y="453" type="line"/>
    </contour>
    <contour>
      <point x="372" y="809" type="curve"/>
      <point x="237" y="853" type="line"/>
      <point x="187" y="715"/>
      <point x="100" y="577"/>
      <point x="12" y="491" type="curve"/>
      <point x="35" y="454"/>
      <point x="74" y="374"/>
      <point x="86" y="339" type="curve"/>
      <point x="198" y="454"/>
      <point x="306" y="640"/>
    </contour>
    <contour>
      <point x="145" y="563" type="line"/>
      <point x="145" y="-95" type="line"/>
      <point x="283" y="-95" type="line"/>
      <point x="283" y="700" type="line"/>
      <point x="283" y="701" type="line"/>
    </contour>
  </outline>
</glyph>
<glyph name="uni4FF1" format="2">
  <advance width="1000" height="1000"/>
  <unicode hex="4FF1"/>
  <note>
cid10240
</note>
  <outline>
    <contour>
      <point x="970" y="123" type="line"/>
      <point x="970" y="250" type="line"/>
      <point x="305" y="250" type="line"/>
      <point x="305" y="123" type="line"/>
    </contour>
    <contour>
      <point x="773" y="152" type="curve"/>
      <point x="682" y="63" type="line"/>
      <point x="749" y="17"/>
      <point x="840" y="-52"/>
      <point x="880" y="-97" type="curve"/>
      <point x="978" y="3" type="line"/>
      <point x="933" y="48"/>
      <point x="839" y="111"/>
    </contour>
    <contour>
      <point x="607" y="69" type="curve"/>
      <point x="496" y="150" type="line"/>
      <point x="446" y="97"/>
      <point x="367" y="41"/>
      <point x="293" y="8" type="curve"/>
      <point x="323" y="-19"/>
      <point x="363" y="-65"/>
      <point x="382" y="-97" type="curve"/>
      <point x="460" y="-60"/>
      <point x="546" y="-1"/>
    </contour>
    <contour>
      <point x="889" y="191" type="line"/>
      <point x="889" y="818" type="line"/>
      <point x="392" y="818" type="line"/>
      <point x="392" y="191" type="line"/>
      <point x="530" y="191" type="line"/>
      <point x="530" y="704" type="line"/>
      <point x="744" y="704" type="line"/>
      <point x="744" y="191" type="line"/>
    </contour>
    <contour>
      <point x="799" y="568" type="line"/>
      <point x="799" y="663" type="line"/>
      <point x="460" y="663" type="line"/>
      <point x="460" y="568" type="line"/>
    </contour>
    <contour>
      <point x="799" y="431" type="line"/>
      <point x="799" y="526" type="line"/>
      <point x="460" y="526" type="line"/>
      <point x="460" y="431" type="line"/>
    </contour>
    <contour>
      <point x="799" y="293" type="line"/>
      <point x="799" y="388" type="line"/>
      <point x="460" y="388" type="line"/>
      <point x="460" y="293" type="line"/>
    </contour>
    <contour>
      <point x="352" y="808" type="curve"/>
      <point x="215" y="851" type="line"/>
      <point x="169" y="716"/>
      <point x="90" y="579"/>
      <point x="7" y="493" type="curve"/>
      <point x="31" y="457"/>
      <point x="70" y="375"/>
      <point x="83" y="340" type="curve"/>
      <point x="189" y="454"/>
      <point x="291" y="640"/>
    </contour>
    <contour>
      <point x="134" y="564" type="line"/>
      <point x="134" y="-94" type="line"/>
      <point x="272" y="-94" type="line"/>
      <point x="272" y="701" type="line"/>
      <point x="272" y="702" type="line"/>
    </contour>
  </outline>
</glyph>
<glyph name="uni501A" format="2">
  <advance width="1000" height="1000"/>
  <unicode hex="501A"/>
  <note>
cid10313
</note>
  <outline>
    <contour>
      <point x="950" y="643" type="line"/>
      <point x="950" y="763" type="line"/>
      <point x="346" y="763" type="line"/>
      <point x="346" y="643" type="line"/>
    </contour>
    <contour>
      <point x="977" y="331" type="line"/>
      <point x="977" y="456" type="line"/>
      <point x="301" y="456" type="line"/>
      <point x="301" y="331" type="line"/>
    </contour>
    <contour>
      <point x="665" y="660" type="curve"/>
      <point x="586" y="565" type="line"/>
      <point x="678" y="529"/>
      <point x="811" y="471"/>
      <point x="873" y="433" type="curve"/>
      <point x="957" y="541" type="line"/>
      <point x="889" y="578"/>
      <point x="752" y="631"/>
    </contour>
    <contour>
      <point x="496" y="-4" type="line"/>
      <point x="496" y="302" type="line"/>
      <point x="371" y="302" type="line"/>
      <point x="371" y="-4" type="line"/>
    </contour>
    <contour>
      <point x="697" y="57" type="line"/>
      <point x="697" y="302" type="line"/>
      <point x="440" y="302" type="line"/>
      <point x="440" y="203" type="line"/>
      <point x="570" y="203" type="line"/>
      <point x="570" y="156" type="line"/>
      <point x="440" y="156" type="line"/>
      <point x="440" y="57" type="line"/>
    </contour>
    <contour>
      <point x="905" y="40" type="curve" smooth="yes"/>
      <point x="905" y="398" type="line"/>
      <point x="762" y="398" type="line"/>
      <point x="762" y="44" type="line" smooth="yes"/>
      <point x="762" y="31"/>
      <point x="757" y="28"/>
      <point x="741" y="27" type="curve" smooth="yes"/>
      <point x="726" y="27"/>
      <point x="667" y="27"/>
      <point x="626" y="29" type="curve"/>
      <point x="643" y="-6"/>
      <point x="662" y="-60"/>
      <point x="667" y="-97" type="curve"/>
      <point x="743" y="-97"/>
      <point x="802" y="-96"/>
      <point x="847" y="-77" type="curve" smooth="yes"/>
      <point x="892" y="-58"/>
      <point x="905" y="-25"/>
    </contour>
    <contour>
      <point x="728" y="841" type="curve"/>
      <point x="579" y="841" type="line"/>
      <point x="569" y="686"/>
      <point x="553" y="599"/>
      <point x="317" y="551" type="curve"/>
      <point x="343" y="524"/>
      <point x="377" y="473"/>
      <point x="388" y="439" type="curve"/>
      <point x="673" y="506"/>
      <point x="712" y="634"/>
    </contour>
    <contour>
      <point x="361" y="808" type="curve"/>
      <point x="224" y="851" type="line"/>
      <point x="176" y="714"/>
      <point x="93" y="576"/>
      <point x="7" y="488" type="curve"/>
      <point x="31" y="452"/>
      <point x="70" y="371"/>
      <point x="83" y="336" type="curve"/>
      <point x="192" y="451"/>
      <point x="297" y="638"/>
    </contour>
    <contour>
      <point x="268" y="701" type="line"/>
      <point x="268" y="702" type="line"/>
      <point x="130" y="564" type="line"/>
      <point x="130" y="-94" type="line"/>
      <point x="268" y="-94" type="line"/>
    </contour>
  </outline>
</glyph>
<glyph name="uni5021" format="2">
  <advance width="1000" height="1000"/>
  <unicode hex="5021"/>
  <note>
cid10324
</note>
  <outline>
    <contour>
      <point x="831" y="103" type="line"/>
      <point x="831" y="220" type="line"/>
      <point x="393" y="220" type="line"/>
      <point x="393" y="103" type="line"/>
    </contour>
    <contour>
      <point x="836" y="-61" type="line"/>
      <point x="836" y="60" type="line"/>
      <point x="393" y="60" type="line"/>
      <point x="393" y="-61" type="line"/>
    </contour>
    <contour>
      <point x="944" y="-89" type="line"/>
      <point x="944" y="380" type="line"/>
      <point x="320" y="380" type="line"/>
      <point x="320" y="-94" type="line"/>
      <point x="463" y="-94" type="line"/>
      <point x="463" y="259" type="line"/>
      <point x="794" y="259" type="line"/>
      <point x="794" y="-89" type="line"/>
    </contour>
    <contour>
      <point x="750" y="533" type="line"/>
      <point x="509" y="533" type="line"/>
      <point x="509" y="574" type="line"/>
      <point x="750" y="574" type="line"/>
    </contour>
    <contour>
      <point x="750" y="675" type="line"/>
      <point x="509" y="675" type="line"/>
      <point x="509" y="715" type="line"/>
      <point x="750" y="715" type="line"/>
    </contour>
    <contour>
      <point x="899" y="424" type="line"/>
      <point x="899" y="824" type="line"/>
      <point x="368" y="824" type="line"/>
      <point x="368" y="424" type="line"/>
    </contour>
    <contour>
      <point x="352" y="807" type="curve"/>
      <point x="209" y="851" type="line"/>
      <point x="166" y="714"/>
      <point x="92" y="576"/>
      <point x="12" y="488" type="curve"/>
      <point x="37" y="449"/>
      <point x="77" y="363"/>
      <point x="89" y="325" type="curve"/>
      <point x="194" y="443"/>
      <point x="293" y="635"/>
    </contour>
    <contour>
      <point x="272" y="706" type="line"/>
      <point x="130" y="564" type="line"/>
      <point x="130" y="-94" type="line"/>
      <point x="272" y="-94" type="line"/>
      <point x="272" y="705" type="line"/>
    </contour>
  </outline>
</glyph>
<glyph name="uni5028" format="2">
  <advance width="1000" height="1000"/>
  <unicode hex="5028"/>
  <note>
cid10338
</note>
  <outline>
    <contour>
      <point x="365" y="808" type="curve"/>
      <point x="228" y="851" type="line"/>
      <point x="180" y="714"/>
      <point x="97" y="576"/>
      <point x="11" y="488" type="curve"/>
      <point x="35" y="452"/>
      <point x="74" y="371"/>
      <point x="87" y="336" type="curve"/>
      <point x="196" y="451"/>
      <point x="301" y="638"/>
    </contour>
    <contour>
      <point x="271" y="704" type="line"/>
      <point x="271" y="705" type="line"/>
      <point x="130" y="564" type="line"/>
      <point x="130" y="-94" type="line"/>
      <point x="271" y="-94" type="line"/>
    </contour>
    <contour>
      <point x="939" y="518" type="line"/>
      <point x="939" y="817" type="line"/>
      <point x="431" y="817" type="line"/>
      <point x="431" y="694" type="line"/>
      <point x="797" y="694" type="line"/>
      <point x="797" y="641" type="line"/>
      <point x="435" y="641" type="line"/>
      <point x="435" y="518" type="line"/>
    </contour>
    <contour>
      <point x="516" y="520" type="curve" smooth="yes"/>
      <point x="516" y="817" type="line"/>
      <point x="374" y="817" type="line"/>
      <point x="374" y="520" type="line" smooth="yes"/>
      <point x="374" y="364"/>
      <point x="367" y="146"/>
      <point x="269" y="0" type="curve"/>
      <point x="301" y="-15"/>
      <point x="363" y="-60"/>
      <point x="387" y="-85" type="curve"/>
      <point x="498" y="76"/>
      <point x="516" y="345"/>
    </contour>
    <contour>
      <point x="975" y="322" type="line"/>
      <point x="975" y="446" type="line"/>
      <point x="452" y="446" type="line"/>
      <point x="452" y="322" type="line"/>
    </contour>
    <contour>
      <point x="789" y="184" type="line"/>
      <point x="789" y="522" type="line"/>
      <point x="648" y="522" type="line"/>
      <point x="648" y="184" type="line"/>
    </contour>
    <contour>
      <point x="946" y="-92" type="line"/>
      <point x="946" y="247" type="line"/>
      <point x="501" y="247" type="line"/>
      <point x="501" y="-95" type="line"/>
      <point x="633" y="-95" type="line"/>
      <point x="633" y="133" type="line"/>
      <point x="807" y="133" type="line"/>
      <point x="807" y="-92" type="line"/>
    </contour>
    <contour>
      <point x="868" y="-65" type="line"/>
      <point x="868" y="56" type="line"/>
      <point x="581" y="56" type="line"/>
      <point x="581" y="-65" type="line"/>
    </contour>
  </outline>
</glyph>
<glyph name="uni5047" format="2">
  <advance width="1000" height="1000"/>
  <unicode hex="5047"/>
  <note>
cid10390
</note>
  <outline>
    <contour>
      <point x="636" y="467" type="line"/>
      <point x="636" y="810" type="line"/>
      <point x="381" y="810" type="line"/>
      <point x="381" y="690" type="line"/>
      <point x="505" y="690" type="line"/>
      <point x="505" y="587" type="line"/>
      <point x="381" y="587" type="line"/>
      <point x="381" y="467" type="line"/>
    </contour>
    <contour>
      <point x="944" y="467" type="line"/>
      <point x="944" y="810" type="line"/>
      <point x="663" y="810" type="line"/>
      <point x="663" y="689" type="line"/>
      <point x="811" y="689" type="line"/>
      <point x="811" y="588" type="line"/>
      <point x="663" y="588" type="line"/>
      <point x="663" y="467" type="line"/>
    </contour>
    <contour>
      <point x="449" y="-81" type="line"/>
      <point x="449" y="810" type="line"/>
      <point x="318" y="810" type="line"/>
      <point x="318" y="-81" type="line"/>
    </contour>
    <contour>
      <point x="625" y="275" type="line"/>
      <point x="625" y="396" type="line"/>
      <point x="386" y="396" type="line"/>
      <point x="386" y="275" type="line"/>
    </contour>
    <contour>
      <point x="638" y="79" type="line"/>
      <point x="638" y="200" type="line"/>
      <point x="385" y="200" type="line"/>
      <point x="385" y="79" type="line"/>
    </contour>
    <contour>
      <point x="865" y="301" type="line"/>
      <point x="865" y="417" type="line"/>
      <point x="648" y="417" type="line"/>
      <point x="648" y="301" type="line"/>
    </contour>
    <contour>
      <point x="884" y="420" type="line"/>
      <point x="861" y="417" type="line"/>
      <point x="836" y="417" type="line"/>
      <point x="836" y="398" type="line"/>
      <point x="811" y="210"/>
      <point x="722" y="73"/>
      <point x="572" y="18" type="curve"/>
      <point x="599" y="-10"/>
      <point x="632" y="-64"/>
      <point x="647" y="-98" type="curve"/>
      <point x="828" y="-15"/>
      <point x="930" y="140"/>
      <point x="965" y="401" type="curve"/>
    </contour>
    <contour>
      <point x="752" y="297" type="curve"/>
      <point x="649" y="278" type="line"/>
      <point x="691" y="106"/>
      <point x="762" y="-27"/>
      <point x="899" y="-95" type="curve"/>
      <point x="918" y="-59"/>
      <point x="958" y="-6"/>
      <point x="987" y="20" type="curve"/>
      <point x="862" y="66"/>
      <point x="788" y="171"/>
    </contour>
    <contour>
      <point x="330" y="815" type="curve"/>
      <point x="197" y="855" type="line"/>
      <point x="156" y="713"/>
      <point x="85" y="571"/>
      <point x="7" y="480" type="curve"/>
      <point x="30" y="441"/>
      <point x="65" y="356"/>
      <point x="76" y="320" type="curve"/>
      <point x="180" y="442"/>
      <point x="274" y="639"/>
    </contour>
    <contour>
      <point x="256" y="696" type="line"/>
      <point x="252" y="698" type="line"/>
      <point x="118" y="564" type="line"/>
      <point x="118" y="-94" type="line"/>
      <point x="256" y="-94" type="line"/>
    </contour>
  </outline>
</glyph>
<glyph name="uni5085" format="2">
  <advance width="1000" height="1000"/>
  <unicode hex="5085"/>
  <note>
cid10500
</note>
  <outline>
    <contour>
      <point x="966" y="662" type="line"/>
      <point x="966" y="773" type="line"/>
      <point x="326" y="773" type="line"/>
      <point x="326" y="662" type="line"/>
    </contour>
    <contour>
      <point x="975" y="135" type="line"/>
      <point x="975" y="247" type="line"/>
      <point x="308" y="247" type="line"/>
      <point x="308" y="135" type="line"/>
    </contour>
    <contour>
      <point x="713" y="286" type="line"/>
      <point x="713" y="855" type="line"/>
      <point x="575" y="855" type="line"/>
      <point x="575" y="286" type="line"/>
    </contour>
    <contour>
      <point x="932" y="276" type="line"/>
      <point x="932" y="636" type="line"/>
      <point x="363" y="636" type="line"/>
      <point x="363" y="273" type="line"/>
      <point x="497" y="273" type="line"/>
      <point x="497" y="546" type="line"/>
      <point x="792" y="546" type="line"/>
      <point x="792" y="276" type="line"/>
    </contour>
    <contour>
      <point x="850" y="438" type="line"/>
      <point x="850" y="520" type="line"/>
      <point x="435" y="520" type="line"/>
      <point x="435" y="438" type="line"/>
    </contour>
    <contour>
      <point x="850" y="329" type="line"/>
      <point x="850" y="411" type="line"/>
      <point x="435" y="411" type="line"/>
      <point x="435" y="329" type="line"/>
    </contour>
    <contour>
      <point x="856" y="33" type="curve" smooth="yes"/>
      <point x="856" y="298" type="line"/>
      <point x="716" y="298" type="line"/>
      <point x="716" y="38" type="line" smooth="yes"/>
      <point x="716" y="26"/>
      <point x="711" y="23"/>
      <point x="697" y="22" type="curve" smooth="yes"/>
      <point x="684" y="22"/>
      <point x="632" y="22"/>
      <point x="595" y="24" type="curve"/>
      <point x="611" y="-10"/>
      <point x="629" y="-60"/>
      <point x="634" y="-96" type="curve"/>
      <point x="704" y="-96"/>
      <point x="759" y="-95"/>
      <point x="801" y="-78" type="curve" smooth="yes"/>
      <point x="845" y="-59"/>
      <point x="856" y="-28"/>
    </contour>
    <contour>
      <point x="493" y="154" type="curve"/>
      <point x="384" y="91" type="line"/>
      <point x="430" y="48"/>
      <point x="478" y="-10"/>
      <point x="500" y="-51" type="curve"/>
      <point x="615" y="20" type="line"/>
      <point x="589" y="61"/>
      <point x="539" y="116"/>
    </contour>
    <contour>
      <point x="835" y="862" type="curve"/>
      <point x="746" y="801" type="line"/>
      <point x="778" y="779"/>
      <point x="817" y="744"/>
      <point x="833" y="722" type="curve"/>
      <point x="927" y="787" type="line"/>
      <point x="907" y="810"/>
      <point x="866" y="842"/>
    </contour>
    <contour>
      <point x="359" y="808" type="curve"/>
      <point x="222" y="851" type="line"/>
      <point x="174" y="714"/>
      <point x="91" y="576"/>
      <point x="5" y="488" type="curve"/>
      <point x="29" y="452"/>
      <point x="68" y="371"/>
      <point x="81" y="336" type="curve"/>
      <point x="190" y="451"/>
      <point x="295" y="638"/>
    </contour>
    <contour>
      <point x="268" y="701" type="line"/>
      <point x="268" y="702" type="line"/>
      <point x="130" y="564" type="line"/>
      <point x="130" y="-94" type="line"/>
      <point x="268" y="-94" type="line"/>
    </contour>
  </outline>
</glyph>
<glyph name="uni50F5" format="2">
  <advance width="1000" height="1000"/>
  <unicode hex="50F5"/>
  <note>
cid10719
</note>
  <outline>
    <contour>
      <point x="961" y="730" type="line"/>
      <point x="961" y="828" type="line"/>
      <point x="317" y="828" type="line"/>
      <point x="317" y="730" type="line"/>
    </contour>
    <contour>
      <point x="961" y="334" type="line"/>
      <point x="961" y="428" type="line"/>
      <point x="311" y="428" type="line"/>
      <point x="311" y="334" type="line"/>
    </contour>
    <contour>
      <point x="975" y="-82" type="line"/>
      <point x="975" y="26" type="line"/>
      <point x="286" y="26" type="line"/>
      <point x="286" y="-82" type="line"/>
    </contour>
    <contour>
      <point x="766" y="522" type="line"/>
      <point x="496" y="522" type="line"/>
      <point x="496" y="549" type="line"/>
      <point x="766" y="549" type="line"/>
    </contour>
    <contour>
      <point x="766" y="612" type="line"/>
      <point x="496" y="612" type="line"/>
      <point x="496" y="638" type="line"/>
      <point x="766" y="638" type="line"/>
    </contour>
    <contour>
      <point x="905" y="451" type="line"/>
      <point x="905" y="709" type="line"/>
      <point x="364" y="709" type="line"/>
      <point x="364" y="451" type="line"/>
    </contour>
    <contour>
      <point x="776" y="121" type="line"/>
      <point x="488" y="121" type="line"/>
      <point x="488" y="150" type="line"/>
      <point x="776" y="150" type="line"/>
    </contour>
    <contour>
      <point x="776" y="213" type="line"/>
      <point x="488" y="213" type="line"/>
      <point x="488" y="241" type="line"/>
      <point x="776" y="241" type="line"/>
    </contour>
    <contour>
      <point x="915" y="50" type="line"/>
      <point x="915" y="312" type="line"/>
      <point x="356" y="312" type="line"/>
      <point x="356" y="50" type="line"/>
    </contour>
    <contour>
      <point x="699" y="75" type="line"/>
      <point x="699" y="282" type="line"/>
      <point x="568" y="282" type="line"/>
      <point x="568" y="75" type="line"/>
    </contour>
    <contour>
      <point x="699" y="485" type="line"/>
      <point x="699" y="679" type="line"/>
      <point x="568" y="679" type="line"/>
      <point x="568" y="485" type="line"/>
    </contour>
    <contour>
      <point x="330" y="815" type="curve"/>
      <point x="197" y="855" type="line"/>
      <point x="156" y="713"/>
      <point x="85" y="571"/>
      <point x="7" y="480" type="curve"/>
      <point x="30" y="441"/>
      <point x="65" y="356"/>
      <point x="76" y="320" type="curve"/>
      <point x="180" y="442"/>
      <point x="274" y="639"/>
    </contour>
    <contour>
      <point x="253" y="694" type="line"/>
      <point x="250" y="696" type="line"/>
      <point x="118" y="564" type="line"/>
      <point x="118" y="-94" type="line"/>
      <point x="253" y="-94" type="line"/>
    </contour>
  </outline>
</glyph>
<glyph name="uni5146" format="2">
  <advance width="1000" height="1000"/>
  <unicode hex="5146"/>
  <note>
cid10867
</note>
  <outline>
    <contour>
      <point x="680" y="121" type="curve" smooth="yes"/>
      <point x="680" y="846" type="line"/>
      <point x="533" y="846" type="line"/>
      <point x="533" y="121" type="line" smooth="yes"/>
      <point x="533" y="-38"/>
      <point x="567" y="-82"/>
      <point x="691" y="-82" type="curve" smooth="yes"/>
      <point x="718" y="-82"/>
      <point x="787" y="-82"/>
      <point x="815" y="-82" type="curve" smooth="yes"/>
      <point x="916" y="-82"/>
      <point x="956" y="-32"/>
      <point x="973" y="106" type="curve"/>
      <point x="931" y="115"/>
      <point x="874" y="140"/>
      <point x="842" y="163" type="curve"/>
      <point x="836" y="78"/>
      <point x="829" y="56"/>
      <point x="800" y="56" type="curve" smooth="yes"/>
      <point x="786" y="56"/>
      <point x="730" y="56"/>
      <point x="716" y="56" type="curve" smooth="yes"/>
      <point x="683" y="56"/>
      <point x="680" y="63"/>
    </contour>
    <contour>
      <point x="8" y="306" type="curve"/>
      <point x="74" y="158" type="line"/>
      <point x="164" y="200"/>
      <point x="273" y="252"/>
      <point x="373" y="303" type="curve"/>
      <point x="344" y="428" type="line"/>
      <point x="221" y="381"/>
      <point x="89" y="331"/>
    </contour>
    <contour>
      <point x="442" y="447" type="curve" smooth="yes"/>
      <point x="442" y="846" type="line"/>
      <point x="298" y="846" type="line"/>
      <point x="298" y="448" type="line" smooth="yes"/>
      <point x="298" y="278"/>
      <point x="267" y="110"/>
      <point x="31" y="23" type="curve"/>
      <point x="59" y="-4"/>
      <point x="102" y="-64"/>
      <point x="118" y="-100" type="curve"/>
      <point x="403" y="10"/>
      <point x="442" y="224"/>
    </contour>
    <contour>
      <point x="177" y="768" type="curve"/>
      <point x="54" y="705" type="line"/>
      <point x="104" y="625"/>
      <point x="160" y="519"/>
      <point x="179" y="451" type="curve"/>
      <point x="313" y="523" type="line"/>
      <point x="290" y="592"/>
      <point x="229" y="693"/>
    </contour>
    <contour>
      <point x="703" y="457" type="curve"/>
      <point x="616" y="352" type="line"/>
      <point x="707" y="300"/>
      <point x="829" y="219"/>
      <point x="884" y="163" type="curve"/>
      <point x="979" y="283" type="line"/>
      <point x="918" y="338"/>
      <point x="792" y="412"/>
    </contour>
    <contour>
      <point x="944" y="707" type="curve"/>
      <point x="799" y="780" type="line"/>
      <point x="768" y="700"/>
      <point x="712" y="598"/>
      <point x="666" y="533" type="curve"/>
      <point x="778" y="469" type="line"/>
      <point x="828" y="529"/>
      <point x="888" y="621"/>
    </contour>
  </outline>
</glyph>
<glyph name="uni5176" format="2">
  <advance width="1000" height="1000"/>
  <unicode hex="5176"/>
  <note>
cid10950
</note>
  <outline>
    <contour>
      <point x="952" y="128" type="line"/>
      <point x="952" y="261" type="line"/>
      <point x="47" y="261" type="line"/>
      <point x="47" y="128" type="line"/>
    </contour>
    <contour>
      <point x="926" y="632" type="line"/>
      <point x="926" y="765" type="line"/>
      <point x="79" y="765" type="line"/>
      <point x="79" y="632" type="line"/>
    </contour>
    <contour>
      <point x="694" y="471" type="line"/>
      <point x="694" y="591" type="line"/>
      <point x="302" y="591" type="line"/>
      <point x="302" y="471" type="line"/>
    </contour>
    <contour>
      <point x="694" y="307" type="line"/>
      <point x="694" y="427" type="line"/>
      <point x="302" y="427" type="line"/>
      <point x="302" y="307" type="line"/>
    </contour>
    <contour>
      <point x="369" y="181" type="line"/>
      <point x="369" y="852" type="line"/>
      <point x="225" y="852" type="line"/>
      <point x="225" y="181" type="line"/>
    </contour>
    <contour>
      <point x="776" y="181" type="line"/>
      <point x="776" y="852" type="line"/>
      <point x="628" y="852" type="line"/>
      <point x="628" y="181" type="line"/>
    </contour>
    <contour>
      <point x="644" y="127" type="curve"/>
      <point x="536" y="35" type="line"/>
      <point x="642" y="-3"/>
      <point x="754" y="-57"/>
      <point x="815" y="-93" type="curve"/>
      <point x="960" y="1" type="line"/>
      <point x="885" y="37"/>
      <point x="755" y="90"/>
    </contour>
    <contour>
      <point x="460" y="41" type="curve"/>
      <point x="341" y="137" type="line"/>
      <point x="271" y="95"/>
      <point x="137" y="41"/>
      <point x="33" y="14" type="curve"/>
      <point x="64" y="-16"/>
      <point x="105" y="-63"/>
      <point x="127" y="-94" type="curve"/>
      <point x="232" y="-63"/>
      <point x="368" y="-9"/>
    </contour>
  </outline>
</glyph>
<glyph name="uni517C" format="2">
  <advance width="1000" height="1000"/>
  <unicode hex="517C"/>
  <note>
cid10958
</note>
  <outline>
    <contour>
      <point x="945" y="606" type="line"/>
      <point x="945" y="725" type="line"/>
      <point x="58" y="725" type="line"/>
      <point x="58" y="606" type="line"/>
    </contour>
    <contour>
      <point x="964" y="301" type="line"/>
      <point x="964" y="420" type="line"/>
      <point x="41" y="420" type="line"/>
      <point x="41" y="301" type="line"/>
    </contour>
    <contour>
      <point x="414" y="171" type="curve"/>
      <point x="296" y="216" type="line"/>
      <point x="242" y="140"/>
      <point x="136" y="68"/>
      <point x="30" y="30" type="curve"/>
      <point x="60" y="3"/>
      <point x="102" y="-48"/>
      <point x="123" y="-81" type="curve"/>
      <point x="238" y="-29"/>
      <point x="347" y="66"/>
    </contour>
    <contour>
      <point x="673" y="224" type="curve"/>
      <point x="567" y="185" type="line"/>
      <point x="637" y="71"/>
      <point x="751" y="-28"/>
      <point x="874" y="-80" type="curve"/>
      <point x="895" y="-44"/>
      <point x="938" y="10"/>
      <point x="970" y="38" type="curve"/>
      <point x="850" y="74"/>
      <point x="734" y="145"/>
    </contour>
    <contour>
      <point x="459" y="-94" type="line"/>
      <point x="459" y="649" type="line"/>
      <point x="319" y="649" type="line"/>
      <point x="319" y="-94" type="line"/>
    </contour>
    <contour>
      <point x="662" y="-94" type="line"/>
      <point x="662" y="649" type="line"/>
      <point x="522" y="649" type="line"/>
      <point x="522" y="-94" type="line"/>
    </contour>
    <contour>
      <point x="867" y="153" type="line"/>
      <point x="867" y="566" type="line"/>
      <point x="143" y="566" type="line"/>
      <point x="143" y="458" type="line"/>
      <point x="726" y="458" type="line"/>
      <point x="726" y="261" type="line"/>
      <point x="132" y="261" type="line"/>
      <point x="132" y="153" type="line"/>
    </contour>
    <contour>
      <point x="306" y="859" type="curve"/>
      <point x="172" y="799" type="line"/>
      <point x="211" y="763"/>
      <point x="255" y="711"/>
      <point x="272" y="676" type="curve"/>
      <point x="415" y="740" type="line"/>
      <point x="393" y="777"/>
      <point x="346" y="826"/>
    </contour>
    <contour>
      <point x="840" y="798" type="curve"/>
      <point x="687" y="857" type="line"/>
      <point x="664" y="820"/>
      <point x="625" y="772"/>
      <point x="592" y="740" type="curve"/>
      <point x="719" y="685" type="line"/>
      <point x="755" y="713"/>
      <point x="805" y="760"/>
    </contour>
  </outline>
</glyph>
<glyph name="uni5195" format="2">
  <advance width="1000" height="1000"/>
  <unicode hex="5195"/>
  <note>
cid10994
</note>
  <outline>
    <contour>
      <point x="884" y="519" type="line"/>
      <point x="884" y="823" type="line"/>
      <point x="134" y="823" type="line"/>
      <point x="134" y="519" type="line"/>
      <point x="268" y="519" type="line"/>
      <point x="268" y="730" type="line"/>
      <point x="743" y="730" type="line"/>
      <point x="743" y="519" type="line"/>
    </contour>
    <contour>
      <point x="719" y="634" type="line"/>
      <point x="719" y="707" type="line"/>
      <point x="291" y="707" type="line"/>
      <point x="291" y="634" type="line"/>
    </contour>
    <contour>
      <point x="719" y="524" type="line"/>
      <point x="719" y="612" type="line"/>
      <point x="291" y="612" type="line"/>
      <point x="291" y="524" type="line"/>
    </contour>
    <contour>
      <point x="675" y="60" type="curve" smooth="yes"/>
      <point x="675" y="169" type="line"/>
      <point x="539" y="169" type="line"/>
      <point x="539" y="58" type="line" smooth="yes"/>
      <point x="539" y="-50"/>
      <point x="569" y="-86"/>
      <point x="699" y="-86" type="curve" smooth="yes"/>
      <point x="725" y="-86"/>
      <point x="802" y="-86"/>
      <point x="829" y="-86" type="curve" smooth="yes"/>
      <point x="923" y="-86"/>
      <point x="959" y="-57"/>
      <point x="973" y="57" type="curve"/>
      <point x="937" y="64"/>
      <point x="881" y="83"/>
      <point x="855" y="102" type="curve"/>
      <point x="851" y="39"/>
      <point x="844" y="29"/>
      <point x="815" y="29" type="curve" smooth="yes"/>
      <point x="794" y="29"/>
      <point x="734" y="29"/>
      <point x="718" y="29" type="curve" smooth="yes"/>
      <point x="681" y="29"/>
      <point x="675" y="32"/>
    </contour>
    <contour>
      <point x="458" y="523" type="curve"/>
      <point x="312" y="553" type="line"/>
      <point x="262" y="480"/>
      <point x="171" y="407"/>
      <point x="34" y="356" type="curve"/>
      <point x="63" y="334"/>
      <point x="105" y="283"/>
      <point x="123" y="251" type="curve"/>
      <point x="277" y="322"/>
      <point x="380" y="411"/>
    </contour>
    <contour>
      <point x="615" y="411" type="line"/>
      <point x="615" y="499" type="line"/>
      <point x="353" y="499" type="line"/>
      <point x="283" y="411" type="line"/>
    </contour>
    <contour>
      <point x="588" y="326" type="curve"/>
      <point x="442" y="326" type="line"/>
      <point x="428" y="143"/>
      <point x="405" y="62"/>
      <point x="30" y="27" type="curve"/>
      <point x="54" y="-4"/>
      <point x="85" y="-59"/>
      <point x="94" y="-95" type="curve"/>
      <point x="518" y="-42"/>
      <point x="569" y="86"/>
    </contour>
    <contour>
      <point x="626" y="504" type="line"/>
      <point x="606" y="499" type="line"/>
      <point x="577" y="499" type="line"/>
      <point x="577" y="477" type="line"/>
      <point x="563" y="445"/>
      <point x="525" y="390"/>
      <point x="491" y="357" type="curve"/>
      <point x="522" y="341"/>
      <point x="568" y="312"/>
      <point x="595" y="293" type="curve"/>
      <point x="635" y="332"/>
      <point x="688" y="397"/>
      <point x="718" y="448" type="curve"/>
    </contour>
    <contour>
      <point x="736" y="227" type="line"/>
      <point x="305" y="227" type="line"/>
      <point x="305" y="273" type="line"/>
      <point x="736" y="273" type="line"/>
    </contour>
    <contour>
      <point x="883" y="126" type="line"/>
      <point x="883" y="374" type="line"/>
      <point x="167" y="374" type="line"/>
      <point x="167" y="126" type="line"/>
    </contour>
  </outline>
</glyph>
<glyph name="uni5197" format="2">
  <advance width="1000" height="1000"/>
  <unicode hex="5197"/>
  <note>
cid10996
</note>
  <outline>
    <contour>
      <point x="662" y="404" type="line"/>
      <point x="662" y="539" type="line"/>
      <point x="346" y="539" type="line"/>
      <point x="346" y="404" type="line"/>
    </contour>
    <contour>
      <point x="940" y="497" type="line"/>
      <point x="940" y="792" type="line"/>
      <point x="65" y="792" type="line"/>
      <point x="65" y="497" type="line"/>
      <point x="216" y="497" type="line"/>
      <point x="216" y="649" type="line"/>
      <point x="781" y="649" type="line"/>
      <point x="781" y="497" type="line"/>
    </contour>
    <contour>
      <point x="414" y="310" type="curve" smooth="yes"/>
      <point x="414" y="539" type="line"/>
      <point x="259" y="539" type="line"/>
      <point x="259" y="315" type="line" smooth="yes"/>
      <point x="259" y="210"/>
      <point x="240" y="103"/>
      <point x="22" y="34" type="curve"/>
      <point x="50" y="8"/>
      <point x="99" y="-61"/>
      <point x="114" y="-95" type="curve"/>
      <point x="365" y="-11"/>
      <point x="414" y="162"/>
    </contour>
    <contour>
      <point x="736" y="107" type="curve" smooth="yes"/>
      <point x="736" y="539" type="line"/>
      <point x="580" y="539" type="line"/>
      <point x="580" y="106" type="line" smooth="yes"/>
      <point x="580" y="-42"/>
      <point x="618" y="-87"/>
      <point x="731" y="-87" type="curve" smooth="yes"/>
      <point x="753" y="-87"/>
      <point x="798" y="-87"/>
      <point x="820" y="-87" type="curve" smooth="yes"/>
      <point x="926" y="-87"/>
      <point x="963" y="-26"/>
      <point x="976" y="164" type="curve"/>
      <point x="935" y="174"/>
      <point x="868" y="201"/>
      <point x="836" y="228" type="curve"/>
      <point x="832" y="85"/>
      <point x="827" y="58"/>
      <point x="805" y="58" type="curve" smooth="yes"/>
      <point x="795" y="58"/>
      <point x="768" y="58"/>
      <point x="760" y="58" type="curve" smooth="yes"/>
      <point x="739" y="58"/>
      <point x="736" y="64"/>
    </contour>
  </outline>
</glyph>
<glyph name="uni51A0" format="2">
  <advance width="1000" height="1000"/>
  <unicode hex="51A0"/>
  <note>
cid11007
</note>
  <outline>
    <contour>
      <point x="474" y="489" type="line"/>
      <point x="474" y="622" type="line"/>
      <point x="113" y="622" type="line"/>
      <point x="113" y="489" type="line"/>
    </contour>
    <contour>
      <point x="513" y="290" type="line"/>
      <point x="513" y="424" type="line"/>
      <point x="40" y="424" type="line"/>
      <point x="40" y="290" type="line"/>
    </contour>
    <contour>
      <point x="955" y="419" type="line"/>
      <point x="955" y="548" type="line"/>
      <point x="509" y="548" type="line"/>
      <point x="509" y="419" type="line"/>
    </contour>
    <contour>
      <point x="937" y="605" type="line"/>
      <point x="937" y="815" type="line"/>
      <point x="65" y="815" type="line"/>
      <point x="65" y="605" type="line"/>
      <point x="207" y="605" type="line"/>
      <point x="207" y="681" type="line"/>
      <point x="788" y="681" type="line"/>
      <point x="788" y="605" type="line"/>
    </contour>
    <contour>
      <point x="852" y="209" type="curve" smooth="yes"/>
      <point x="852" y="644" type="line"/>
      <point x="716" y="644" type="line"/>
      <point x="716" y="211" type="line" smooth="yes"/>
      <point x="716" y="200"/>
      <point x="712" y="196"/>
      <point x="699" y="196" type="curve" smooth="yes"/>
      <point x="687" y="196"/>
      <point x="653" y="196"/>
      <point x="619" y="198" type="curve"/>
      <point x="636" y="163"/>
      <point x="655" y="109"/>
      <point x="660" y="73" type="curve"/>
      <point x="721" y="72"/>
      <point x="766" y="75"/>
      <point x="804" y="95" type="curve" smooth="yes"/>
      <point x="842" y="115"/>
      <point x="852" y="149"/>
    </contour>
    <contour>
      <point x="432" y="87" type="curve" smooth="yes"/>
      <point x="432" y="328" type="line"/>
      <point x="297" y="328" type="line"/>
      <point x="297" y="85" type="line" smooth="yes"/>
      <point x="297" y="-45"/>
      <point x="345" y="-83"/>
      <point x="519" y="-83" type="curve" smooth="yes"/>
      <point x="556" y="-83"/>
      <point x="738" y="-83"/>
      <point x="777" y="-83" type="curve" smooth="yes"/>
      <point x="925" y="-83"/>
      <point x="965" y="-42"/>
      <point x="985" y="121" type="curve"/>
      <point x="947" y="128"/>
      <point x="889" y="149"/>
      <point x="857" y="170" type="curve"/>
      <point x="849" y="59"/>
      <point x="838" y="42"/>
      <point x="769" y="42" type="curve" smooth="yes"/>
      <point x="724" y="42"/>
      <point x="564" y="42"/>
      <point x="527" y="42" type="curve" smooth="yes"/>
      <point x="445" y="42"/>
      <point x="432" y="47"/>
    </contour>
    <contour>
      <point x="628" y="402" type="curve"/>
      <point x="516" y="356" type="line"/>
      <point x="546" y="311"/>
      <point x="576" y="248"/>
      <point x="586" y="207" type="curve"/>
      <point x="704" y="260" type="line"/>
      <point x="691" y="301"/>
      <point x="660" y="359"/>
    </contour>
    <contour>
      <point x="258" y="259" type="curve" smooth="yes"/>
      <point x="258" y="339" type="line"/>
      <point x="124" y="339" type="line"/>
      <point x="124" y="262" type="line" smooth="yes"/>
      <point x="124" y="184"/>
      <point x="113" y="81"/>
      <point x="13" y="4" type="curve"/>
      <point x="39" y="-14"/>
      <point x="94" y="-69"/>
      <point x="113" y="-96" type="curve"/>
      <point x="231" y="-1"/>
      <point x="258" y="148"/>
    </contour>
  </outline>
</glyph>
<glyph name="uni51B0" format="2">
  <advance width="1000" height="1000"/>
  <unicode hex="51B0"/>
  <note>
cid11029
</note>
  <outline>
    <contour>
      <point x="445" y="475" type="line"/>
      <point x="445" y="617" type="line"/>
      <point x="269" y="617" type="line"/>
      <point x="269" y="475" type="line"/>
    </contour>
    <contour>
      <point x="697" y="75" type="curve" smooth="yes"/>
      <point x="697" y="855" type="line"/>
      <point x="547" y="855" type="line"/>
      <point x="547" y="76" type="line" smooth="yes"/>
      <point x="547" y="60"/>
      <point x="541" y="55"/>
      <point x="525" y="55" type="curve" smooth="yes"/>
      <point x="508" y="55"/>
      <point x="462" y="55"/>
      <point x="415" y="57" type="curve"/>
      <point x="438" y="17"/>
      <point x="466" y="-53"/>
      <point x="473" y="-95" type="curve"/>
      <point x="545" y="-96"/>
      <point x="602" y="-88"/>
      <point x="643" y="-63" type="curve" smooth="yes"/>
      <point x="684" y="-37"/>
      <point x="697" y="4"/>
    </contour>
    <contour>
      <point x="450" y="620" type="line"/>
      <point x="426" y="617" type="line"/>
      <point x="401" y="617" type="line"/>
      <point x="401" y="593" type="line"/>
      <point x="384" y="401"/>
      <point x="330" y="214"/>
      <point x="213" y="131" type="curve"/>
      <point x="245" y="103"/>
      <point x="286" y="45"/>
      <point x="305" y="10" type="curve"/>
      <point x="451" y="128"/>
      <point x="512" y="329"/>
      <point x="537" y="599" type="curve"/>
    </contour>
    <contour>
      <point x="692" y="689" type="curve"/>
      <point x="608" y="676" type="line"/>
      <point x="649" y="395"/>
      <point x="701" y="145"/>
      <point x="884" y="8" type="curve"/>
      <point x="907" y="51"/>
      <point x="958" y="114"/>
      <point x="992" y="143" type="curve"/>
      <point x="807" y="249"/>
      <point x="734" y="456"/>
    </contour>
    <contour>
      <point x="966" y="605" type="curve"/>
      <point x="836" y="680" type="line"/>
      <point x="791" y="604"/>
      <point x="713" y="511"/>
      <point x="653" y="455" type="curve"/>
      <point x="764" y="384" type="line"/>
      <point x="825" y="439"/>
      <point x="902" y="524"/>
    </contour>
    <contour>
      <point x="110" y="787" type="curve"/>
      <point x="26" y="678" type="line"/>
      <point x="92" y="643"/>
      <point x="164" y="594"/>
      <point x="202" y="558" type="curve"/>
      <point x="291" y="680" type="line"/>
      <point x="251" y="713"/>
      <point x="176" y="757"/>
    </contour>
    <contour>
      <point x="22" y="126" type="curve"/>
      <point x="147" y="37" type="line"/>
      <point x="198" y="126"/>
      <point x="248" y="224"/>
      <point x="292" y="319" type="curve"/>
      <point x="182" y="409" type="line"/>
      <point x="131" y="303"/>
      <point x="67" y="194"/>
    </contour>
  </outline>
</glyph>
<glyph name="uni51E1" format="2">
  <advance width="1000" height="1000"/>
  <unicode hex="51E1"/>
  <note>
cid11092
</note>
  <outline>
    <contour>
      <point x="687" y="822" type="line"/>
      <point x="272" y="822" type="line"/>
      <point x="272" y="677" type="line"/>
      <point x="687" y="677" type="line"/>
    </contour>
    <contour>
      <point x="359" y="822" type="line"/>
      <point x="206" y="822" type="line"/>
      <point x="206" y="502" type="line" smooth="yes"/>
      <point x="206" y="343"/>
      <point x="192" y="135"/>
      <point x="15" y="0" type="curve"/>
      <point x="48" y="-20"/>
      <point x="109" y="-75"/>
      <point x="132" y="-104" type="curve"/>
      <point x="327" y="45"/>
      <point x="359" y="317"/>
      <point x="359" y="501" type="curve" smooth="yes"/>
    </contour>
    <contour>
      <point x="763" y="822" type="line"/>
      <point x="614" y="822" type="line"/>
      <point x="614" y="121" type="line" smooth="yes"/>
      <point x="614" y="-35"/>
      <point x="649" y="-80"/>
      <point x="754" y="-80" type="curve" smooth="yes"/>
      <point x="773" y="-80"/>
      <point x="818" y="-80"/>
      <point x="838" y="-80" type="curve" smooth="yes"/>
      <point x="941" y="-80"/>
      <point x="973" y="-4"/>
      <point x="985" y="183" type="curve"/>
      <point x="945" y="193"/>
      <point x="885" y="221"/>
      <point x="851" y="248" type="curve"/>
      <point x="847" y="100"/>
      <point x="843" y="60"/>
      <point x="822" y="60" type="curve" smooth="yes"/>
      <point x="815" y="60"/>
      <point x="791" y="60"/>
      <point x="783" y="60" type="curve" smooth="yes"/>
      <point x="765" y="60"/>
      <point x="763" y="67"/>
      <point x="763" y="120" type="curve" smooth="yes"/>
    </contour>
    <contour>
      <point x="435" y="549" type="curve"/>
      <point x="331" y="457" type="line"/>
      <point x="402" y="389"/>
      <point x="483" y="293"/>
      <point x="528" y="223" type="curve"/>
      <point x="641" y="330" type="line"/>
      <point x="591" y="400"/>
      <point x="506" y="490"/>
    </contour>
  </outline>
</glyph>
<glyph name="uni520A" format="2">
  <advance width="1000" height="1000"/>
  <unicode hex="520A"/>
  <note>
cid11174
</note>
  <outline>
    <contour>
      <point x="712" y="162" type="line"/>
      <point x="712" y="738" type="line"/>
      <point x="569" y="738" type="line"/>
      <point x="569" y="162" type="line"/>
    </contour>
    <contour>
      <point x="939" y="80" type="curve" smooth="yes"/>
      <point x="939" y="834" type="line"/>
      <point x="792" y="834" type="line"/>
      <point x="792" y="81" type="line" smooth="yes"/>
      <point x="792" y="63"/>
      <point x="784" y="57"/>
      <point x="765" y="56" type="curve" smooth="yes"/>
      <point x="743" y="56"/>
      <point x="676" y="56"/>
      <point x="614" y="59" type="curve"/>
      <point x="635" y="17"/>
      <point x="658" y="-51"/>
      <point x="664" y="-94" type="curve"/>
      <point x="757" y="-94"/>
      <point x="829" y="-89"/>
      <point x="876" y="-65" type="curve" smooth="yes"/>
      <point x="924" y="-42"/>
      <point x="939" y="-2"/>
    </contour>
    <contour>
      <point x="500" y="671" type="line"/>
      <point x="500" y="813" type="line"/>
      <point x="49" y="813" type="line"/>
      <point x="49" y="671" type="line"/>
    </contour>
    <contour>
      <point x="519" y="331" type="line"/>
      <point x="519" y="477" type="line"/>
      <point x="25" y="477" type="line"/>
      <point x="25" y="331" type="line"/>
    </contour>
    <contour>
      <point x="353" y="-95" type="line"/>
      <point x="353" y="756" type="line"/>
      <point x="203" y="756" type="line"/>
      <point x="203" y="-95" type="line"/>
    </contour>
  </outline>
</glyph>
<glyph name="uni5211" format="2">
  <advance width="1000" height="1000"/>
  <unicode hex="5211"/>
  <note>
cid11181
</note>
  <outline>
    <contour>
      <point x="548" y="667" type="line"/>
      <point x="548" y="804" type="line"/>
      <point x="50" y="804" type="line"/>
      <point x="50" y="667" type="line"/>
    </contour>
    <contour>
      <point x="559" y="332" type="line"/>
      <point x="559" y="472" type="line"/>
      <point x="35" y="472" type="line"/>
      <point x="35" y="332" type="line"/>
    </contour>
    <contour>
      <point x="724" y="166" type="line"/>
      <point x="724" y="733" type="line"/>
      <point x="586" y="733" type="line"/>
      <point x="586" y="166" type="line"/>
    </contour>
    <contour>
      <point x="935" y="73" type="curve" smooth="yes"/>
      <point x="935" y="834" type="line"/>
      <point x="792" y="834" type="line"/>
      <point x="792" y="74" type="line" smooth="yes"/>
      <point x="792" y="57"/>
      <point x="786" y="52"/>
      <point x="769" y="52" type="curve" smooth="yes"/>
      <point x="751" y="52"/>
      <point x="697" y="52"/>
      <point x="646" y="54" type="curve"/>
      <point x="666" y="13"/>
      <point x="686" y="-54"/>
      <point x="691" y="-95" type="curve"/>
      <point x="774" y="-95"/>
      <point x="837" y="-90"/>
      <point x="880" y="-66" type="curve" smooth="yes"/>
      <point x="922" y="-42"/>
      <point x="935" y="-3"/>
    </contour>
    <contour>
      <point x="267" y="393" type="curve" smooth="yes"/>
      <point x="267" y="732" type="line"/>
      <point x="130" y="732" type="line"/>
      <point x="130" y="394" type="line" smooth="yes"/>
      <point x="130" y="257"/>
      <point x="116" y="118"/>
      <point x="18" y="-5" type="curve"/>
      <point x="53" y="-30"/>
      <point x="98" y="-68"/>
      <point x="122" y="-100" type="curve"/>
      <point x="245" y="41"/>
      <point x="267" y="212"/>
    </contour>
    <contour>
      <point x="480" y="-90" type="line"/>
      <point x="480" y="747" type="line"/>
      <point x="339" y="747" type="line"/>
      <point x="339" y="-90" type="line"/>
    </contour>
  </outline>
</glyph>
<glyph name="uni5212" format="2">
  <advance width="1000" height="1000"/>
  <unicode hex="5212"/>
  <note>
cid11182
</note>
  <outline>
    <contour>
      <point x="729" y="186" type="line"/>
      <point x="729" y="740" type="line"/>
      <point x="590" y="740" type="line"/>
      <point x="590" y="186" type="line"/>
    </contour>
    <contour>
      <point x="937" y="68" type="curve" smooth="yes"/>
      <point x="937" y="845" type="line"/>
      <point x="795" y="845" type="line"/>
      <point x="795" y="68" type="line" smooth="yes"/>
      <point x="795" y="51"/>
      <point x="789" y="46"/>
      <point x="771" y="46" type="curve" smooth="yes"/>
      <point x="753" y="46"/>
      <point x="696" y="46"/>
      <point x="645" y="48" type="curve"/>
      <point x="664" y="8"/>
      <point x="685" y="-56"/>
      <point x="690" y="-96" type="curve"/>
      <point x="775" y="-96"/>
      <point x="838" y="-91"/>
      <point x="881" y="-68" type="curve" smooth="yes"/>
      <point x="924" y="-45"/>
      <point x="937" y="-7"/>
    </contour>
    <contour>
      <point x="573" y="507" type="line"/>
      <point x="560" y="644" type="line"/>
      <point x="20" y="586" type="line"/>
      <point x="33" y="448" type="line"/>
    </contour>
    <contour>
      <point x="279" y="854" type="curve"/>
      <point x="130" y="854" type="line"/>
      <point x="131" y="404"/>
      <point x="203" y="-95"/>
      <point x="432" y="-95" type="curve" smooth="yes"/>
      <point x="533" y="-95"/>
      <point x="578" y="-53"/>
      <point x="600" y="135" type="curve"/>
      <point x="562" y="150"/>
      <point x="512" y="183"/>
      <point x="481" y="215" type="curve"/>
      <point x="475" y="98"/>
      <point x="464" y="50"/>
      <point x="443" y="50" type="curve" smooth="yes"/>
      <point x="353" y="50"/>
      <point x="269" y="468"/>
    </contour>
    <contour>
      <point x="519" y="438" type="curve"/>
      <point x="382" y="480" type="line"/>
      <point x="313" y="287"/>
      <point x="181" y="123"/>
      <point x="15" y="23" type="curve"/>
      <point x="44" y="-4"/>
      <point x="95" y="-61"/>
      <point x="116" y="-91" type="curve"/>
      <point x="290" y="30"/>
      <point x="435" y="220"/>
    </contour>
    <contour>
      <point x="384" y="855" type="curve"/>
      <point x="288" y="777" type="line"/>
      <point x="336" y="735"/>
      <point x="397" y="674"/>
      <point x="422" y="634" type="curve"/>
      <point x="525" y="721" type="line"/>
      <point x="496" y="761"/>
      <point x="433" y="817"/>
    </contour>
  </outline>
</glyph>
<glyph name="uni522E" format="2">
  <advance width="1000" height="1000"/>
  <unicode hex="522E"/>
  <note>
cid11219
</note>
  <outline>
    <contour>
      <point x="429" y="-46" type="line"/>
      <point x="429" y="85" type="line"/>
      <point x="138" y="85" type="line"/>
      <point x="138" y="-46" type="line"/>
    </contour>
    <contour>
      <point x="358" y="245" type="line"/>
      <point x="358" y="763" type="line"/>
      <point x="216" y="708" type="line"/>
      <point x="216" y="245" type="line"/>
    </contour>
    <contour>
      <point x="512" y="-90" type="line"/>
      <point x="512" y="320" type="line"/>
      <point x="65" y="320" type="line"/>
      <point x="65" y="-94" type="line"/>
      <point x="201" y="-94" type="line"/>
      <point x="201" y="189" type="line"/>
      <point x="369" y="189" type="line"/>
      <point x="369" y="-90" type="line"/>
    </contour>
    <contour>
      <point x="537" y="439" type="line"/>
      <point x="537" y="576" type="line"/>
      <point x="24" y="576" type="line"/>
      <point x="24" y="439" type="line"/>
    </contour>
    <contour>
      <point x="526" y="743" type="curve"/>
      <point x="420" y="850" type="line"/>
      <point x="322" y="809"/>
      <point x="166" y="779"/>
      <point x="20" y="764" type="curve"/>
      <point x="36" y="734"/>
      <point x="55" y="682"/>
      <point x="60" y="649" type="curve"/>
      <point x="215" y="663"/>
      <point x="393" y="691"/>
    </contour>
    <contour>
      <point x="712" y="160" type="line"/>
      <point x="712" y="732" type="line"/>
      <point x="571" y="732" type="line"/>
      <point x="571" y="160" type="line"/>
    </contour>
    <contour>
      <point x="936" y="76" type="curve" smooth="yes"/>
      <point x="936" y="834" type="line"/>
      <point x="792" y="834" type="line"/>
      <point x="792" y="77" type="line" smooth="yes"/>
      <point x="792" y="58"/>
      <point x="784" y="52"/>
      <point x="765" y="52" type="curve" smooth="yes"/>
      <point x="743" y="52"/>
      <point x="677" y="52"/>
      <point x="614" y="55" type="curve"/>
      <point x="635" y="14"/>
      <point x="658" y="-54"/>
      <point x="664" y="-96" type="curve"/>
      <point x="756" y="-96"/>
      <point x="828" y="-91"/>
      <point x="875" y="-68" type="curve" smooth="yes"/>
      <point x="921" y="-44"/>
      <point x="936" y="-5"/>
    </contour>
  </outline>
</glyph>
<glyph name="uni524A" format="2">
  <advance width="1000" height="1000"/>
  <unicode hex="524A"/>
  <note>
cid11258
</note>
  <outline>
    <contour>
      <point x="712" y="160" type="line"/>
      <point x="712" y="727" type="line"/>
      <point x="571" y="727" type="line"/>
      <point x="571" y="160" type="line"/>
    </contour>
    <contour>
      <point x="936" y="76" type="curve" smooth="yes"/>
      <point x="936" y="834" type="line"/>
      <point x="792" y="834" type="line"/>
      <point x="792" y="77" type="line" smooth="yes"/>
      <point x="792" y="58"/>
      <point x="784" y="52"/>
      <point x="765" y="52" type="curve" smooth="yes"/>
      <point x="743" y="52"/>
      <point x="677" y="52"/>
      <point x="614" y="55" type="curve"/>
      <point x="635" y="14"/>
      <point x="658" y="-54"/>
      <point x="664" y="-96" type="curve"/>
      <point x="756" y="-96"/>
      <point x="828" y="-91"/>
      <point x="875" y="-68" type="curve" smooth="yes"/>
      <point x="921" y="-44"/>
      <point x="936" y="-5"/>
    </contour>
    <contour>
      <point x="495" y="91" type="line"/>
      <point x="495" y="212" type="line"/>
      <point x="116" y="212" type="line"/>
      <point x="116" y="91" type="line"/>
    </contour>
    <contour>
      <point x="495" y="255" type="line"/>
      <point x="495" y="376" type="line"/>
      <point x="116" y="376" type="line"/>
      <point x="116" y="255" type="line"/>
    </contour>
    <contour>
      <point x="360" y="472" type="line"/>
      <point x="360" y="856" type="line"/>
      <point x="216" y="856" type="line"/>
      <point x="216" y="472" type="line"/>
    </contour>
    <contour>
      <point x="513" y="52" type="curve" smooth="yes"/>
      <point x="513" y="552" type="line"/>
      <point x="373" y="552" type="line"/>
      <point x="373" y="55" type="line" smooth="yes"/>
      <point x="373" y="42"/>
      <point x="369" y="39"/>
      <point x="356" y="38" type="curve" smooth="yes"/>
      <point x="343" y="38"/>
      <point x="301" y="38"/>
      <point x="269" y="40" type="curve"/>
      <point x="286" y="4"/>
      <point x="303" y="-56"/>
      <point x="307" y="-95" type="curve"/>
      <point x="375" y="-95"/>
      <point x="424" y="-93"/>
      <point x="463" y="-71" type="curve" smooth="yes"/>
      <point x="503" y="-49"/>
      <point x="513" y="-11"/>
    </contour>
    <contour>
      <point x="143" y="809" type="curve"/>
      <point x="24" y="769" type="line"/>
      <point x="50" y="705"/>
      <point x="74" y="625"/>
      <point x="82" y="574" type="curve"/>
      <point x="208" y="620" type="line"/>
      <point x="197" y="671"/>
      <point x="170" y="749"/>
    </contour>
    <contour>
      <point x="560" y="779" type="curve"/>
      <point x="420" y="817" type="line"/>
      <point x="410" y="753"/>
      <point x="388" y="668"/>
      <point x="367" y="612" type="curve"/>
      <point x="484" y="575" type="line"/>
      <point x="507" y="626"/>
      <point x="534" y="703"/>
    </contour>
    <contour>
      <point x="446" y="417" type="line"/>
      <point x="446" y="552" type="line"/>
      <point x="68" y="552" type="line"/>
      <point x="68" y="-95" type="line"/>
      <point x="206" y="-95" type="line"/>
      <point x="206" y="417" type="line"/>
    </contour>
  </outline>
</glyph>
<glyph name="uni5269" format="2">
  <advance width="1000" height="1000"/>
  <unicode hex="5269"/>
  <note>
cid11306
</note>
  <outline>
    <contour>
      <point x="751" y="160" type="line"/>
      <point x="751" y="732" type="line"/>
      <point x="622" y="732" type="line"/>
      <point x="622" y="160" type="line"/>
    </contour>
    <contour>
      <point x="229" y="222" type="line"/>
      <point x="229" y="528" type="line"/>
      <point x="130" y="528" type="line"/>
      <point x="130" y="222" type="line"/>
    </contour>
    <contour>
      <point x="949" y="67" type="curve" smooth="yes"/>
      <point x="949" y="854" type="line"/>
      <point x="809" y="854" type="line"/>
      <point x="809" y="68" type="line" smooth="yes"/>
      <point x="809" y="52"/>
      <point x="803" y="46"/>
      <point x="787" y="46" type="curve" smooth="yes"/>
      <point x="770" y="46"/>
      <point x="718" y="46"/>
      <point x="672" y="48" type="curve"/>
      <point x="690" y="9"/>
      <point x="709" y="-52"/>
      <point x="714" y="-91" type="curve"/>
      <point x="795" y="-91"/>
      <point x="854" y="-86"/>
      <point x="895" y="-64" type="curve" smooth="yes"/>
      <point x="936" y="-41"/>
      <point x="949" y="-5"/>
    </contour>
    <contour>
      <point x="189" y="382" type="line"/>
      <point x="189" y="478" type="line"/>
      <point x="53" y="478" type="line"/>
      <point x="53" y="382" type="line"/>
    </contour>
    <contour>
      <point x="595" y="546" type="line"/>
      <point x="595" y="666" type="line"/>
      <point x="41" y="666" type="line"/>
      <point x="41" y="546" type="line"/>
    </contour>
    <contour>
      <point x="383" y="-95" type="line"/>
      <point x="383" y="786" type="line"/>
      <point x="255" y="764" type="line"/>
      <point x="255" y="-95" type="line"/>
    </contour>
    <contour>
      <point x="36" y="333" type="curve"/>
      <point x="65" y="236" type="line"/>
      <point x="110" y="252"/>
      <point x="154" y="267"/>
      <point x="200" y="284" type="curve"/>
      <point x="188" y="367" type="line"/>
      <point x="129" y="353"/>
      <point x="78" y="341"/>
    </contour>
    <contour>
      <point x="374" y="279" type="curve"/>
      <point x="278" y="314" type="line"/>
      <point x="226" y="211"/>
      <point x="127" y="106"/>
      <point x="26" y="49" type="curve"/>
      <point x="55" y="24"/>
      <point x="96" y="-27"/>
      <point x="116" y="-59" type="curve"/>
      <point x="221" y="14"/>
      <point x="316" y="145"/>
    </contour>
    <contour>
      <point x="605" y="421" type="curve"/>
      <point x="536" y="498" type="line"/>
      <point x="511" y="472"/>
      <point x="471" y="446"/>
      <point x="434" y="427" type="curve"/>
      <point x="446" y="406"/>
      <point x="459" y="373"/>
      <point x="464" y="353" type="curve"/>
      <point x="507" y="368"/>
      <point x="560" y="391"/>
    </contour>
    <contour>
      <point x="581" y="753" type="curve"/>
      <point x="484" y="859" type="line"/>
      <point x="390" y="830"/>
      <point x="226" y="808"/>
      <point x="57" y="801" type="curve"/>
      <point x="72" y="771"/>
      <point x="88" y="720"/>
      <point x="92" y="689" type="curve"/>
      <point x="268" y="692"/>
      <point x="459" y="717"/>
    </contour>
    <contour>
      <point x="504" y="340" type="curve" smooth="yes"/>
      <point x="504" y="526" type="line"/>
      <point x="407" y="526" type="line"/>
      <point x="407" y="339" type="line" smooth="yes"/>
      <point x="407" y="256"/>
      <point x="421" y="229"/>
      <point x="491" y="229" type="curve" smooth="yes"/>
      <point x="505" y="229"/>
      <point x="515" y="229"/>
      <point x="528" y="229" type="curve" smooth="yes"/>
      <point x="578" y="229"/>
      <point x="602" y="252"/>
      <point x="611" y="332" type="curve"/>
      <point x="585" y="339"/>
      <point x="546" y="353"/>
      <point x="529" y="367" type="curve"/>
      <point x="527" y="323"/>
      <point x="524" y="315"/>
      <point x="515" y="315" type="curve" smooth="yes"/>
      <point x="514" y="315"/>
      <point x="512" y="315"/>
      <point x="510" y="315" type="curve" smooth="yes"/>
      <point x="505" y="315"/>
      <point x="504" y="317"/>
    </contour>
    <contour>
      <point x="350" y="254" type="curve"/>
      <point x="283" y="183" type="line"/>
      <point x="351" y="136"/>
      <point x="469" y="45"/>
      <point x="526" y="-9" type="curve"/>
      <point x="601" y="108" type="line"/>
      <point x="563" y="135"/>
      <point x="403" y="229"/>
    </contour>
  </outline>
</glyph>
<glyph name="uni526F" format="2">
  <advance width="1000" height="1000"/>
  <unicode hex="526F"/>
  <note>
cid11317
</note>
  <outline>
    <contour>
      <point x="733" y="160" type="line"/>
      <point x="733" y="732" type="line"/>
      <point x="596" y="732" type="line"/>
      <point x="596" y="160" type="line"/>
    </contour>
    <contour>
      <point x="943" y="74" type="curve" smooth="yes"/>
      <point x="943" y="834" type="line"/>
      <point x="802" y="834" type="line"/>
      <point x="802" y="75" type="line" smooth="yes"/>
      <point x="802" y="58"/>
      <point x="795" y="52"/>
      <point x="778" y="52" type="curve" smooth="yes"/>
      <point x="758" y="52"/>
      <point x="700" y="52"/>
      <point x="645" y="55" type="curve"/>
      <point x="665" y="14"/>
      <point x="686" y="-53"/>
      <point x="691" y="-94" type="curve"/>
      <point x="777" y="-94"/>
      <point x="842" y="-89"/>
      <point x="886" y="-65" type="curve" smooth="yes"/>
      <point x="930" y="-42"/>
      <point x="943" y="-3"/>
    </contour>
    <contour>
      <point x="562" y="692" type="line"/>
      <point x="562" y="813" type="line"/>
      <point x="39" y="813" type="line"/>
      <point x="39" y="692" type="line"/>
    </contour>
    <contour>
      <point x="472" y="-66" type="line"/>
      <point x="472" y="43" type="line"/>
      <point x="115" y="43" type="line"/>
      <point x="115" y="-66" type="line"/>
    </contour>
    <contour>
      <point x="462" y="92" type="line"/>
      <point x="462" y="195" type="line"/>
      <point x="128" y="195" type="line"/>
      <point x="128" y="92" type="line"/>
    </contour>
    <contour>
      <point x="367" y="-11" type="line"/>
      <point x="367" y="286" type="line"/>
      <point x="239" y="286" type="line"/>
      <point x="239" y="-11" type="line"/>
    </contour>
    <contour>
      <point x="556" y="-91" type="line"/>
      <point x="556" y="349" type="line"/>
      <point x="56" y="349" type="line"/>
      <point x="56" y="-95" type="line"/>
      <point x="187" y="-95" type="line"/>
      <point x="187" y="240" type="line"/>
      <point x="419" y="240" type="line"/>
      <point x="419" y="-91" type="line"/>
    </contour>
    <contour>
      <point x="376" y="495" type="line"/>
      <point x="228" y="495" type="line"/>
      <point x="228" y="547" type="line"/>
      <point x="376" y="547" type="line"/>
    </contour>
    <contour>
      <point x="514" y="387" type="line"/>
      <point x="514" y="656" type="line"/>
      <point x="98" y="656" type="line"/>
      <point x="98" y="387" type="line"/>
    </contour>
  </outline>
</glyph>
<glyph name="uni52D2" format="2">
  <advance width="1000" height="1000"/>
  <unicode hex="52D2"/>
  <unicode hex="F952"/>
  <note>
cid11479
</note>
  <outline>
    <contour>
      <point x="857" y="499" type="line"/>
      <point x="857" y="633" type="line"/>
      <point x="514" y="633" type="line"/>
      <point x="514" y="499" type="line"/>
    </contour>
    <contour>
      <point x="948" y="633" type="curve"/>
      <point x="812" y="633" type="line"/>
      <point x="812" y="604" type="line" smooth="yes"/>
      <point x="806" y="226"/>
      <point x="799" y="86"/>
      <point x="778" y="57" type="curve" smooth="yes"/>
      <point x="769" y="43"/>
      <point x="760" y="39"/>
      <point x="745" y="39" type="curve" smooth="yes"/>
      <point x="725" y="39"/>
      <point x="691" y="39"/>
      <point x="652" y="43" type="curve"/>
      <point x="674" y="5"/>
      <point x="690" y="-54"/>
      <point x="692" y="-92" type="curve"/>
      <point x="740" y="-93"/>
      <point x="786" y="-93"/>
      <point x="817" y="-86" type="curve" smooth="yes"/>
      <point x="852" y="-79"/>
      <point x="876" y="-67"/>
      <point x="901" y="-29" type="curve" smooth="yes"/>
      <point x="932" y="17"/>
      <point x="939" y="166"/>
      <point x="947" y="572" type="curve" smooth="yes"/>
      <point x="948" y="589"/>
      <point x="948" y="633"/>
    </contour>
    <contour>
      <point x="747" y="851" type="curve"/>
      <point x="610" y="851" type="line"/>
      <point x="609" y="417"/>
      <point x="624" y="167"/>
      <point x="437" y="12" type="curve"/>
      <point x="470" y="-10"/>
      <point x="515" y="-63"/>
      <point x="535" y="-98" type="curve"/>
      <point x="747" y="81"/>
      <point x="746" y="385"/>
    </contour>
    <contour>
      <point x="535" y="666" type="line"/>
      <point x="535" y="774" type="line"/>
      <point x="39" y="774" type="line"/>
      <point x="39" y="666" type="line"/>
    </contour>
    <contour>
      <point x="534" y="55" type="line"/>
      <point x="534" y="176" type="line"/>
      <point x="29" y="176" type="line"/>
      <point x="29" y="55" type="line"/>
    </contour>
    <contour>
      <point x="357" y="451" type="line"/>
      <point x="357" y="577" type="line"/>
      <point x="223" y="577" type="line"/>
      <point x="223" y="451" type="line"/>
    </contour>
    <contour>
      <point x="350" y="240" type="line"/>
      <point x="350" y="459" type="line"/>
      <point x="229" y="459" type="line"/>
      <point x="229" y="240" type="line"/>
      <point x="223" y="240" type="line"/>
      <point x="223" y="-96" type="line"/>
      <point x="357" y="-96" type="line"/>
      <point x="357" y="240" type="line"/>
    </contour>
    <contour>
      <point x="249" y="629" type="line"/>
      <point x="249" y="854" type="line"/>
      <point x="130" y="854" type="line"/>
      <point x="130" y="521" type="line"/>
      <point x="452" y="521" type="line"/>
      <point x="452" y="854" type="line"/>
      <point x="327" y="854" type="line"/>
      <point x="327" y="629" type="line"/>
    </contour>
    <contour>
      <point x="398" y="317" type="line"/>
      <point x="181" y="317" type="line"/>
      <point x="181" y="378" type="line"/>
      <point x="398" y="378" type="line"/>
    </contour>
    <contour>
      <point x="519" y="209" type="line"/>
      <point x="519" y="485" type="line"/>
      <point x="66" y="485" type="line"/>
      <point x="66" y="209" type="line"/>
    </contour>
  </outline>
</glyph>
<glyph name="uni5347" format="2">
  <advance width="1000" height="1000"/>
  <unicode hex="5347"/>
  <note>
cid11686
</note>
  <outline>
    <contour>
      <point x="405" y="424" type="curve" smooth="yes"/>
      <point x="405" y="702" type="line"/>
      <point x="259" y="702" type="line"/>
      <point x="259" y="426" type="line" smooth="yes"/>
      <point x="259" y="279"/>
      <point x="235" y="119"/>
      <point x="38" y="17" type="curve"/>
      <point x="72" y="-8"/>
      <point x="122" y="-62"/>
      <point x="144" y="-96" type="curve"/>
      <point x="375" y="30"/>
      <point x="405" y="236"/>
    </contour>
    <contour>
      <point x="770" y="-95" type="line"/>
      <point x="770" y="842" type="line"/>
      <point x="619" y="842" type="line"/>
      <point x="619" y="-95" type="line"/>
    </contour>
    <contour>
      <point x="965" y="324" type="line"/>
      <point x="965" y="463" type="line"/>
      <point x="37" y="463" type="line"/>
      <point x="37" y="324" type="line"/>
    </contour>
    <contour>
      <point x="579" y="733" type="curve"/>
      <point x="478" y="856" type="line"/>
      <point x="368" y="794"/>
      <point x="208" y="734"/>
      <point x="54" y="698" type="curve"/>
      <point x="72" y="667"/>
      <point x="95" y="614"/>
      <point x="103" y="579" type="curve"/>
      <point x="262" y="614"/>
      <point x="438" y="664"/>
    </contour>
  </outline>
</glyph>
<glyph name="uni535C" format="2">
  <advance width="1000" height="1000"/>
  <unicode hex="535C"/>
  <note>
cid11713
</note>
  <outline>
    <contour>
      <point x="496" y="-95" type="line"/>
      <point x="496" y="850" type="line"/>
      <point x="328" y="850" type="line"/>
      <point x="328" y="-95" type="line"/>
    </contour>
    <contour>
      <point x="484" y="578" type="curve"/>
      <point x="397" y="452" type="line"/>
      <point x="532" y="385"/>
      <point x="703" y="283"/>
      <point x="787" y="220" type="curve"/>
      <point x="882" y="367" type="line"/>
      <point x="793" y="425"/>
      <point x="617" y="518"/>
    </contour>
  </outline>
</glyph>
<glyph name="uni5360" format="2">
  <advance width="1000" height="1000"/>
  <unicode hex="5360"/>
  <note>
cid11718
</note>
  <outline>
    <contour>
      <point x="950" y="553" type="line"/>
      <point x="950" y="689" type="line"/>
      <point x="486" y="689" type="line"/>
      <point x="486" y="553" type="line"/>
    </contour>
    <contour>
      <point x="779" y="-48" type="line"/>
      <point x="779" y="89" type="line"/>
      <point x="211" y="89" type="line"/>
      <point x="211" y="-48" type="line"/>
    </contour>
    <contour>
      <point x="571" y="341" type="line"/>
      <point x="571" y="854" type="line"/>
      <point x="420" y="854" type="line"/>
      <point x="420" y="341" type="line"/>
    </contour>
    <contour>
      <point x="875" y="-87" type="line"/>
      <point x="875" y="403" type="line"/>
      <point x="122" y="403" type="line"/>
      <point x="122" y="-92" type="line"/>
      <point x="265" y="-92" type="line"/>
      <point x="265" y="268" type="line"/>
      <point x="725" y="268" type="line"/>
      <point x="725" y="-87" type="line"/>
    </contour>
  </outline>
</glyph>
<glyph name="uni5398" format="2">
  <advance width="1000" height="1000"/>
  <unicode hex="5398"/>
  <note>
cid11800
</note>
  <outline>
    <contour>
      <point x="957" y="683" type="line"/>
      <point x="957" y="818" type="line"/>
      <point x="187" y="818" type="line"/>
      <point x="187" y="683" type="line"/>
    </contour>
    <contour>
      <point x="911" y="92" type="line"/>
      <point x="911" y="212" type="line"/>
      <point x="271" y="212" type="line"/>
      <point x="271" y="92" type="line"/>
    </contour>
    <contour>
      <point x="965" y="-79" type="line"/>
      <point x="965" y="49" type="line"/>
      <point x="204" y="49" type="line"/>
      <point x="204" y="-79" type="line"/>
    </contour>
    <contour>
      <point x="248" y="504" type="curve" smooth="yes"/>
      <point x="248" y="818" type="line"/>
      <point x="102" y="818" type="line"/>
      <point x="102" y="504" type="line" smooth="yes"/>
      <point x="102" y="349"/>
      <point x="96" y="127"/>
      <point x="14" y="-20" type="curve"/>
      <point x="51" y="-33"/>
      <point x="116" y="-70"/>
      <point x="144" y="-93" type="curve"/>
      <point x="233" y="69"/>
      <point x="248" y="331"/>
    </contour>
    <contour>
      <point x="743" y="364" type="line"/>
      <point x="432" y="364" type="line"/>
      <point x="432" y="400" type="line"/>
      <point x="743" y="400" type="line"/>
    </contour>
    <contour>
      <point x="743" y="503" type="line"/>
      <point x="432" y="503" type="line"/>
      <point x="432" y="538" type="line"/>
      <point x="743" y="538" type="line"/>
    </contour>
    <contour>
      <point x="883" y="253" type="line"/>
      <point x="883" y="649" type="line"/>
      <point x="298" y="649" type="line"/>
      <point x="298" y="253" type="line"/>
    </contour>
    <contour>
      <point x="657" y="-20" type="line"/>
      <point x="657" y="593" type="line"/>
      <point x="514" y="593" type="line"/>
      <point x="514" y="-20" type="line"/>
    </contour>
  </outline>
</glyph>
<glyph name="uni53CB" format="2">
  <advance width="1000" height="1000"/>
  <unicode hex="53CB"/>
  <note>
cid11864
</note>
  <outline>
    <contour>
      <point x="442" y="415" type="curve"/>
      <point x="311" y="378" type="line"/>
      <point x="417" y="127"/>
      <point x="582" y="-27"/>
      <point x="873" y="-92" type="curve"/>
      <point x="893" y="-51"/>
      <point x="938" y="15"/>
      <point x="970" y="45" type="curve"/>
      <point x="695" y="92"/>
      <point x="524" y="220"/>
    </contour>
    <contour>
      <point x="740" y="488" type="line"/>
      <point x="710" y="488" type="line"/>
      <point x="710" y="463" type="line"/>
      <point x="654" y="241"/>
      <point x="482" y="91"/>
      <point x="253" y="31" type="curve"/>
      <point x="283" y="1"/>
      <point x="320" y="-58"/>
      <point x="338" y="-95" type="curve"/>
      <point x="602" y="-9"/>
      <point x="790" y="153"/>
      <point x="868" y="452" type="curve"/>
      <point x="766" y="494" type="line"/>
    </contour>
    <contour>
      <point x="939" y="716" type="line"/>
      <point x="61" y="716" type="line"/>
      <point x="61" y="572" type="line"/>
      <point x="939" y="572" type="line"/>
    </contour>
    <contour>
      <point x="726" y="488" type="line"/>
      <point x="352" y="488" type="line"/>
      <point x="310" y="346" type="line"/>
      <point x="726" y="346" type="line"/>
    </contour>
    <contour>
      <point x="462" y="855" type="curve"/>
      <point x="310" y="855" type="line"/>
      <point x="303" y="715"/>
      <point x="302" y="284"/>
      <point x="17" y="48" type="curve"/>
      <point x="65" y="16"/>
      <point x="107" y="-24"/>
      <point x="134" y="-65" type="curve"/>
      <point x="441" y="215"/>
      <point x="454" y="674"/>
    </contour>
  </outline>
</glyph>
<glyph name="uni53CC" format="2">
  <advance width="1000" height="1000"/>
  <unicode hex="53CC"/>
  <note>
cid11890
</note>
  <outline>
    <contour>
      <point x="845" y="645" type="line"/>
      <point x="845" y="783" type="line"/>
      <point x="489" y="783" type="line"/>
      <point x="489" y="645" type="line"/>
    </contour>
    <contour>
      <point x="851" y="788" type="line"/>
      <point x="827" y="783" type="line"/>
      <point x="802" y="783" type="line"/>
      <point x="802" y="753" type="line"/>
      <point x="772" y="395"/>
      <point x="638" y="138"/>
      <point x="397" y="33" type="curve"/>
      <point x="429" y="4"/>
      <point x="471" y="-56"/>
      <point x="492" y="-95" type="curve"/>
      <point x="767" y="51"/>
      <point x="909" y="314"/>
      <point x="946" y="763" type="curve"/>
    </contour>
    <contour>
      <point x="641" y="641" type="curve"/>
      <point x="507" y="620" type="line"/>
      <point x="567" y="285"/>
      <point x="658" y="44"/>
      <point x="883" y="-95" type="curve"/>
      <point x="905" y="-56"/>
      <point x="951" y="2"/>
      <point x="984" y="30" type="curve"/>
      <point x="782" y="140"/>
      <point x="689" y="363"/>
    </contour>
    <contour>
      <point x="371" y="645" type="line"/>
      <point x="371" y="783" type="line"/>
      <point x="51" y="783" type="line"/>
      <point x="51" y="645" type="line"/>
    </contour>
    <contour>
      <point x="374" y="788" type="line"/>
      <point x="349" y="783" type="line"/>
      <point x="324" y="783" type="line"/>
      <point x="324" y="750" type="line"/>
      <point x="297" y="437"/>
      <point x="194" y="152"/>
      <point x="13" y="23" type="curve"/>
      <point x="48" y="-3"/>
      <point x="94" y="-58"/>
      <point x="117" y="-95" type="curve"/>
      <point x="327" y="77"/>
      <point x="434" y="361"/>
      <point x="468" y="762" type="curve"/>
    </contour>
    <contour>
      <point x="132" y="582" type="curve"/>
      <point x="33" y="486" type="line"/>
      <point x="187" y="361"/>
      <point x="337" y="195"/>
      <point x="398" y="84" type="curve"/>
      <point x="511" y="198" type="line"/>
      <point x="444" y="304"/>
      <point x="288" y="462"/>
    </contour>
  </outline>
</glyph>
<glyph name="uni53D4" format="2">
  <advance width="1000" height="1000"/>
  <unicode hex="53D4"/>
  <note>
cid11901
</note>
  <outline>
    <contour>
      <point x="842" y="661" type="line"/>
      <point x="842" y="799" type="line"/>
      <point x="513" y="799" type="line"/>
      <point x="513" y="661" type="line"/>
    </contour>
    <contour>
      <point x="544" y="394" type="line"/>
      <point x="544" y="527" type="line"/>
      <point x="25" y="527" type="line"/>
      <point x="25" y="394" type="line"/>
    </contour>
    <contour>
      <point x="491" y="612" type="line"/>
      <point x="491" y="743" type="line"/>
      <point x="297" y="743" type="line"/>
      <point x="297" y="612" type="line"/>
    </contour>
    <contour>
      <point x="860" y="804" type="line"/>
      <point x="837" y="799" type="line"/>
      <point x="806" y="799" type="line"/>
      <point x="806" y="769" type="line"/>
      <point x="783" y="389"/>
      <point x="666" y="143"/>
      <point x="452" y="27" type="curve"/>
      <point x="485" y="-5"/>
      <point x="526" y="-59"/>
      <point x="545" y="-96" type="curve"/>
      <point x="787" y="46"/>
      <point x="921" y="336"/>
      <point x="949" y="779" type="curve"/>
    </contour>
    <contour>
      <point x="661" y="652" type="curve"/>
      <point x="532" y="631" type="line"/>
      <point x="592" y="260"/>
      <point x="700" y="40"/>
      <point x="888" y="-94" type="curve"/>
      <point x="910" y="-56"/>
      <point x="957" y="-2"/>
      <point x="989" y="25" type="curve"/>
      <point x="822" y="131"/>
      <point x="713" y="339"/>
    </contour>
    <contour>
      <point x="336" y="463" type="line"/>
      <point x="336" y="855" type="line"/>
      <point x="195" y="855" type="line"/>
      <point x="195" y="463" type="line"/>
    </contour>
    <contour>
      <point x="356" y="46" type="curve" smooth="yes"/>
      <point x="356" y="414" type="line"/>
      <point x="216" y="414" type="line"/>
      <point x="216" y="49" type="line" smooth="yes"/>
      <point x="216" y="38"/>
      <point x="212" y="35"/>
      <point x="199" y="35" type="curve" smooth="yes"/>
      <point x="186" y="34"/>
      <point x="143" y="34"/>
      <point x="109" y="36" type="curve"/>
      <point x="126" y="0"/>
      <point x="146" y="-57"/>
      <point x="151" y="-95" type="curve"/>
      <point x="216" y="-95"/>
      <point x="266" y="-93"/>
      <point x="306" y="-72" type="curve" smooth="yes"/>
      <point x="346" y="-51"/>
      <point x="356" y="-16"/>
    </contour>
    <contour>
      <point x="200" y="333" type="curve"/>
      <point x="73" y="358" type="line"/>
      <point x="62" y="270"/>
      <point x="39" y="172"/>
      <point x="9" y="111" type="curve"/>
      <point x="41" y="100"/>
      <point x="100" y="77"/>
      <point x="128" y="60" type="curve"/>
      <point x="157" y="127"/>
      <point x="186" y="234"/>
    </contour>
    <contour>
      <point x="490" y="367" type="curve"/>
      <point x="370" y="333" type="line"/>
      <point x="396" y="260"/>
      <point x="421" y="161"/>
      <point x="430" y="93" type="curve"/>
      <point x="557" y="132" type="line"/>
      <point x="544" y="199"/>
      <point x="516" y="296"/>
    </contour>
  </outline>
</glyph>
<glyph name="uni53D7" format="2">
  <advance width="1000" height="1000"/>
  <unicode hex="53D7"/>
  <note>
cid11905
</note>
  <outline>
    <contour>
      <point x="945" y="321" type="line"/>
      <point x="945" y="569" type="line"/>
      <point x="57" y="569" type="line"/>
      <point x="57" y="321" type="line"/>
      <point x="193" y="321" type="line"/>
      <point x="193" y="444" type="line"/>
      <point x="803" y="444" type="line"/>
      <point x="803" y="321" type="line"/>
    </contour>
    <contour>
      <point x="724" y="262" type="line"/>
      <point x="724" y="387" type="line"/>
      <point x="215" y="387" type="line"/>
      <point x="215" y="262" type="line"/>
    </contour>
    <contour>
      <point x="920" y="737" type="curve"/>
      <point x="823" y="855" type="line"/>
      <point x="632" y="819"/>
      <point x="334" y="796"/>
      <point x="66" y="789" type="curve"/>
      <point x="79" y="758"/>
      <point x="96" y="702"/>
      <point x="98" y="666" type="curve"/>
      <point x="367" y="672"/>
      <point x="680" y="693"/>
    </contour>
    <contour>
      <point x="283" y="685" type="curve"/>
      <point x="156" y="650" type="line"/>
      <point x="174" y="615"/>
      <point x="192" y="567"/>
      <point x="198" y="538" type="curve"/>
      <point x="332" y="576" type="line"/>
      <point x="325" y="606"/>
      <point x="304" y="651"/>
    </contour>
    <contour>
      <point x="542" y="700" type="curve"/>
      <point x="414" y="671" type="line"/>
      <point x="430" y="631"/>
      <point x="444" y="579"/>
      <point x="448" y="546" type="curve"/>
      <point x="583" y="579" type="line"/>
      <point x="578" y="613"/>
      <point x="561" y="663"/>
    </contour>
    <contour>
      <point x="879" y="673" type="curve"/>
      <point x="723" y="707" type="line"/>
      <point x="711" y="657"/>
      <point x="685" y="591"/>
      <point x="662" y="545" type="curve"/>
      <point x="782" y="511" type="line"/>
      <point x="810" y="551"/>
      <point x="845" y="611"/>
    </contour>
    <contour>
      <point x="725" y="392" type="line"/>
      <point x="700" y="387" type="line"/>
      <point x="670" y="387" type="line"/>
      <point x="670" y="363" type="line"/>
      <point x="601" y="173"/>
      <point x="389" y="65"/>
      <point x="32" y="38" type="curve"/>
      <point x="62" y="8"/>
      <point x="105" y="-58"/>
      <point x="121" y="-95" type="curve"/>
      <point x="487" y="-53"/>
      <point x="720" y="89"/>
      <point x="824" y="334" type="curve"/>
    </contour>
    <contour>
      <point x="355" y="270" type="curve"/>
      <point x="228" y="219" type="line"/>
      <point x="372" y="36"/>
      <point x="586" y="-60"/>
      <point x="884" y="-95" type="curve"/>
      <point x="903" y="-55"/>
      <point x="942" y="9"/>
      <point x="973" y="42" type="curve"/>
      <point x="687" y="64"/>
      <point x="465" y="137"/>
    </contour>
  </outline>
</glyph>
<glyph name="uni53E5" format="2">
  <advance width="1000" height="1000"/>
  <unicode hex="53E5"/>
  <unicode hex="F906"/>
  <note>
cid11929
</note>
  <outline>
    <contour>
      <point x="630" y="100" type="line"/>
      <point x="630" y="492" type="line"/>
      <point x="289" y="492" type="line"/>
      <point x="289" y="363" type="line"/>
      <point x="485" y="363" type="line"/>
      <point x="485" y="229" type="line"/>
      <point x="289" y="229" type="line"/>
      <point x="289" y="100" type="line"/>
    </contour>
    <contour>
      <point x="338" y="33" type="line"/>
      <point x="338" y="492" type="line"/>
      <point x="197" y="492" type="line"/>
      <point x="197" y="33" type="line"/>
    </contour>
    <contour>
      <point x="884" y="585" type="line"/>
      <point x="884" y="729" type="line"/>
      <point x="259" y="729" type="line"/>
      <point x="259" y="585" type="line"/>
    </contour>
    <contour>
      <point x="955" y="729" type="curve"/>
      <point x="804" y="729" type="line"/>
      <point x="804" y="699" type="line" smooth="yes"/>
      <point x="795" y="290"/>
      <point x="783" y="106"/>
      <point x="749" y="71" type="curve" smooth="yes"/>
      <point x="736" y="57"/>
      <point x="725" y="53"/>
      <point x="704" y="53" type="curve" smooth="yes"/>
      <point x="675" y="53"/>
      <point x="617" y="53"/>
      <point x="552" y="58" type="curve"/>
      <point x="580" y="15"/>
      <point x="602" y="-54"/>
      <point x="604" y="-96" type="curve"/>
      <point x="665" y="-97"/>
      <point x="730" y="-99"/>
      <point x="772" y="-90" type="curve" smooth="yes"/>
      <point x="819" y="-82"/>
      <point x="851" y="-68"/>
      <point x="885" y="-21" type="curve" smooth="yes"/>
      <point x="928" y="37"/>
      <point x="941" y="205"/>
      <point x="953" y="659" type="curve" smooth="yes"/>
      <point x="954" y="678"/>
      <point x="955" y="729"/>
    </contour>
    <contour>
      <point x="408" y="817" type="curve"/>
      <point x="256" y="855" type="line"/>
      <point x="208" y="697"/>
      <point x="117" y="545"/>
      <point x="10" y="456" type="curve"/>
      <point x="45" y="432"/>
      <point x="108" y="380"/>
      <point x="135" y="353" type="curve"/>
      <point x="244" y="460"/>
      <point x="346" y="635"/>
    </contour>
  </outline>
</glyph>
<glyph name="uni53EE" format="2">
  <advance width="1000" height="1000"/>
  <unicode hex="53EE"/>
  <note>
cid11942
</note>
  <outline>
    <contour>
      <point x="976" y="642" type="line"/>
      <point x="976" y="784" type="line"/>
      <point x="444" y="784" type="line"/>
      <point x="444" y="642" type="line"/>
    </contour>
    <contour>
      <point x="810" y="78" type="curve" smooth="yes"/>
      <point x="810" y="722" type="line"/>
      <point x="655" y="722" type="line"/>
      <point x="655" y="81" type="line" smooth="yes"/>
      <point x="655" y="63"/>
      <point x="647" y="57"/>
      <point x="627" y="57" type="curve" smooth="yes"/>
      <point x="607" y="57"/>
      <point x="532" y="56"/>
      <point x="475" y="60" type="curve"/>
      <point x="498" y="20"/>
      <point x="525" y="-51"/>
      <point x="532" y="-95" type="curve"/>
      <point x="625" y="-95"/>
      <point x="693" y="-92"/>
      <point x="743" y="-67" type="curve" smooth="yes"/>
      <point x="793" y="-42"/>
      <point x="810" y="0"/>
    </contour>
    <contour>
      <point x="417" y="145" type="line"/>
      <point x="417" y="761" type="line"/>
      <point x="134" y="761" type="line"/>
      <point x="134" y="621" type="line"/>
      <point x="278" y="621" type="line"/>
      <point x="278" y="286" type="line"/>
      <point x="134" y="286" type="line"/>
      <point x="134" y="145" type="line"/>
    </contour>
    <contour>
      <point x="200" y="53" type="line"/>
      <point x="200" y="761" type="line"/>
      <point x="59" y="761" type="line"/>
      <point x="59" y="53" type="line"/>
    </contour>
  </outline>
</glyph>
<glyph name="uni53F8" format="2">
  <advance width="1000" height="1000"/>
  <unicode hex="53F8"/>
  <note>
cid11955
</note>
  <outline>
    <contour>
      <point x="813" y="659" type="line"/>
      <point x="813" y="797" type="line"/>
      <point x="74" y="797" type="line"/>
      <point x="74" y="659" type="line"/>
    </contour>
    <contour>
      <point x="671" y="481" type="line"/>
      <point x="671" y="607" type="line"/>
      <point x="85" y="607" type="line"/>
      <point x="85" y="481" type="line"/>
    </contour>
    <contour>
      <point x="914" y="78" type="curve" smooth="yes"/>
      <point x="914" y="797" type="line"/>
      <point x="764" y="797" type="line"/>
      <point x="764" y="81" type="line" smooth="yes"/>
      <point x="764" y="64"/>
      <point x="757" y="58"/>
      <point x="739" y="58" type="curve" smooth="yes"/>
      <point x="720" y="58"/>
      <point x="656" y="57"/>
      <point x="606" y="61" type="curve"/>
      <point x="626" y="20"/>
      <point x="648" y="-52"/>
      <point x="652" y="-96" type="curve"/>
      <point x="745" y="-96"/>
      <point x="808" y="-93"/>
      <point x="854" y="-67" type="curve" smooth="yes"/>
      <point x="901" y="-42"/>
      <point x="914" y="0"/>
    </contour>
    <contour>
      <point x="282" y="-2" type="line"/>
      <point x="282" y="421" type="line"/>
      <point x="140" y="421" type="line"/>
      <point x="140" y="-2" type="line"/>
    </contour>
    <contour>
      <point x="578" y="70" type="line"/>
      <point x="578" y="421" type="line"/>
      <point x="209" y="421" type="line"/>
      <point x="209" y="297" type="line"/>
      <point x="435" y="297" type="line"/>
      <point x="435" y="194" type="line"/>
      <point x="209" y="194" type="line"/>
      <point x="209" y="70" type="line"/>
    </contour>
  </outline>
</glyph>
<glyph name="uni5401" format="2">
  <advance width="1000" height="1000"/>
  <unicode hex="5401"/>
  <note>
cid11965
</note>
  <outline>
    <contour>
      <point x="393" y="180" type="line"/>
      <point x="393" y="771" type="line"/>
      <point x="119" y="771" type="line"/>
      <point x="119" y="631" type="line"/>
      <point x="254" y="631" type="line"/>
      <point x="254" y="321" type="line"/>
      <point x="119" y="321" type="line"/>
      <point x="119" y="180" type="line"/>
    </contour>
    <contour>
      <point x="196" y="78" type="line"/>
      <point x="196" y="771" type="line"/>
      <point x="60" y="771" type="line"/>
      <point x="60" y="78" type="line"/>
    </contour>
    <contour>
      <point x="953" y="661" type="line"/>
      <point x="953" y="800" type="line"/>
      <point x="443" y="800" type="line"/>
      <point x="443" y="661" type="line"/>
    </contour>
    <contour>
      <point x="975" y="331" type="line"/>
      <point x="975" y="471" type="line"/>
      <point x="415" y="471" type="line"/>
      <point x="415" y="331" type="line"/>
    </contour>
    <contour>
      <point x="769" y="72" type="curve" smooth="yes"/>
      <point x="769" y="725" type="line"/>
      <point x="620" y="725" type="line"/>
      <point x="620" y="74" type="line" smooth="yes"/>
      <point x="620" y="58"/>
      <point x="612" y="51"/>
      <point x="594" y="51" type="curve" smooth="yes"/>
      <point x="575" y="51"/>
      <point x="513" y="51"/>
      <point x="460" y="54" type="curve"/>
      <point x="482" y="8"/>
      <point x="504" y="-57"/>
      <point x="510" y="-95" type="curve"/>
      <point x="593" y="-95"/>
      <point x="661" y="-91"/>
      <point x="708" y="-68" type="curve" smooth="yes"/>
      <point x="755" y="-45"/>
      <point x="769" y="-6"/>
    </contour>
  </outline>
</glyph>
<glyph name="uni5403" format="2">
  <advance width="1000" height="1000"/>
  <unicode hex="5403"/>
  <note>
cid11968
</note>
  <outline>
    <contour>
      <point x="374" y="180" type="line"/>
      <point x="374" y="761" type="line"/>
      <point x="134" y="761" type="line"/>
      <point x="134" y="621" type="line"/>
      <point x="243" y="621" type="line"/>
      <point x="243" y="321" type="line"/>
      <point x="134" y="321" type="line"/>
      <point x="134" y="180" type="line"/>
    </contour>
    <contour>
      <point x="191" y="98" type="line"/>
      <point x="191" y="761" type="line"/>
      <point x="59" y="761" type="line"/>
      <point x="59" y="98" type="line"/>
    </contour>
    <contour>
      <point x="952" y="587" type="line"/>
      <point x="952" y="722" type="line"/>
      <point x="488" y="722" type="line"/>
      <point x="488" y="587" type="line"/>
    </contour>
    <contour>
      <point x="803" y="369" type="line"/>
      <point x="803" y="503" type="line"/>
      <point x="469" y="503" type="line"/>
      <point x="469" y="369" type="line"/>
    </contour>
    <contour>
      <point x="658" y="820" type="curve"/>
      <point x="515" y="855" type="line"/>
      <point x="479" y="737"/>
      <point x="412" y="621"/>
      <point x="333" y="551" type="curve"/>
      <point x="365" y="529"/>
      <point x="424" y="481"/>
      <point x="449" y="456" type="curve"/>
      <point x="532" y="541"/>
      <point x="611" y="679"/>
    </contour>
    <contour>
      <point x="836" y="507" type="line"/>
      <point x="804" y="503" type="line"/>
      <point x="781" y="503" type="line"/>
      <point x="417" y="215"/>
      <point x="398" y="148"/>
      <point x="398" y="75" type="curve" smooth="yes"/>
      <point x="399" y="-16"/>
      <point x="465" y="-77"/>
      <point x="614" y="-77" type="curve" smooth="yes"/>
      <point x="791" y="-77" type="line" smooth="yes"/>
      <point x="916" y="-77"/>
      <point x="971" y="-37"/>
      <point x="985" y="152" type="curve"/>
      <point x="943" y="160"/>
      <point x="897" y="176"/>
      <point x="857" y="198" type="curve"/>
      <point x="852" y="78"/>
      <point x="836" y="64"/>
      <point x="800" y="64" type="curve" smooth="yes"/>
      <point x="611" y="64" type="line" smooth="yes"/>
      <point x="571" y="64"/>
      <point x="548" y="72"/>
      <point x="548" y="96" type="curve" smooth="yes"/>
      <point x="548" y="130"/>
      <point x="573" y="175"/>
      <point x="914" y="427" type="curve"/>
      <point x="922" y="434"/>
      <point x="929" y="444"/>
      <point x="934" y="452" type="curve"/>
    </contour>
  </outline>
</glyph>
<glyph name="uni5404" format="2">
  <advance width="1000" height="1000"/>
  <unicode hex="5404"/>
  <note>
cid11969
</note>
  <outline>
    <contour>
      <point x="759" y="-63" type="line"/>
      <point x="759" y="64" type="line"/>
      <point x="268" y="64" type="line"/>
      <point x="268" y="-63" type="line"/>
    </contour>
    <contour>
      <point x="496" y="819" type="curve"/>
      <point x="358" y="867" type="line"/>
      <point x="290" y="746"/>
      <point x="167" y="636"/>
      <point x="37" y="572" type="curve"/>
      <point x="68" y="547"/>
      <point x="121" y="492"/>
      <point x="144" y="463" type="curve"/>
      <point x="275" y="543"/>
      <point x="412" y="675"/>
    </contour>
    <contour>
      <point x="755" y="771" type="line"/>
      <point x="731" y="764" type="line"/>
      <point x="701" y="764" type="line"/>
      <point x="701" y="742" type="line"/>
      <point x="591" y="557"/>
      <point x="314" y="410"/>
      <point x="21" y="360" type="curve"/>
      <point x="47" y="328"/>
      <point x="78" y="268"/>
      <point x="92" y="230" type="curve"/>
      <point x="415" y="298"/>
      <point x="709" y="457"/>
      <point x="860" y="704" type="curve"/>
    </contour>
    <contour>
      <point x="321" y="701" type="curve"/>
      <point x="199" y="644" type="line"/>
      <point x="356" y="442"/>
      <point x="596" y="292"/>
      <point x="897" y="237" type="curve"/>
      <point x="917" y="277"/>
      <point x="958" y="341"/>
      <point x="991" y="374" type="curve"/>
      <point x="696" y="415"/>
      <point x="446" y="546"/>
    </contour>
    <contour>
      <point x="820" y="-91" type="line"/>
      <point x="820" y="290" type="line"/>
      <point x="194" y="290" type="line"/>
      <point x="194" y="-94" type="line"/>
      <point x="342" y="-94" type="line"/>
      <point x="342" y="159" type="line"/>
      <point x="663" y="159" type="line"/>
      <point x="663" y="-91" type="line"/>
    </contour>
    <contour>
      <point x="733" y="640" type="line"/>
      <point x="733" y="764" type="line"/>
      <point x="374" y="764" type="line"/>
      <point x="287" y="640" type="line"/>
    </contour>
  </outline>
</glyph>
<glyph name="uni540A" format="2">
  <advance width="1000" height="1000"/>
  <unicode hex="540A"/>
  <note>
cid11976
</note>
  <outline>
    <contour>
      <point x="676" y="577" type="line"/>
      <point x="322" y="577" type="line"/>
      <point x="322" y="685" type="line"/>
      <point x="676" y="685" type="line"/>
    </contour>
    <contour>
      <point x="838" y="441" type="line"/>
      <point x="838" y="821" type="line"/>
      <point x="170" y="821" type="line"/>
      <point x="170" y="441" type="line"/>
    </contour>
    <contour>
      <point x="579" y="-95" type="line"/>
      <point x="579" y="484" type="line"/>
      <point x="425" y="484" type="line"/>
      <point x="425" y="-95" type="line"/>
    </contour>
    <contour>
      <point x="803" y="219" type="line"/>
      <point x="803" y="357" type="line"/>
      <point x="105" y="357" type="line"/>
      <point x="105" y="-45" type="line"/>
      <point x="250" y="-45" type="line"/>
      <point x="250" y="219" type="line"/>
    </contour>
    <contour>
      <point x="907" y="102" type="curve" smooth="yes"/>
      <point x="907" y="357" type="line"/>
      <point x="758" y="357" type="line"/>
      <point x="758" y="105" type="line" smooth="yes"/>
      <point x="758" y="93"/>
      <point x="752" y="90"/>
      <point x="737" y="90" type="curve" smooth="yes"/>
      <point x="724" y="90"/>
      <point x="666" y="90"/>
      <point x="628" y="92" type="curve"/>
      <point x="646" y="55"/>
      <point x="665" y="-1"/>
      <point x="671" y="-42" type="curve"/>
      <point x="744" y="-42"/>
      <point x="802" y="-41"/>
      <point x="848" y="-21" type="curve" smooth="yes"/>
      <point x="894" y="0"/>
      <point x="907" y="37"/>
    </contour>
  </outline>
</glyph>
<glyph name="uni5410" format="2">
  <advance width="1000" height="1000"/>
  <unicode hex="5410"/>
  <note>
cid11984
</note>
  <outline>
    <contour>
      <point x="749" y="10" type="line"/>
      <point x="749" y="838" type="line"/>
      <point x="597" y="838" type="line"/>
      <point x="597" y="10" type="line"/>
    </contour>
    <contour>
      <point x="978" y="-56" type="line"/>
      <point x="978" y="88" type="line"/>
      <point x="343" y="88" type="line"/>
      <point x="343" y="-56" type="line"/>
    </contour>
    <contour>
      <point x="950" y="423" type="line"/>
      <point x="950" y="565" type="line"/>
      <point x="414" y="565" type="line"/>
      <point x="414" y="423" type="line"/>
    </contour>
    <contour>
      <point x="394" y="182" type="line"/>
      <point x="394" y="758" type="line"/>
      <point x="140" y="758" type="line"/>
      <point x="140" y="624" type="line"/>
      <point x="255" y="624" type="line"/>
      <point x="255" y="316" type="line"/>
      <point x="140" y="316" type="line"/>
      <point x="140" y="182" type="line"/>
    </contour>
    <contour>
      <point x="195" y="96" type="line"/>
      <point x="195" y="758" type="line"/>
      <point x="59" y="758" type="line"/>
      <point x="59" y="96" type="line"/>
    </contour>
  </outline>
</glyph>
<glyph name="uni5426" format="2">
  <advance width="1000" height="1000"/>
  <unicode hex="5426"/>
  <note>
cid12015
</note>
  <outline>
    <contour>
      <point x="751" y="-64" type="line"/>
      <point x="751" y="61" type="line"/>
      <point x="242" y="61" type="line"/>
      <point x="242" y="-64" type="line"/>
    </contour>
    <contour>
      <point x="853" y="-94" type="line"/>
      <point x="853" y="312" type="line"/>
      <point x="157" y="312" type="line"/>
      <point x="157" y="-94" type="line"/>
      <point x="309" y="-94" type="line"/>
      <point x="309" y="187" type="line"/>
      <point x="694" y="187" type="line"/>
      <point x="694" y="-94" type="line"/>
    </contour>
    <contour>
      <point x="943" y="674" type="line"/>
      <point x="943" y="809" type="line"/>
      <point x="56" y="809" type="line"/>
      <point x="56" y="674" type="line"/>
    </contour>
    <contour>
      <point x="644" y="693" type="curve"/>
      <point x="505" y="753" type="line"/>
      <point x="408" y="630"/>
      <point x="219" y="516"/>
      <point x="14" y="458" type="curve"/>
      <point x="45" y="426"/>
      <point x="89" y="369"/>
      <point x="110" y="334" type="curve"/>
      <point x="325" y="409"/>
      <point x="531" y="548"/>
    </contour>
    <contour>
      <point x="686" y="617" type="curve"/>
      <point x="581" y="521" type="line"/>
      <point x="682" y="475"/>
      <point x="807" y="401"/>
      <point x="876" y="346" type="curve"/>
      <point x="983" y="454" type="line"/>
      <point x="910" y="505"/>
      <point x="788" y="574"/>
    </contour>
    <contour>
      <point x="572" y="701" type="line"/>
      <point x="570" y="703" type="line"/>
      <point x="423" y="556" type="line"/>
      <point x="423" y="335" type="line"/>
      <point x="572" y="335" type="line"/>
    </contour>
  </outline>
</glyph>
<glyph name="uni543B" format="2">
  <advance width="1000" height="1000"/>
  <unicode hex="543B"/>
  <note>
cid12054
</note>
  <outline>
    <contour>
      <point x="869" y="551" type="line"/>
      <point x="869" y="680" type="line"/>
      <point x="477" y="680" type="line"/>
      <point x="477" y="551" type="line"/>
    </contour>
    <contour>
      <point x="599" y="829" type="curve"/>
      <point x="466" y="854" type="line"/>
      <point x="438" y="700"/>
      <point x="384" y="546"/>
      <point x="309" y="454" type="curve"/>
      <point x="340" y="436"/>
      <point x="397" y="395"/>
      <point x="421" y="373" type="curve"/>
      <point x="499" y="481"/>
      <point x="563" y="654"/>
    </contour>
    <contour>
      <point x="672" y="593" type="curve"/>
      <point x="545" y="611" type="line"/>
      <point x="518" y="432"/>
      <point x="421" y="253"/>
      <point x="292" y="146" type="curve"/>
      <point x="322" y="126"/>
      <point x="366" y="84"/>
      <point x="388" y="55" type="curve"/>
      <point x="527" y="185"/>
      <point x="636" y="392"/>
    </contour>
    <contour>
      <point x="816" y="593" type="curve"/>
      <point x="687" y="610" type="line"/>
      <point x="652" y="343"/>
      <point x="573" y="126"/>
      <point x="412" y="2" type="curve"/>
      <point x="441" y="-20"/>
      <point x="491" y="-70"/>
      <point x="509" y="-95" type="curve"/>
      <point x="679" y="52"/>
      <point x="770" y="294"/>
    </contour>
    <contour>
      <point x="960" y="680" type="curve"/>
      <point x="824" y="680" type="line"/>
      <point x="824" y="650" type="line" smooth="yes"/>
      <point x="809" y="239"/>
      <point x="787" y="83"/>
      <point x="762" y="50" type="curve" smooth="yes"/>
      <point x="750" y="34"/>
      <point x="740" y="30"/>
      <point x="724" y="30" type="curve" smooth="yes"/>
      <point x="705" y="30"/>
      <point x="673" y="30"/>
      <point x="636" y="34" type="curve"/>
      <point x="656" y="-2"/>
      <point x="671" y="-58"/>
      <point x="673" y="-94" type="curve"/>
      <point x="719" y="-95"/>
      <point x="763" y="-96"/>
      <point x="793" y="-89" type="curve" smooth="yes"/>
      <point x="829" y="-82"/>
      <point x="854" y="-70"/>
      <point x="881" y="-31" type="curve" smooth="yes"/>
      <point x="918" y="19"/>
      <point x="938" y="179"/>
      <point x="957" y="618" type="curve"/>
      <point x="959" y="635"/>
      <point x="960" y="680"/>
    </contour>
    <contour>
      <point x="352" y="178" type="line"/>
      <point x="352" y="757" type="line"/>
      <point x="131" y="757" type="line"/>
      <point x="131" y="626" type="line"/>
      <point x="230" y="626" type="line"/>
      <point x="230" y="310" type="line"/>
      <point x="131" y="310" type="line"/>
      <point x="131" y="178" type="line"/>
    </contour>
    <contour>
      <point x="180" y="95" type="line"/>
      <point x="180" y="757" type="line"/>
      <point x="59" y="757" type="line"/>
      <point x="59" y="95" type="line"/>
    </contour>
  </outline>
</glyph>
<glyph name="uni543E" format="2">
  <advance width="1000" height="1000"/>
  <unicode hex="543E"/>
  <note>
cid12058
</note>
  <outline>
    <contour>
      <point x="961" y="329" type="line"/>
      <point x="961" y="453" type="line"/>
      <point x="42" y="453" type="line"/>
      <point x="42" y="329" type="line"/>
    </contour>
    <contour>
      <point x="894" y="698" type="line"/>
      <point x="894" y="821" type="line"/>
      <point x="110" y="821" type="line"/>
      <point x="110" y="698" type="line"/>
    </contour>
    <contour>
      <point x="752" y="-62" type="line"/>
      <point x="752" y="62" type="line"/>
      <point x="254" y="62" type="line"/>
      <point x="254" y="-62" type="line"/>
    </contour>
    <contour>
      <point x="838" y="-94" type="line"/>
      <point x="838" y="274" type="line"/>
      <point x="169" y="274" type="line"/>
      <point x="169" y="-94" type="line"/>
      <point x="312" y="-94" type="line"/>
      <point x="312" y="152" type="line"/>
      <point x="688" y="152" type="line"/>
      <point x="688" y="-94" type="line"/>
    </contour>
    <contour>
      <point x="500" y="773" type="curve"/>
      <point x="349" y="773" type="line"/>
      <point x="331" y="652"/>
      <point x="299" y="504"/>
      <point x="271" y="405" type="curve"/>
      <point x="426" y="405" type="line"/>
      <point x="450" y="500"/>
      <point x="478" y="648"/>
    </contour>
    <contour>
      <point x="788" y="382" type="line"/>
      <point x="788" y="639" type="line"/>
      <point x="159" y="639" type="line"/>
      <point x="159" y="521" type="line"/>
      <point x="639" y="521" type="line"/>
      <point x="639" y="382" type="line"/>
    </contour>
  </outline>
</glyph>
<glyph name="uni5446" format="2">
  <advance width="1000" height="1000"/>
  <unicode hex="5446"/>
  <note>
cid12071
</note>
  <outline>
    <contour>
      <point x="695" y="565" type="line"/>
      <point x="304" y="565" type="line"/>
      <point x="304" y="683" type="line"/>
      <point x="695" y="683" type="line"/>
    </contour>
    <contour>
      <point x="849" y="431" type="line"/>
      <point x="849" y="816" type="line"/>
      <point x="160" y="816" type="line"/>
      <point x="160" y="431" type="line"/>
    </contour>
    <contour>
      <point x="572" y="-94" type="line"/>
      <point x="572" y="482" type="line"/>
      <point x="422" y="482" type="line"/>
      <point x="422" y="-94" type="line"/>
    </contour>
    <contour>
      <point x="938" y="231" type="line"/>
      <point x="938" y="367" type="line"/>
      <point x="64" y="367" type="line"/>
      <point x="64" y="231" type="line"/>
    </contour>
    <contour>
      <point x="517" y="252" type="curve"/>
      <point x="396" y="299" type="line"/>
      <point x="322" y="193"/>
      <point x="179" y="100"/>
      <point x="22" y="55" type="curve"/>
      <point x="54" y="24"/>
      <point x="99" y="-34"/>
      <point x="122" y="-71" type="curve"/>
      <point x="286" y="-9"/>
      <point x="428" y="108"/>
    </contour>
    <contour>
      <point x="604" y="295" type="curve"/>
      <point x="482" y="249" type="line"/>
      <point x="572" y="106"/>
      <point x="709" y="-7"/>
      <point x="875" y="-65" type="curve"/>
      <point x="898" y="-25"/>
      <point x="944" y="36"/>
      <point x="978" y="68" type="curve"/>
      <point x="819" y="109"/>
      <point x="677" y="194"/>
    </contour>
  </outline>
</glyph>
<glyph name="uni544A" format="2">
  <advance width="1000" height="1000"/>
  <unicode hex="544A"/>
  <note>
cid12077
</note>
  <outline>
    <contour>
      <point x="960" y="359" type="line"/>
      <point x="960" y="493" type="line"/>
      <point x="41" y="493" type="line"/>
      <point x="41" y="359" type="line"/>
    </contour>
    <contour>
      <point x="576" y="410" type="line"/>
      <point x="576" y="855" type="line"/>
      <point x="425" y="855" type="line"/>
      <point x="425" y="410" type="line"/>
    </contour>
    <contour>
      <point x="874" y="602" type="line"/>
      <point x="874" y="733" type="line"/>
      <point x="207" y="733" type="line"/>
      <point x="207" y="602" type="line"/>
    </contour>
    <contour>
      <point x="759" y="-63" type="line"/>
      <point x="759" y="71" type="line"/>
      <point x="241" y="71" type="line"/>
      <point x="241" y="-63" type="line"/>
    </contour>
    <contour>
      <point x="847" y="-92" type="line"/>
      <point x="847" y="306" type="line"/>
      <point x="166" y="306" type="line"/>
      <point x="166" y="-95" type="line"/>
      <point x="316" y="-95" type="line"/>
      <point x="316" y="173" type="line"/>
      <point x="689" y="173" type="line"/>
      <point x="689" y="-92" type="line"/>
    </contour>
    <contour>
      <point x="354" y="820" type="curve"/>
      <point x="206" y="856" type="line"/>
      <point x="176" y="746"/>
      <point x="118" y="630"/>
      <point x="55" y="556" type="curve"/>
      <point x="92" y="539"/>
      <point x="157" y="503"/>
      <point x="189" y="480" type="curve"/>
      <point x="251" y="559"/>
      <point x="314" y="690"/>
    </contour>
  </outline>
</glyph>
<glyph name="uni5462" format="2">
  <advance width="1000" height="1000"/>
  <unicode hex="5462"/>
  <note>
cid12105
</note>
  <outline>
    <contour>
      <point x="359" y="163" type="line"/>
      <point x="359" y="758" type="line"/>
      <point x="129" y="758" type="line"/>
      <point x="129" y="624" type="line"/>
      <point x="229" y="624" type="line"/>
      <point x="229" y="297" type="line"/>
      <point x="129" y="297" type="line"/>
      <point x="129" y="163" type="line"/>
    </contour>
    <contour>
      <point x="181" y="87" type="line"/>
      <point x="181" y="758" type="line"/>
      <point x="53" y="758" type="line"/>
      <point x="53" y="87" type="line"/>
    </contour>
    <contour>
      <point x="942" y="486" type="line"/>
      <point x="942" y="820" type="line"/>
      <point x="477" y="820" type="line"/>
      <point x="477" y="694" type="line"/>
      <point x="802" y="694" type="line"/>
      <point x="802" y="612" type="line"/>
      <point x="477" y="612" type="line"/>
      <point x="477" y="486" type="line"/>
    </contour>
    <contour>
      <point x="546" y="466" type="curve" smooth="yes"/>
      <point x="546" y="820" type="line"/>
      <point x="410" y="820" type="line"/>
      <point x="410" y="466" type="line" smooth="yes"/>
      <point x="410" y="319"/>
      <point x="393" y="113"/>
      <point x="298" y="-18" type="curve"/>
      <point x="331" y="-32"/>
      <point x="390" y="-72"/>
      <point x="414" y="-95" type="curve"/>
      <point x="519" y="49"/>
      <point x="546" y="300"/>
    </contour>
    <contour>
      <point x="709" y="88" type="curve" smooth="yes"/>
      <point x="709" y="458" type="line"/>
      <point x="573" y="458" type="line"/>
      <point x="573" y="88" type="line" smooth="yes"/>
      <point x="573" y="-40"/>
      <point x="601" y="-81"/>
      <point x="719" y="-81" type="curve" smooth="yes"/>
      <point x="741" y="-81"/>
      <point x="807" y="-81"/>
      <point x="830" y="-81" type="curve" smooth="yes"/>
      <point x="926" y="-81"/>
      <point x="961" y="-36"/>
      <point x="975" y="119" type="curve"/>
      <point x="938" y="127"/>
      <point x="881" y="150"/>
      <point x="853" y="172" type="curve"/>
      <point x="849" y="64"/>
      <point x="843" y="46"/>
      <point x="817" y="46" type="curve" smooth="yes"/>
      <point x="803" y="46"/>
      <point x="752" y="46"/>
      <point x="740" y="46" type="curve" smooth="yes"/>
      <point x="713" y="46"/>
      <point x="709" y="50"/>
    </contour>
    <contour>
      <point x="965" y="317" type="curve"/>
      <point x="861" y="418" type="line"/>
      <point x="802" y="367"/>
      <point x="709" y="311"/>
      <point x="621" y="274" type="curve"/>
      <point x="638" y="247"/>
      <point x="659" y="202"/>
      <point x="667" y="174" type="curve"/>
      <point x="765" y="209"/>
      <point x="876" y="259"/>
    </contour>
  </outline>
</glyph>
<glyph name="uni5473" format="2">
  <advance width="1000" height="1000"/>
  <unicode hex="5473"/>
  <note>
cid12135
</note>
  <outline>
    <contour>
      <point x="380" y="165" type="line"/>
      <point x="380" y="760" type="line"/>
      <point x="144" y="760" type="line"/>
      <point x="144" y="626" type="line"/>
      <point x="243" y="626" type="line"/>
      <point x="243" y="299" type="line"/>
      <point x="144" y="299" type="line"/>
      <point x="144" y="165" type="line"/>
    </contour>
    <contour>
      <point x="193" y="89" type="line"/>
      <point x="193" y="760" type="line"/>
      <point x="60" y="760" type="line"/>
      <point x="60" y="89" type="line"/>
    </contour>
    <contour>
      <point x="937" y="565" type="line"/>
      <point x="937" y="703" type="line"/>
      <point x="429" y="703" type="line"/>
      <point x="429" y="565" type="line"/>
    </contour>
    <contour>
      <point x="963" y="328" type="line"/>
      <point x="963" y="466" type="line"/>
      <point x="401" y="466" type="line"/>
      <point x="401" y="328" type="line"/>
    </contour>
    <contour>
      <point x="748" y="-94" type="line"/>
      <point x="748" y="851" type="line"/>
      <point x="601" y="851" type="line"/>
      <point x="601" y="-94" type="line"/>
    </contour>
    <contour>
      <point x="709" y="346" type="curve"/>
      <point x="591" y="381" type="line"/>
      <point x="537" y="248"/>
      <point x="423" y="127"/>
      <point x="296" y="69" type="curve"/>
      <point x="329" y="40"/>
      <point x="373" y="-12"/>
      <point x="397" y="-50" type="curve"/>
      <point x="533" y="30"/>
      <point x="654" y="182"/>
    </contour>
    <contour>
      <point x="761" y="382" type="curve"/>
      <point x="658" y="349" type="line"/>
      <point x="704" y="199"/>
      <point x="792" y="50"/>
      <point x="887" y="-38" type="curve"/>
      <point x="913" y="1"/>
      <point x="959" y="53"/>
      <point x="992" y="80" type="curve"/>
      <point x="893" y="154"/>
      <point x="804" y="270"/>
    </contour>
  </outline>
</glyph>
<glyph name="uni5475" format="2">
  <advance width="1000" height="1000"/>
  <unicode hex="5475"/>
  <note>
cid12137
</note>
  <outline>
    <contour>
      <point x="975" y="650" type="line"/>
      <point x="975" y="792" type="line"/>
      <point x="391" y="792" type="line"/>
      <point x="391" y="650" type="line"/>
    </contour>
    <contour>
      <point x="898" y="71" type="curve" smooth="yes"/>
      <point x="898" y="720" type="line"/>
      <point x="750" y="720" type="line"/>
      <point x="750" y="73" type="line" smooth="yes"/>
      <point x="750" y="56"/>
      <point x="743" y="51"/>
      <point x="724" y="51" type="curve" smooth="yes"/>
      <point x="704" y="50"/>
      <point x="638" y="51"/>
      <point x="582" y="53" type="curve"/>
      <point x="602" y="12"/>
      <point x="624" y="-53"/>
      <point x="630" y="-95" type="curve"/>
      <point x="720" y="-96"/>
      <point x="788" y="-91"/>
      <point x="836" y="-68" type="curve" smooth="yes"/>
      <point x="883" y="-46"/>
      <point x="898" y="-7"/>
    </contour>
    <contour>
      <point x="531" y="113" type="line"/>
      <point x="531" y="568" type="line"/>
      <point x="411" y="568" type="line"/>
      <point x="411" y="113" type="line"/>
    </contour>
    <contour>
      <point x="704" y="170" type="line"/>
      <point x="704" y="568" type="line"/>
      <point x="478" y="568" type="line"/>
      <point x="478" y="442" type="line"/>
      <point x="584" y="442" type="line"/>
      <point x="584" y="296" type="line"/>
      <point x="478" y="296" type="line"/>
      <point x="478" y="170" type="line"/>
    </contour>
    <contour>
      <point x="365" y="163" type="line"/>
      <point x="365" y="758" type="line"/>
      <point x="133" y="758" type="line"/>
      <point x="133" y="624" type="line"/>
      <point x="235" y="624" type="line"/>
      <point x="235" y="297" type="line"/>
      <point x="133" y="297" type="line"/>
      <point x="133" y="163" type="line"/>
    </contour>
    <contour>
      <point x="186" y="83" type="line"/>
      <point x="186" y="758" type="line"/>
      <point x="59" y="758" type="line"/>
      <point x="59" y="83" type="line"/>
    </contour>
  </outline>
</glyph>
<glyph name="uni547C" format="2">
  <advance width="1000" height="1000"/>
  <unicode hex="547C"/>
  <note>
cid12147
</note>
  <outline>
    <contour>
      <point x="975" y="239" type="line"/>
      <point x="975" y="376" type="line"/>
      <point x="375" y="376" type="line"/>
      <point x="375" y="239" type="line"/>
    </contour>
    <contour>
      <point x="736" y="63" type="curve" smooth="yes"/>
      <point x="736" y="704" type="line"/>
      <point x="591" y="704" type="line"/>
      <point x="591" y="65" type="line" smooth="yes"/>
      <point x="591" y="48"/>
      <point x="585" y="43"/>
      <point x="567" y="43" type="curve" smooth="yes"/>
      <point x="549" y="43"/>
      <point x="490" y="43"/>
      <point x="439" y="46" type="curve"/>
      <point x="460" y="8"/>
      <point x="483" y="-55"/>
      <point x="489" y="-95" type="curve"/>
      <point x="571" y="-95"/>
      <point x="633" y="-91"/>
      <point x="677" y="-68" type="curve" smooth="yes"/>
      <point x="722" y="-46"/>
      <point x="736" y="-9"/>
    </contour>
    <contour>
      <point x="956" y="729" type="curve"/>
      <point x="860" y="848" type="line"/>
      <point x="735" y="813"/>
      <point x="546" y="788"/>
      <point x="372" y="777" type="curve"/>
      <point x="387" y="745"/>
      <point x="406" y="691"/>
      <point x="410" y="656" type="curve"/>
      <point x="589" y="664"/>
      <point x="796" y="686"/>
    </contour>
    <contour>
      <point x="967" y="616" type="curve"/>
      <point x="825" y="662" type="line"/>
      <point x="809" y="588"/>
      <point x="777" y="490"/>
      <point x="748" y="428" type="curve"/>
      <point x="863" y="385" type="line"/>
      <point x="894" y="442"/>
      <point x="932" y="531"/>
    </contour>
    <contour>
      <point x="499" y="641" type="curve"/>
      <point x="380" y="600" type="line"/>
      <point x="413" y="533"/>
      <point x="439" y="442"/>
      <point x="444" y="383" type="curve"/>
      <point x="572" y="428" type="line"/>
      <point x="563" y="488"/>
      <point x="535" y="575"/>
    </contour>
    <contour>
      <point x="360" y="165" type="line"/>
      <point x="360" y="760" type="line"/>
      <point x="132" y="760" type="line"/>
      <point x="132" y="626" type="line"/>
      <point x="232" y="626" type="line"/>
      <point x="232" y="299" type="line"/>
      <point x="132" y="299" type="line"/>
      <point x="132" y="165" type="line"/>
    </contour>
    <contour>
      <point x="186" y="89" type="line"/>
      <point x="186" y="760" type="line"/>
      <point x="60" y="760" type="line"/>
      <point x="60" y="89" type="line"/>
    </contour>
  </outline>
</glyph>
<glyph name="uni548C" format="2">
  <advance width="1000" height="1000"/>
  <unicode hex="548C"/>
  <note>
cid12168
</note>
  <outline>
    <contour>
      <point x="853" y="-1" type="line"/>
      <point x="853" y="138" type="line"/>
      <point x="560" y="138" type="line"/>
      <point x="560" y="-1" type="line"/>
    </contour>
    <contour>
      <point x="925" y="-47" type="line"/>
      <point x="925" y="751" type="line"/>
      <point x="508" y="751" type="line"/>
      <point x="508" y="-55" type="line"/>
      <point x="650" y="-55" type="line"/>
      <point x="650" y="612" type="line"/>
      <point x="776" y="612" type="line"/>
      <point x="776" y="-47" type="line"/>
    </contour>
    <contour>
      <point x="356" y="-94" type="line"/>
      <point x="356" y="748" type="line"/>
      <point x="210" y="748" type="line"/>
      <point x="210" y="-94" type="line"/>
    </contour>
    <contour>
      <point x="486" y="422" type="line"/>
      <point x="486" y="556" type="line"/>
      <point x="40" y="556" type="line"/>
      <point x="40" y="422" type="line"/>
    </contour>
    <contour>
      <point x="295" y="472" type="curve"/>
      <point x="200" y="504" type="line"/>
      <point x="170" y="381"/>
      <point x="102" y="236"/>
      <point x="20" y="147" type="curve"/>
      <point x="44" y="110"/>
      <point x="79" y="52"/>
      <point x="93" y="10" type="curve"/>
      <point x="185" y="115"/>
      <point x="255" y="306"/>
    </contour>
    <contour>
      <point x="491" y="742" type="curve"/>
      <point x="396" y="854" type="line"/>
      <point x="303" y="817"/>
      <point x="163" y="781"/>
      <point x="35" y="760" type="curve"/>
      <point x="51" y="730"/>
      <point x="71" y="681"/>
      <point x="77" y="649" type="curve"/>
      <point x="212" y="667"/>
      <point x="368" y="697"/>
    </contour>
    <contour>
      <point x="342" y="424" type="curve"/>
      <point x="274" y="355" type="line"/>
      <point x="314" y="300"/>
      <point x="385" y="194"/>
      <point x="419" y="128" type="curve"/>
      <point x="501" y="249" type="line"/>
      <point x="478" y="277"/>
      <point x="373" y="396"/>
    </contour>
  </outline>
</glyph>
<glyph name="uni5495" format="2">
  <advance width="1000" height="1000"/>
  <unicode hex="5495"/>
  <note>
cid12181
</note>
  <outline>
    <contour>
      <point x="372" y="163" type="line"/>
      <point x="372" y="758" type="line"/>
      <point x="152" y="758" type="line"/>
      <point x="152" y="624" type="line"/>
      <point x="239" y="624" type="line"/>
      <point x="239" y="297" type="line"/>
      <point x="152" y="297" type="line"/>
      <point x="152" y="163" type="line"/>
    </contour>
    <contour>
      <point x="191" y="78" type="line"/>
      <point x="191" y="758" type="line"/>
      <point x="58" y="758" type="line"/>
      <point x="58" y="78" type="line"/>
    </contour>
    <contour>
      <point x="747" y="298" type="line"/>
      <point x="747" y="855" type="line"/>
      <point x="601" y="855" type="line"/>
      <point x="601" y="298" type="line"/>
    </contour>
    <contour>
      <point x="975" y="522" type="line"/>
      <point x="975" y="661" type="line"/>
      <point x="390" y="661" type="line"/>
      <point x="390" y="522" type="line"/>
    </contour>
    <contour>
      <point x="857" y="-44" type="line"/>
      <point x="857" y="87" type="line"/>
      <point x="508" y="87" type="line"/>
      <point x="508" y="-44" type="line"/>
    </contour>
    <contour>
      <point x="927" y="-86" type="line"/>
      <point x="927" y="362" type="line"/>
      <point x="433" y="362" type="line"/>
      <point x="433" y="-95" type="line"/>
      <point x="577" y="-95" type="line"/>
      <point x="577" y="229" type="line"/>
      <point x="776" y="229" type="line"/>
      <point x="776" y="-86" type="line"/>
    </contour>
  </outline>
</glyph>
<glyph name="uni5496" format="2">
  <advance width="1000" height="1000"/>
  <unicode hex="5496"/>
  <note>
cid12182
</note>
  <outline>
    <contour>
      <point x="577" y="537" type="line"/>
      <point x="577" y="664" type="line"/>
      <point x="324" y="664" type="line"/>
      <point x="324" y="537" type="line"/>
    </contour>
    <contour>
      <point x="876" y="19" type="line"/>
      <point x="876" y="146" type="line"/>
      <point x="717" y="146" type="line"/>
      <point x="717" y="19" type="line"/>
    </contour>
    <contour>
      <point x="945" y="-48" type="line"/>
      <point x="945" y="745" type="line"/>
      <point x="671" y="745" type="line"/>
      <point x="671" y="-56" type="line"/>
      <point x="785" y="-56" type="line"/>
      <point x="785" y="618" type="line"/>
      <point x="825" y="618" type="line"/>
      <point x="825" y="-48" type="line"/>
    </contour>
    <contour>
      <point x="658" y="664" type="curve"/>
      <point x="535" y="664" type="line"/>
      <point x="535" y="635" type="line"/>
      <point x="527" y="226"/>
      <point x="518" y="89"/>
      <point x="499" y="59" type="curve" smooth="yes"/>
      <point x="490" y="44"/>
      <point x="483" y="40"/>
      <point x="470" y="40" type="curve" smooth="yes"/>
      <point x="455" y="40"/>
      <point x="436" y="40"/>
      <point x="412" y="43" type="curve"/>
      <point x="431" y="7"/>
      <point x="443" y="-47"/>
      <point x="445" y="-84" type="curve"/>
      <point x="482" y="-85"/>
      <point x="515" y="-84"/>
      <point x="540" y="-78" type="curve" smooth="yes"/>
      <point x="569" y="-71"/>
      <point x="588" y="-59"/>
      <point x="609" y="-26" type="curve" smooth="yes"/>
      <point x="638" y="19"/>
      <point x="647" y="177"/>
      <point x="657" y="607" type="curve"/>
      <point x="658" y="623"/>
      <point x="658" y="664"/>
    </contour>
    <contour>
      <point x="497" y="850" type="curve"/>
      <point x="375" y="850" type="line"/>
      <point x="374" y="431"/>
      <point x="379" y="162"/>
      <point x="240" y="-7" type="curve"/>
      <point x="271" y="-27"/>
      <point x="313" y="-72"/>
      <point x="332" y="-103" type="curve"/>
      <point x="490" y="90"/>
      <point x="496" y="402"/>
    </contour>
    <contour>
      <point x="312" y="173" type="line"/>
      <point x="312" y="757" type="line"/>
      <point x="133" y="757" type="line"/>
      <point x="133" y="628" type="line"/>
      <point x="203" y="628" type="line"/>
      <point x="203" y="301" type="line"/>
      <point x="133" y="301" type="line"/>
      <point x="133" y="173" type="line"/>
    </contour>
    <contour>
      <point x="162" y="86" type="line"/>
      <point x="162" y="757" type="line"/>
      <point x="55" y="757" type="line"/>
      <point x="55" y="86" type="line"/>
    </contour>
  </outline>
</glyph>
<glyph name="uni54B1" format="2">
  <advance width="1000" height="1000"/>
  <unicode hex="54B1"/>
  <note>
cid12223
</note>
  <outline>
    <contour>
      <point x="888" y="370" type="line"/>
      <point x="888" y="504" type="line"/>
      <point x="473" y="504" type="line"/>
      <point x="473" y="370" type="line"/>
    </contour>
    <contour>
      <point x="890" y="169" type="line"/>
      <point x="890" y="303" type="line"/>
      <point x="475" y="303" type="line"/>
      <point x="475" y="169" type="line"/>
    </contour>
    <contour>
      <point x="908" y="-41" type="line"/>
      <point x="908" y="97" type="line"/>
      <point x="475" y="97" type="line"/>
      <point x="475" y="-41" type="line"/>
    </contour>
    <contour>
      <point x="945" y="-94" type="line"/>
      <point x="945" y="706" type="line"/>
      <point x="423" y="706" type="line"/>
      <point x="423" y="-94" type="line"/>
      <point x="559" y="-94" type="line"/>
      <point x="559" y="568" type="line"/>
      <point x="801" y="568" type="line"/>
      <point x="801" y="-94" type="line"/>
    </contour>
    <contour>
      <point x="764" y="831" type="curve"/>
      <point x="605" y="855" type="line"/>
      <point x="595" y="798"/>
      <point x="574" y="724"/>
      <point x="554" y="672" type="curve"/>
      <point x="687" y="646" type="line"/>
      <point x="709" y="691"/>
      <point x="737" y="759"/>
    </contour>
    <contour>
      <point x="386" y="163" type="line"/>
      <point x="386" y="758" type="line"/>
      <point x="138" y="758" type="line"/>
      <point x="138" y="624" type="line"/>
      <point x="248" y="624" type="line"/>
      <point x="248" y="297" type="line"/>
      <point x="138" y="297" type="line"/>
      <point x="138" y="163" type="line"/>
    </contour>
    <contour>
      <point x="194" y="83" type="line"/>
      <point x="194" y="758" type="line"/>
      <point x="59" y="758" type="line"/>
      <point x="59" y="83" type="line"/>
    </contour>
  </outline>
</glyph>
